Inter-ExtraBoldItalic.ufo
<glyph name="exclam" format="2">
  <advance width="957"/>
  <unicode hex="0021"/>
  <outline>
    <contour>
      <point x="938" y="2048" type="line"/>
      <point x="439" y="2048" type="line"/>
      <point x="250" y="627" type="line"/>
      <point x="658" y="627" type="line"/>
    </contour>
    <component base="period" xOffset="52"/>
  </outline>
</glyph>
<glyph name="numbersign" format="2">
  <advance width="1846"/>
  <unicode hex="0023"/>
  <note>
1. outline
2. slant 9.4 deg
3. remove extra shapes created by outlining
</note>
  <outline>
    <contour>
      <point x="959" y="0" type="line"/>
      <point x="1319" y="0" type="line"/>
      <point x="1691" y="2048" type="line"/>
      <point x="1331" y="2048" type="line"/>
    </contour>
    <contour>
      <point x="55" y="488" type="line"/>
      <point x="1679" y="488" type="line"/>
      <point x="1747" y="848" type="line"/>
      <point x="123" y="848" type="line"/>
    </contour>
    <contour>
      <point x="239" y="0" type="line"/>
      <point x="599" y="0" type="line"/>
      <point x="971" y="2048" type="line"/>
      <point x="611" y="2048" type="line"/>
    </contour>
    <contour>
      <point x="185" y="1200" type="line"/>
      <point x="1809" y="1200" type="line"/>
      <point x="1876" y="1560" type="line"/>
      <point x="252" y="1560" type="line"/>
    </contour>
  </outline>
</glyph>
<glyph name="percent" format="2">
  <advance width="2464"/>
  <unicode hex="0025"/>
  <outline>
    <contour>
      <point x="1234" y="384" type="line" smooth="yes"/>
      <point x="1193" y="131"/>
      <point x="1320" y="-86"/>
      <point x="1623" y="-86" type="curve" smooth="yes"/>
      <point x="1926" y="-86"/>
      <point x="2130" y="131"/>
      <point x="2170" y="384" type="curve" smooth="yes"/>
      <point x="2190" y="492" type="line" smooth="yes"/>
      <point x="2234" y="748"/>
      <point x="2105" y="962"/>
      <point x="1798" y="962" type="curve" smooth="yes"/>
      <point x="1499" y="962"/>
      <point x="1294" y="745"/>
      <point x="1254" y="492" type="curve" smooth="yes"/>
    </contour>
    <contour>
      <point x="1573" y="492" type="line" smooth="yes"/>
      <point x="1588" y="581"/>
      <point x="1638" y="678"/>
      <point x="1751" y="678" type="curve" smooth="yes"/>
      <point x="1871" y="678"/>
      <point x="1883" y="581"/>
      <point x="1868" y="492" type="curve" smooth="yes"/>
      <point x="1848" y="384" type="line" smooth="yes"/>
      <point x="1836" y="295"/>
      <point x="1786" y="202"/>
      <point x="1670" y="202" type="curve" smooth="yes"/>
      <point x="1557" y="202"/>
      <point x="1541" y="298"/>
      <point x="1553" y="384" type="curve" smooth="yes"/>
    </contour>
    <contour>
      <point x="368" y="1556" type="line" smooth="yes"/>
      <point x="326" y="1303"/>
      <point x="454" y="1090"/>
      <point x="758" y="1090" type="curve" smooth="yes"/>
      <point x="1060" y="1090"/>
      <point x="1263" y="1300"/>
      <point x="1305" y="1556" type="curve" smooth="yes"/>
      <point x="1321" y="1664" type="line" smooth="yes"/>
      <point x="1365" y="1920"/>
      <point x="1235" y="2134"/>
      <point x="929" y="2134" type="curve" smooth="yes"/>
      <point x="633" y="2134"/>
      <point x="428" y="1920"/>
      <point x="384" y="1664" type="curve" smooth="yes"/>
    </contour>
    <contour>
      <point x="706" y="1664" type="line" smooth="yes"/>
      <point x="722" y="1750"/>
      <point x="769" y="1850"/>
      <point x="882" y="1850" type="curve" smooth="yes"/>
      <point x="1002" y="1850"/>
      <point x="1014" y="1753"/>
      <point x="998" y="1664" type="curve" smooth="yes"/>
      <point x="982" y="1556" type="line" smooth="yes"/>
      <point x="966" y="1467"/>
      <point x="921" y="1374"/>
      <point x="805" y="1374" type="curve" smooth="yes"/>
      <point x="694" y="1374"/>
      <point x="674" y="1467"/>
      <point x="690" y="1556" type="curve" smooth="yes"/>
    </contour>
    <component base="fraction" xOffset="801"/>
  </outline>
</glyph>
<glyph name="ampersand" format="2">
  <advance width="1931"/>
  <unicode hex="0026"/>
  <outline>
    <contour>
      <point x="667" y="-31" type="curve" smooth="yes"/>
      <point x="845" y="-31"/>
      <point x="1045" y="15"/>
      <point x="1219" y="128" type="curve" smooth="yes"/>
      <point x="1271" y="154"/>
      <point x="1321" y="178"/>
      <point x="1373" y="204" type="curve" smooth="yes"/>
      <point x="1630" y="370"/>
      <point x="1797" y="667"/>
      <point x="1854" y="1034" type="curve"/>
      <point x="1460" y="1034" type="line"/>
      <point x="1395" y="635"/>
      <point x="1042" y="356"/>
      <point x="762" y="356" type="curve" smooth="yes"/>
      <point x="606" y="356"/>
      <point x="522" y="445"/>
      <point x="540" y="576" type="curve" smooth="yes"/>
      <point x="555" y="661"/>
      <point x="622" y="733"/>
      <point x="720" y="797" type="curve" smooth="yes"/>
      <point x="1192" y="1098" type="line" smooth="yes"/>
      <point x="1387" y="1222"/>
      <point x="1512" y="1383"/>
      <point x="1543" y="1576" type="curve" smooth="yes"/>
      <point x="1590" y="1849"/>
      <point x="1418" y="2078"/>
      <point x="1081" y="2078" type="curve" smooth="yes"/>
      <point x="734" y="2078"/>
      <point x="464" y="1835"/>
      <point x="413" y="1530" type="curve" smooth="yes"/>
      <point x="367" y="1258"/>
      <point x="522" y="1048"/>
      <point x="638" y="891" type="curve" smooth="yes"/>
      <point x="1309" y="0" type="line"/>
      <point x="1807" y="0" type="line"/>
      <point x="1008" y="1103" type="line" smooth="yes"/>
      <point x="895" y="1276"/>
      <point x="798" y="1398"/>
      <point x="815" y="1523" type="curve" smooth="yes"/>
      <point x="828" y="1620"/>
      <point x="914" y="1688"/>
      <point x="1018" y="1688" type="curve" smooth="yes"/>
      <point x="1131" y="1688"/>
      <point x="1176" y="1616"/>
      <point x="1162" y="1544" type="curve" smooth="yes"/>
      <point x="1150" y="1478"/>
      <point x="1103" y="1406"/>
      <point x="996" y="1345" type="curve" smooth="yes"/>
      <point x="520" y="1070" type="line" smooth="yes"/>
      <point x="276" y="921"/>
      <point x="104" y="781"/>
      <point x="66" y="544" type="curve" smooth="yes"/>
      <point x="14" y="225"/>
      <point x="235" y="-31"/>
    </contour>
  </outline>
</glyph>
<glyph name="quotesingle" format="2">
  <advance width="576"/>
  <unicode hex="0027"/>
  <outline>
    <contour>
      <point x="664" y="2048" type="line"/>
      <point x="332" y="2048" type="line"/>
      <point x="200" y="1245" type="line"/>
      <point x="532" y="1245" type="line"/>
    </contour>
  </outline>
</glyph>
<glyph name="parenleft" format="2">
  <advance width="1196"/>
  <unicode hex="0028"/>
  <outline>
    <contour>
      <point x="258" y="806" type="curve" smooth="yes"/>
      <point x="178" y="312"/>
      <point x="239" y="-98"/>
      <point x="462" y="-454" type="curve"/>
      <point x="935" y="-454" type="line"/>
      <point x="765" y="-190"/>
      <point x="688" y="334"/>
      <point x="768" y="806" type="curve" smooth="yes"/>
      <point x="848" y="1279"/>
      <point x="1094" y="1803"/>
      <point x="1353" y="2067" type="curve"/>
      <point x="879" y="2067" type="line"/>
      <point x="537" y="1711"/>
      <point x="339" y="1301"/>
    </contour>
  </outline>
</glyph>
<glyph name="asterisk" format="2">
  <advance width="1651"/>
  <unicode hex="002A"/>
  <note>
hexagonal angle: 30 deg
</note>
  <outline>
    <contour>
      <point x="698" y="896" type="line"/>
      <point x="993" y="896" type="line"/>
      <point x="1027" y="1266" type="line"/>
      <point x="1299" y="1055" type="line"/>
      <point x="1490" y="1313" type="line"/>
      <point x="1182" y="1472" type="line"/>
      <point x="1541" y="1631" type="line"/>
      <point x="1437" y="1889" type="line"/>
      <point x="1094" y="1678" type="line"/>
      <point x="1185" y="2048" type="line"/>
      <point x="890" y="2048" type="line"/>
      <point x="857" y="1678" type="line"/>
      <point x="585" y="1889" type="line"/>
      <point x="394" y="1631" type="line"/>
      <point x="702" y="1472" type="line"/>
      <point x="343" y="1313" type="line"/>
      <point x="446" y="1055" type="line"/>
      <point x="790" y="1266" type="line"/>
    </contour>
  </outline>
</glyph>
<glyph name="plus" format="2">
  <advance width="1933"/>
  <unicode hex="002B"/>
  <outline>
    <contour>
      <point x="654" y="102" type="line"/>
      <point x="1058" y="102" type="line"/>
      <point x="1297" y="1550" type="line"/>
      <point x="893" y="1550" type="line"/>
    </contour>
    <contour>
      <point x="217" y="624" type="line"/>
      <point x="1665" y="624" type="line"/>
      <point x="1734" y="1027" type="line"/>
      <point x="286" y="1027" type="line"/>
    </contour>
  </outline>
</glyph>
<glyph name="comma" format="2">
  <advance width="874"/>
  <unicode hex="002C"/>
  <outline>
    <contour>
      <point x="574" y="280" type="line"/>
      <point x="190" y="280" type="line"/>
      <point x="168" y="168" type="line" smooth="yes"/>
      <point x="119" y="-104"/>
      <point x="-17" y="-391"/>
      <point x="-62" y="-500" type="curve"/>
      <point x="246" y="-500" type="line"/>
      <point x="312" y="-383"/>
      <point x="477" y="-107"/>
      <point x="545" y="169" type="curve" smooth="yes"/>
    </contour>
  </outline>
</glyph>
<glyph name="hyphen" format="2">
  <advance width="1328"/>
  <unicode hex="002D"/>
  <outline>
    <contour>
      <point x="1178" y="1017" type="line"/>
      <point x="231" y="1017" type="line"/>
      <point x="170" y="640" type="line"/>
      <point x="1117" y="640" type="line"/>
    </contour>
  </outline>
</glyph>
<glyph name="period" format="2">
  <advance width="859"/>
  <unicode hex="002E"/>
  <outline>
    <contour>
      <point x="317" y="-29" type="curve" smooth="yes"/>
      <point x="452" y="-29"/>
      <point x="586" y="86"/>
      <point x="599" y="231" type="curve" smooth="yes"/>
      <point x="612" y="372"/>
      <point x="503" y="487"/>
      <point x="365" y="487" type="curve" smooth="yes"/>
      <point x="220" y="487"/>
      <point x="92" y="373"/>
      <point x="79" y="231" type="curve" smooth="yes"/>
      <point x="67" y="86"/>
      <point x="172" y="-29"/>
    </contour>
  </outline>
</glyph>
<glyph name="slash" format="2">
  <advance width="1129"/>
  <unicode hex="002F"/>
  <outline>
    <contour>
      <point x="1331" y="2144" type="line"/>
      <point x="914" y="2144" type="line"/>
      <point x="-150" y="-308" type="line"/>
      <point x="267" y="-308" type="line"/>
    </contour>
  </outline>
</glyph>
<glyph name="zero" format="2">
  <advance width="1997"/>
  <unicode hex="0030"/>
  <outline>
    <contour>
      <point x="863" y="-50" type="curve" smooth="yes"/>
      <point x="1398" y="-50"/>
      <point x="1793" y="346"/>
      <point x="1905" y="1021" type="curve" smooth="yes"/>
      <point x="2017" y="1695"/>
      <point x="1749" y="2076"/>
      <point x="1214" y="2076" type="curve" smooth="yes"/>
      <point x="680" y="2076"/>
      <point x="288" y="1694"/>
      <point x="174" y="1021" type="curve" smooth="yes"/>
      <point x="59" y="347"/>
      <point x="325" y="-50"/>
    </contour>
    <contour>
      <point x="931" y="355" type="curve" smooth="yes"/>
      <point x="718" y="355"/>
      <point x="607" y="569"/>
      <point x="682" y="1021" type="curve" smooth="yes"/>
      <point x="756" y="1463"/>
      <point x="937" y="1674"/>
      <point x="1150" y="1674" type="curve" smooth="yes"/>
      <point x="1362" y="1674"/>
      <point x="1471" y="1463"/>
      <point x="1396" y="1021" type="curve" smooth="yes"/>
      <point x="1319" y="570"/>
      <point x="1145" y="355"/>
    </contour>
  </outline>
</glyph>
<glyph name="one" format="2">
  <advance width="1401"/>
  <unicode hex="0031"/>
  <outline>
    <contour>
      <point x="1310" y="2048" type="line"/>
      <point x="851" y="2048" type="line"/>
      <point x="293" y="1734" type="line"/>
      <point x="223" y="1306" type="line"/>
      <point x="728" y="1586" type="line"/>
      <point x="740" y="1586" type="line"/>
      <point x="476" y="0" type="line"/>
      <point x="970" y="0" type="line"/>
    </contour>
  </outline>
</glyph>
<glyph name="two" format="2">
  <advance width="1797"/>
  <unicode hex="0032"/>
  <outline>
    <contour>
      <point x="23" y="0" type="line"/>
      <point x="1539" y="0" type="line"/>
      <point x="1606" y="399" type="line"/>
      <point x="775" y="399" type="line"/>
      <point x="778" y="412" type="line"/>
      <point x="1060" y="638" type="line" smooth="yes"/>
      <point x="1569" y="1026"/>
      <point x="1717" y="1222"/>
      <point x="1757" y="1457" type="curve" smooth="yes"/>
      <point x="1819" y="1826"/>
      <point x="1559" y="2076"/>
      <point x="1094" y="2076" type="curve" smooth="yes"/>
      <point x="641" y="2076"/>
      <point x="294" y="1816"/>
      <point x="224" y="1398" type="curve"/>
      <point x="694" y="1398" type="line"/>
      <point x="724" y="1582"/>
      <point x="858" y="1690"/>
      <point x="1029" y="1690" type="curve" smooth="yes"/>
      <point x="1195" y="1690"/>
      <point x="1298" y="1588"/>
      <point x="1270" y="1418" type="curve" smooth="yes"/>
      <point x="1245" y="1266"/>
      <point x="1132" y="1162"/>
      <point x="938" y="1010" type="curve" smooth="yes"/>
      <point x="82" y="356" type="line"/>
    </contour>
  </outline>
</glyph>
<glyph name="three" format="2">
  <advance width="1878"/>
  <unicode hex="0033"/>
  <outline>
    <contour>
      <point x="822" y="-28" type="curve" smooth="yes"/>
      <point x="1290" y="-28"/>
      <point x="1661" y="217"/>
      <point x="1716" y="556" type="curve" smooth="yes"/>
      <point x="1759" y="817"/>
      <point x="1594" y="1015"/>
      <point x="1311" y="1051" type="curve"/>
      <point x="1311" y="1066" type="line"/>
      <point x="1567" y="1098"/>
      <point x="1751" y="1226"/>
      <point x="1790" y="1464" type="curve" smooth="yes"/>
      <point x="1844" y="1792"/>
      <point x="1585" y="2076"/>
      <point x="1134" y="2076" type="curve" smooth="yes"/>
      <point x="706" y="2076"/>
      <point x="346" y="1820"/>
      <point x="284" y="1456" type="curve"/>
      <point x="754" y="1456" type="line"/>
      <point x="776" y="1596"/>
      <point x="943" y="1690"/>
      <point x="1110" y="1690" type="curve" smooth="yes"/>
      <point x="1267" y="1690"/>
      <point x="1339" y="1608"/>
      <point x="1318" y="1484" type="curve" smooth="yes"/>
      <point x="1292" y="1328"/>
      <point x="1141" y="1218"/>
      <point x="956" y="1218" type="curve" smooth="yes"/>
      <point x="768" y="1218" type="line"/>
      <point x="710" y="866" type="line"/>
      <point x="919" y="866" type="line" smooth="yes"/>
      <point x="1117" y="866"/>
      <point x="1237" y="790"/>
      <point x="1214" y="646" type="curve" smooth="yes"/>
      <point x="1190" y="499"/>
      <point x="1038" y="374"/>
      <point x="849" y="374" type="curve" smooth="yes"/>
      <point x="684" y="374"/>
      <point x="573" y="467"/>
      <point x="595" y="602" type="curve"/>
      <point x="104" y="602" type="line"/>
      <point x="43" y="231"/>
      <point x="341" y="-28"/>
    </contour>
  </outline>
</glyph>
<glyph name="four" format="2">
  <advance width="1942"/>
  <unicode hex="0034"/>
  <outline>
    <contour>
      <point x="54" y="340" type="line"/>
      <point x="1761" y="340" type="line"/>
      <point x="1826" y="730" type="line"/>
      <point x="610" y="730" type="line"/>
      <point x="614" y="746" type="line"/>
      <point x="1234" y="1524" type="line"/>
      <point x="1433" y="1524" type="line"/>
      <point x="1520" y="2048" type="line"/>
      <point x="1177" y="2048" type="line"/>
      <point x="118" y="726" type="line"/>
    </contour>
    <contour>
      <point x="987" y="0" type="line"/>
      <point x="1460" y="0" type="line"/>
      <point x="1800" y="2048" type="line"/>
      <point x="1337" y="2048" type="line"/>
      <point x="1102" y="627" type="line"/>
      <point x="1064" y="458" type="line"/>
    </contour>
  </outline>
</glyph>
<glyph name="five" format="2">
  <advance width="1850"/>
  <unicode hex="0035"/>
  <outline>
    <contour>
      <point x="803" y="-28" type="curve" smooth="yes"/>
      <point x="1282" y="-28"/>
      <point x="1650" y="273"/>
      <point x="1716" y="694" type="curve" smooth="yes"/>
      <point x="1782" y="1083"/>
      <point x="1557" y="1362"/>
      <point x="1190" y="1362" type="curve" smooth="yes"/>
      <point x="996" y="1362"/>
      <point x="821" y="1279"/>
      <point x="734" y="1166" type="curve"/>
      <point x="722" y="1166" type="line"/>
      <point x="849" y="1649" type="line"/>
      <point x="1756" y="1649" type="line"/>
      <point x="1821" y="2048" type="line"/>
      <point x="507" y="2048" type="line"/>
      <point x="234" y="944" type="line"/>
      <point x="658" y="862" type="line"/>
      <point x="729" y="954"/>
      <point x="852" y="1010"/>
      <point x="972" y="1010" type="curve" smooth="yes"/>
      <point x="1160" y="1010"/>
      <point x="1271" y="878"/>
      <point x="1239" y="680" type="curve" smooth="yes"/>
      <point x="1206" y="483"/>
      <point x="1054" y="352"/>
      <point x="865" y="352" type="curve" smooth="yes"/>
      <point x="706" y="352"/>
      <point x="593" y="453"/>
      <point x="610" y="602" type="curve"/>
      <point x="130" y="602" type="line"/>
      <point x="76" y="235"/>
      <point x="356" y="-28"/>
    </contour>
  </outline>
</glyph>
<glyph name="six" format="2">
  <advance width="1894"/>
  <unicode hex="0036"/>
  <outline>
    <contour>
      <point x="862" y="-28" type="curve" smooth="yes"/>
      <point x="1320" y="-29"/>
      <point x="1679" y="253"/>
      <point x="1748" y="670" type="curve" smooth="yes"/>
      <point x="1814" y="1061"/>
      <point x="1594" y="1350"/>
      <point x="1217" y="1350" type="curve" smooth="yes"/>
      <point x="995" y="1350"/>
      <point x="781" y="1250"/>
      <point x="665" y="1066" type="curve"/>
      <point x="649" y="1041" type="line"/>
      <point x="716" y="1418"/>
      <point x="892" y="1662"/>
      <point x="1149" y="1662" type="curve" smooth="yes"/>
      <point x="1280" y="1662"/>
      <point x="1373" y="1599"/>
      <point x="1374" y="1459" type="curve"/>
      <point x="1854" y="1459" type="line"/>
      <point x="1872" y="1812"/>
      <point x="1612" y="2083"/>
      <point x="1179" y="2083" type="curve" smooth="yes"/>
      <point x="667" y="2083"/>
      <point x="273" y="1686"/>
      <point x="161" y="1014" type="curve" smooth="yes"/>
      <point x="34" y="257"/>
      <point x="402" y="-27"/>
    </contour>
    <contour>
      <point x="880" y="352" type="curve" smooth="yes"/>
      <point x="707" y="352"/>
      <point x="607" y="476"/>
      <point x="633" y="653" type="curve" smooth="yes"/>
      <point x="664" y="851"/>
      <point x="838" y="1005"/>
      <point x="1030" y="1005" type="curve" smooth="yes"/>
      <point x="1204" y="1005"/>
      <point x="1302" y="878"/>
      <point x="1275" y="705" type="curve" smooth="yes"/>
      <point x="1247" y="504"/>
      <point x="1074" y="352"/>
    </contour>
  </outline>
</glyph>
<glyph name="seven" format="2">
  <advance width="1698"/>
  <unicode hex="0037"/>
  <outline>
    <contour>
      <point x="110" y="0" type="line"/>
      <point x="619" y="0" type="line"/>
      <point x="1722" y="1646" type="line"/>
      <point x="1788" y="2048" type="line"/>
      <point x="310" y="2048" type="line"/>
      <point x="245" y="1649" type="line"/>
      <point x="1211" y="1649" type="line"/>
      <point x="1207" y="1636" type="line"/>
    </contour>
  </outline>
</glyph>
<glyph name="eight" format="2">
  <advance width="1899"/>
  <unicode hex="0038"/>
  <note>
essentially two conjoined "three" glyphs
</note>
  <outline>
    <contour>
      <point x="819" y="-28" type="curve" smooth="yes"/>
      <point x="1297" y="-28"/>
      <point x="1683" y="221"/>
      <point x="1738" y="550" type="curve" smooth="yes"/>
      <point x="1783" y="807"/>
      <point x="1611" y="1014"/>
      <point x="1362" y="1054" type="curve"/>
      <point x="1362" y="1069" type="line"/>
      <point x="1594" y="1110"/>
      <point x="1786" y="1290"/>
      <point x="1823" y="1519" type="curve" smooth="yes"/>
      <point x="1875" y="1838"/>
      <point x="1595" y="2076"/>
      <point x="1161" y="2076" type="curve" smooth="yes"/>
      <point x="729" y="2076"/>
      <point x="375" y="1844"/>
      <point x="322" y="1526" type="curve" smooth="yes"/>
      <point x="284" y="1299"/>
      <point x="412" y="1111"/>
      <point x="627" y="1069" type="curve"/>
      <point x="627" y="1054" type="line"/>
      <point x="366" y="1014"/>
      <point x="128" y="808"/>
      <point x="85" y="557" type="curve" smooth="yes"/>
      <point x="28" y="224"/>
      <point x="339" y="-28"/>
    </contour>
    <contour>
      <point x="872" y="323" type="curve" smooth="yes"/>
      <point x="694" y="323"/>
      <point x="584" y="434"/>
      <point x="610" y="591" type="curve" smooth="yes"/>
      <point x="637" y="752"/>
      <point x="786" y="869"/>
      <point x="966" y="869" type="curve" smooth="yes"/>
      <point x="1143" y="869"/>
      <point x="1254" y="758"/>
      <point x="1227" y="598" type="curve" smooth="yes"/>
      <point x="1201" y="439"/>
      <point x="1055" y="323"/>
    </contour>
    <contour>
      <point x="1019" y="1218" type="curve" smooth="yes"/>
      <point x="865" y="1218"/>
      <point x="769" y="1320"/>
      <point x="794" y="1465" type="curve" smooth="yes"/>
      <point x="818" y="1610"/>
      <point x="950" y="1713"/>
      <point x="1109" y="1713" type="curve" smooth="yes"/>
      <point x="1264" y="1713"/>
      <point x="1356" y="1616"/>
      <point x="1331" y="1471" type="curve" smooth="yes"/>
      <point x="1306" y="1326"/>
      <point x="1178" y="1218"/>
    </contour>
  </outline>
</glyph>
<glyph name="nine" format="2">
  <advance width="1894"/>
  <unicode hex="0039"/>
  <note>
six mirrored
</note>
  <outline>
    <contour>
      <point x="1119" y="2083" type="curve" smooth="yes"/>
      <point x="662" y="2084"/>
      <point x="303" y="1802"/>
      <point x="234" y="1386" type="curve" smooth="yes"/>
      <point x="168" y="994"/>
      <point x="388" y="706"/>
      <point x="765" y="706" type="curve" smooth="yes"/>
      <point x="988" y="706"/>
      <point x="1202" y="805"/>
      <point x="1317" y="989" type="curve"/>
      <point x="1333" y="1014" type="line"/>
      <point x="1266" y="638"/>
      <point x="1090" y="394"/>
      <point x="833" y="394" type="curve" smooth="yes"/>
      <point x="702" y="394"/>
      <point x="608" y="455"/>
      <point x="607" y="596" type="curve"/>
      <point x="128" y="596" type="line"/>
      <point x="110" y="243"/>
      <point x="369" y="-28"/>
      <point x="802" y="-28" type="curve" smooth="yes"/>
      <point x="1315" y="-28"/>
      <point x="1710" y="369"/>
      <point x="1821" y="1041" type="curve" smooth="yes"/>
      <point x="1948" y="1798"/>
      <point x="1581" y="2082"/>
    </contour>
    <contour>
      <point x="1102" y="1703" type="curve" smooth="yes"/>
      <point x="1276" y="1703"/>
      <point x="1375" y="1578"/>
      <point x="1349" y="1402" type="curve" smooth="yes"/>
      <point x="1318" y="1205"/>
      <point x="1144" y="1050"/>
      <point x="952" y="1050" type="curve" smooth="yes"/>
      <point x="778" y="1050"/>
      <point x="678" y="1177"/>
      <point x="706" y="1350" type="curve" smooth="yes"/>
      <point x="734" y="1551"/>
      <point x="909" y="1703"/>
    </contour>
  </outline>
</glyph>
<glyph name="less" format="2">
  <advance width="1933"/>
  <unicode hex="003C"/>
  <note>
Recipe: Make rect and rotate 63deg (regular) or 69deg (black)
</note>
  <guideline x="434" y="1152" angle="0.0"/>
  <outline>
    <contour>
      <point x="218" y="618" type="line"/>
      <point x="1564" y="10" type="line"/>
      <point x="1640" y="464" type="line"/>
      <point x="741" y="822" type="line"/>
      <point x="752" y="799" type="line"/>
      <point x="763" y="852" type="line"/>
      <point x="745" y="830" type="line"/>
      <point x="1759" y="1187" type="line"/>
      <point x="1834" y="1642" type="line"/>
      <point x="288" y="1034" type="line"/>
    </contour>
  </outline>
</glyph>
<glyph name="equal" format="2">
  <advance width="1933"/>
  <unicode hex="003D"/>
  <outline>
    <contour>
      <point x="284" y="969" type="line"/>
      <point x="1714" y="969" type="line"/>
      <point x="1782" y="1370" type="line"/>
      <point x="352" y="1370" type="line"/>
    </contour>
    <contour>
      <point x="172" y="281" type="line"/>
      <point x="1602" y="281" type="line"/>
      <point x="1667" y="682" type="line"/>
      <point x="236" y="682" type="line"/>
    </contour>
  </outline>
</glyph>
<glyph name="greater" format="2">
  <advance width="1933"/>
  <unicode hex="003E"/>
  <outline>
    <contour>
      <point x="1676" y="618" type="line"/>
      <point x="1746" y="1034" type="line"/>
      <point x="396" y="1642" type="line"/>
      <point x="321" y="1187" type="line"/>
      <point x="1219" y="830" type="line"/>
      <point x="1208" y="852" type="line"/>
      <point x="1198" y="799" type="line"/>
      <point x="1215" y="822" type="line"/>
      <point x="202" y="464" type="line"/>
      <point x="126" y="10" type="line"/>
    </contour>
  </outline>
</glyph>
<glyph name="question" format="2">
  <advance width="1636"/>
  <unicode hex="003F"/>
  <outline>
    <contour>
      <point x="518" y="627" type="line"/>
      <point x="943" y="627" type="line"/>
      <point x="950" y="670" type="line" smooth="yes"/>
      <point x="981" y="846"/>
      <point x="1069" y="932"/>
      <point x="1235" y="1021" type="curve" smooth="yes"/>
      <point x="1445" y="1131"/>
      <point x="1594" y="1278"/>
      <point x="1634" y="1517" type="curve" smooth="yes"/>
      <point x="1694" y="1880"/>
      <point x="1426" y="2076"/>
      <point x="1017" y="2076" type="curve" smooth="yes"/>
      <point x="638" y="2076"/>
      <point x="299" y="1889"/>
      <point x="224" y="1469" type="curve"/>
      <point x="684" y="1469" type="line"/>
      <point x="707" y="1609"/>
      <point x="830" y="1692"/>
      <point x="950" y="1692" type="curve" smooth="yes"/>
      <point x="1067" y="1692"/>
      <point x="1147" y="1613"/>
      <point x="1128" y="1494" type="curve" smooth="yes"/>
      <point x="1109" y="1372"/>
      <point x="998" y="1295"/>
      <point x="861" y="1214" type="curve" smooth="yes"/>
      <point x="688" y="1112"/>
      <point x="582" y="1007"/>
      <point x="525" y="670" type="curve" smooth="yes"/>
    </contour>
    <component base="period" xOffset="328"/>
  </outline>
</glyph>
<glyph name="at" format="2">
  <advance width="2991"/>
  <unicode hex="0040"/>
  <outline>
    <contour>
      <point x="1321" y="-607" type="curve" smooth="yes"/>
      <point x="1632" y="-607"/>
      <point x="1929" y="-538"/>
      <point x="2070" y="-460" type="curve"/>
      <point x="2010" y="-135" type="line"/>
      <point x="1881" y="-185"/>
      <point x="1646" y="-236"/>
      <point x="1412" y="-236" type="curve" smooth="yes"/>
      <point x="771" y="-236"/>
      <point x="474" y="97"/>
      <point x="575" y="713" type="curve" smooth="yes"/>
      <point x="666" y="1253"/>
      <point x="1048" y="1694"/>
      <point x="1726" y="1694" type="curve" smooth="yes"/>
      <point x="2155" y="1694"/>
      <point x="2626" y="1538"/>
      <point x="2510" y="850" type="curve" smooth="yes"/>
      <point x="2452" y="480"/>
      <point x="2343" y="311"/>
      <point x="2227" y="311" type="curve" smooth="yes"/>
      <point x="2176" y="311"/>
      <point x="2147" y="347"/>
      <point x="2158" y="434" type="curve" smooth="yes"/>
      <point x="2323" y="1434" type="line"/>
      <point x="1977" y="1434" type="line"/>
      <point x="1960" y="1322" type="line"/>
      <point x="1945" y="1322" type="line"/>
      <point x="1922" y="1410"/>
      <point x="1707" y="1495"/>
      <point x="1466" y="1456" type="curve" smooth="yes"/>
      <point x="1202" y="1414"/>
      <point x="861" y="1205"/>
      <point x="777" y="707" type="curve" smooth="yes"/>
      <point x="695" y="206"/>
      <point x="958" y="-19"/>
      <point x="1259" y="-38" type="curve" smooth="yes"/>
      <point x="1482" y="-52"/>
      <point x="1731" y="38"/>
      <point x="1797" y="160" type="curve"/>
      <point x="1809" y="160" type="line"/>
      <point x="1810" y="33"/>
      <point x="1842" y="-72"/>
      <point x="2108" y="-50" type="curve" smooth="yes"/>
      <point x="2550" y="-18"/>
      <point x="2806" y="294"/>
      <point x="2891" y="820" type="curve" smooth="yes"/>
      <point x="3019" y="1586"/>
      <point x="2599" y="2062"/>
      <point x="1789" y="2062" type="curve" smooth="yes"/>
      <point x="900" y="2062"/>
      <point x="306" y="1507"/>
      <point x="170" y="695" type="curve" smooth="yes"/>
      <point x="36" y="-126"/>
      <point x="458" y="-607"/>
    </contour>
    <contour>
      <point x="1455" y="333" type="curve" smooth="yes"/>
      <point x="1194" y="333"/>
      <point x="1138" y="521"/>
      <point x="1170" y="719" type="curve" smooth="yes"/>
      <point x="1209" y="945"/>
      <point x="1354" y="1078"/>
      <point x="1574" y="1078" type="curve" smooth="yes"/>
      <point x="1831" y="1078"/>
      <point x="1863" y="930"/>
      <point x="1831" y="722" type="curve" smooth="yes"/>
      <point x="1793" y="470"/>
      <point x="1693" y="333"/>
    </contour>
  </outline>
</glyph>
<glyph name="A" format="2">
  <advance width="2173"/>
  <unicode hex="0041"/>
  <outline>
    <contour>
      <point x="470" y="0" type="line"/>
      <point x="1206" y="1532" type="line"/>
      <point x="1222" y="1532" type="line"/>
      <point x="1447" y="0" type="line"/>
      <point x="1979" y="0" type="line"/>
      <point x="1628" y="2048" type="line"/>
      <point x="969" y="2048" type="line"/>
      <point x="-62" y="0" type="line"/>
    </contour>
    <contour>
      <point x="534" y="806" type="line"/>
      <point x="470" y="430" type="line"/>
      <point x="1582" y="430" type="line"/>
      <point x="1646" y="806" type="line"/>
    </contour>
  </outline>
</glyph>
<glyph name="B" format="2">
  <advance width="1870"/>
  <unicode hex="0042"/>
  <outline>
    <contour>
      <point x="27" y="0" type="line"/>
      <point x="946" y="0" type="line" smooth="yes"/>
      <point x="1398" y="0"/>
      <point x="1699" y="242"/>
      <point x="1754" y="573" type="curve" smooth="yes"/>
      <point x="1803" y="868"/>
      <point x="1620" y="1057"/>
      <point x="1372" y="1066" type="curve"/>
      <point x="1376" y="1086" type="line"/>
      <point x="1607" y="1134"/>
      <point x="1793" y="1298"/>
      <point x="1834" y="1530" type="curve" smooth="yes"/>
      <point x="1886" y="1839"/>
      <point x="1681" y="2048"/>
      <point x="1221" y="2048" type="curve" smooth="yes"/>
      <point x="367" y="2048" type="line"/>
    </contour>
    <contour>
      <point x="590" y="399" type="line"/>
      <point x="668" y="887" type="line"/>
      <point x="983" y="887" type="line" smooth="yes"/>
      <point x="1174" y="887"/>
      <point x="1272" y="787"/>
      <point x="1246" y="630" type="curve" smooth="yes"/>
      <point x="1224" y="486"/>
      <point x="1108" y="399"/>
      <point x="896" y="399" type="curve" smooth="yes"/>
    </contour>
    <contour>
      <point x="723" y="1206" type="line"/>
      <point x="797" y="1655" type="line"/>
      <point x="1079" y="1655" type="line" smooth="yes"/>
      <point x="1242" y="1655"/>
      <point x="1335" y="1572"/>
      <point x="1313" y="1434" type="curve" smooth="yes"/>
      <point x="1290" y="1291"/>
      <point x="1158" y="1206"/>
      <point x="998" y="1206" type="curve" smooth="yes"/>
    </contour>
  </outline>
</glyph>
<glyph name="C" format="2">
  <advance width="2141"/>
  <unicode hex="0043"/>
  <outline>
    <contour>
      <point x="2101" y="1306" type="line"/>
      <point x="2130" y="1796"/>
      <point x="1805" y="2076"/>
      <point x="1294" y="2076" type="curve" smooth="yes"/>
      <point x="763" y="2076"/>
      <point x="292" y="1718"/>
      <point x="182" y="1053" type="curve" smooth="yes"/>
      <point x="70" y="365"/>
      <point x="431" y="-28"/>
      <point x="999" y="-28" type="curve" smooth="yes"/>
      <point x="1550" y="-28"/>
      <point x="1908" y="358"/>
      <point x="2006" y="720" type="curve"/>
      <point x="1508" y="720" type="line"/>
      <point x="1441" y="526"/>
      <point x="1261" y="406"/>
      <point x="1026" y="406" type="curve" smooth="yes"/>
      <point x="751" y="406"/>
      <point x="614" y="602"/>
      <point x="677" y="995" type="curve" smooth="yes"/>
      <point x="745" y="1401"/>
      <point x="978" y="1642"/>
      <point x="1288" y="1642" type="curve" smooth="yes"/>
      <point x="1503" y="1642"/>
      <point x="1617" y="1513"/>
      <point x="1607" y="1306" type="curve"/>
    </contour>
  </outline>
</glyph>
<glyph name="D" format="2">
  <advance width="2056"/>
  <unicode hex="0044"/>
  <note>
!post:RemoveOverlap
</note>
  <outline>
    <contour>
      <point x="795" y="0" type="line" smooth="yes"/>
      <point x="1419" y="0"/>
      <point x="1856" y="370"/>
      <point x="1960" y="999" type="curve" smooth="yes"/>
      <point x="2068" y="1650"/>
      <point x="1737" y="2048"/>
      <point x="1112" y="2048" type="curve" smooth="yes"/>
      <point x="569" y="2048" type="line"/>
      <point x="498" y="1626" type="line"/>
      <point x="1038" y="1626" type="line" smooth="yes"/>
      <point x="1390" y="1626"/>
      <point x="1546" y="1481"/>
      <point x="1474" y="1050" type="curve" smooth="yes"/>
      <point x="1400" y="597"/>
      <point x="1170" y="422"/>
      <point x="826" y="422" type="curve" smooth="yes"/>
      <point x="309" y="422" type="line"/>
      <point x="238" y="0" type="line"/>
    </contour>
    <contour>
      <point x="862" y="2048" type="line"/>
      <point x="367" y="2048" type="line"/>
      <point x="27" y="0" type="line"/>
      <point x="522" y="0" type="line"/>
    </contour>
  </outline>
</glyph>
<glyph name="E" format="2">
  <advance width="1738"/>
  <unicode hex="0045"/>
  <outline>
    <contour>
      <point x="27" y="0" type="line"/>
      <point x="1455" y="0" type="line"/>
      <point x="1523" y="402" type="line"/>
      <point x="590" y="402" type="line"/>
      <point x="658" y="823" type="line"/>
      <point x="1518" y="823" type="line"/>
      <point x="1586" y="1226" type="line"/>
      <point x="726" y="1226" type="line"/>
      <point x="794" y="1646" type="line"/>
      <point x="1727" y="1646" type="line"/>
      <point x="1795" y="2048" type="line"/>
      <point x="367" y="2048" type="line"/>
    </contour>
  </outline>
</glyph>
<glyph name="F" format="2">
  <advance width="1646"/>
  <unicode hex="0046"/>
  <outline>
    <contour>
      <point x="27" y="0" type="line"/>
      <point x="522" y="0" type="line"/>
      <point x="658" y="823" type="line"/>
      <point x="1472" y="823" type="line"/>
      <point x="1540" y="1226" type="line"/>
      <point x="726" y="1226" type="line"/>
      <point x="794" y="1646" type="line"/>
      <point x="1697" y="1646" type="line"/>
      <point x="1765" y="2048" type="line"/>
      <point x="367" y="2048" type="line"/>
    </contour>
  </outline>
</glyph>
<glyph name="G" format="2">
  <advance width="2159"/>
  <unicode hex="0047"/>
  <outline>
    <contour>
      <point x="1600" y="1379" type="curve"/>
      <point x="2101" y="1379" type="line"/>
      <point x="2120" y="1787"/>
      <point x="1802" y="2076"/>
      <point x="1330" y="2076" type="curve" smooth="yes"/>
      <point x="782" y="2076"/>
      <point x="286" y="1691"/>
      <point x="175" y="1021" type="curve" smooth="yes"/>
      <point x="68" y="373"/>
      <point x="400" y="-28"/>
      <point x="986" y="-28" type="curve" smooth="yes"/>
      <point x="1514" y="-28"/>
      <point x="1945" y="299"/>
      <point x="2035" y="849" type="curve" smooth="yes"/>
      <point x="2080" y="1120" type="line"/>
      <point x="1198" y="1120" type="line"/>
      <point x="1138" y="759" type="line"/>
      <point x="1636" y="759" type="line"/>
      <point x="1545" y="770" type="line"/>
      <point x="1510" y="548"/>
      <point x="1324" y="406"/>
      <point x="1050" y="406" type="curve" smooth="yes"/>
      <point x="744" y="406"/>
      <point x="617" y="633"/>
      <point x="682" y="1027" type="curve" smooth="yes"/>
      <point x="746" y="1418"/>
      <point x="990" y="1642"/>
      <point x="1288" y="1642" type="curve" smooth="yes"/>
      <point x="1486" y="1642"/>
      <point x="1584" y="1545"/>
    </contour>
  </outline>
</glyph>
<glyph name="H" format="2">
  <advance width="2106"/>
  <unicode hex="0048"/>
  <outline>
    <contour>
      <point x="27" y="0" type="line"/>
      <point x="522" y="0" type="line"/>
      <point x="658" y="823" type="line"/>
      <point x="1465" y="823" type="line"/>
      <point x="1329" y="0" type="line"/>
      <point x="1823" y="0" type="line"/>
      <point x="2163" y="2048" type="line"/>
      <point x="1669" y="2048" type="line"/>
      <point x="1533" y="1226" type="line"/>
      <point x="726" y="1226" type="line"/>
      <point x="862" y="2048" type="line"/>
      <point x="367" y="2048" type="line"/>
    </contour>
  </outline>
</glyph>
<glyph name="J" format="2">
  <advance width="1630"/>
  <unicode hex="004A"/>
  <outline>
    <contour>
      <point x="1199" y="2048" type="line"/>
      <point x="966" y="634" type="line" smooth="yes"/>
      <point x="934" y="458"/>
      <point x="839" y="362"/>
      <point x="696" y="362" type="curve" smooth="yes"/>
      <point x="559" y="362"/>
      <point x="494" y="447"/>
      <point x="515" y="608" type="curve"/>
      <point x="23" y="608" type="line"/>
      <point x="-51" y="168"/>
      <point x="226" y="-28"/>
      <point x="609" y="-28" type="curve" smooth="yes"/>
      <point x="1046" y="-28"/>
      <point x="1386" y="232"/>
      <point x="1453" y="630" type="curve" smooth="yes"/>
      <point x="1687" y="2048" type="line"/>
    </contour>
  </outline>
</glyph>
<glyph name="K" format="2">
  <advance width="1977"/>
  <unicode hex="004B"/>
  <outline>
    <contour>
      <point x="27" y="0" type="line"/>
      <point x="522" y="0" type="line"/>
      <point x="614" y="552" type="line"/>
      <point x="858" y="805" type="line"/>
      <point x="1230" y="0" type="line"/>
      <point x="1822" y="0" type="line"/>
      <point x="1274" y="1134" type="line"/>
      <point x="2149" y="2048" type="line"/>
      <point x="1566" y="2048" type="line"/>
      <point x="746" y="1182" type="line"/>
      <point x="719" y="1182" type="line"/>
      <point x="862" y="2048" type="line"/>
      <point x="367" y="2048" type="line"/>
    </contour>
  </outline>
</glyph>
<glyph name="L" format="2">
  <advance width="1603"/>
  <unicode hex="004C"/>
  <outline>
    <contour>
      <point x="27" y="0" type="line"/>
      <point x="1374" y="0" type="line"/>
      <point x="1442" y="402" type="line"/>
      <point x="590" y="402" type="line"/>
      <point x="862" y="2048" type="line"/>
      <point x="367" y="2048" type="line"/>
    </contour>
  </outline>
</glyph>
<glyph name="M" format="2">
  <advance width="2600"/>
  <unicode hex="004D"/>
  <outline>
    <contour>
      <point x="367" y="2048" type="line"/>
      <point x="27" y="0" type="line"/>
      <point x="509" y="0" type="line"/>
      <point x="721" y="1265" type="line"/>
      <point x="738" y="1265" type="line"/>
      <point x="1022" y="13" type="line"/>
      <point x="1329" y="13" type="line"/>
      <point x="2027" y="1258" type="line"/>
      <point x="2044" y="1258" type="line"/>
      <point x="1835" y="0" type="line"/>
      <point x="2317" y="0" type="line"/>
      <point x="2657" y="2048" type="line"/>
      <point x="2044" y="2048" type="line"/>
      <point x="1314" y="780" type="line"/>
      <point x="1290" y="780" type="line"/>
      <point x="980" y="2048" type="line"/>
    </contour>
  </outline>
</glyph>
<glyph name="N" format="2">
  <advance width="2053"/>
  <unicode hex="004E"/>
  <outline>
    <contour>
      <point x="2110" y="2048" type="line"/>
      <point x="1616" y="2048" type="line"/>
      <point x="1422" y="868" type="line"/>
      <point x="1405" y="868" type="line"/>
      <point x="793" y="2048" type="line"/>
      <point x="367" y="2048" type="line"/>
      <point x="27" y="0" type="line"/>
      <point x="522" y="0" type="line"/>
      <point x="719" y="1182" type="line"/>
      <point x="733" y="1182" type="line"/>
      <point x="1350" y="0" type="line"/>
      <point x="1770" y="0" type="line"/>
    </contour>
  </outline>
</glyph>
<glyph name="O" format="2">
  <advance width="2221"/>
  <unicode hex="004F"/>
  <outline>
    <contour>
      <point x="2125" y="992" type="curve" smooth="yes"/>
      <point x="2239" y="1683"/>
      <point x="1865" y="2076"/>
      <point x="1302" y="2076" type="curve" smooth="yes"/>
      <point x="762" y="2076"/>
      <point x="288" y="1712"/>
      <point x="180" y="1050" type="curve" smooth="yes"/>
      <point x="66" y="362"/>
      <point x="440" y="-28"/>
      <point x="1007" y="-28" type="curve" smooth="yes"/>
      <point x="1542" y="-28"/>
      <point x="2014" y="330"/>
    </contour>
    <contour>
      <point x="1630" y="1050" type="curve" smooth="yes"/>
      <point x="1561" y="638"/>
      <point x="1334" y="406"/>
      <point x="1025" y="406" type="curve" smooth="yes"/>
      <point x="747" y="406"/>
      <point x="606" y="602"/>
      <point x="675" y="992" type="curve" smooth="yes"/>
      <point x="741" y="1404"/>
      <point x="970" y="1642"/>
      <point x="1283" y="1642" type="curve" smooth="yes"/>
      <point x="1564" y="1642"/>
      <point x="1692" y="1436"/>
    </contour>
  </outline>
</glyph>
<glyph name="P" format="2">
  <advance width="1835"/>
  <unicode hex="0050"/>
  <outline>
    <contour>
      <point x="27" y="0" type="line"/>
      <point x="522" y="0" type="line"/>
      <point x="797" y="1649" type="line"/>
      <point x="1041" y="1649" type="line" smooth="yes"/>
      <point x="1264" y="1649"/>
      <point x="1360" y="1530"/>
      <point x="1330" y="1339" type="curve" smooth="yes"/>
      <point x="1299" y="1150"/>
      <point x="1162" y="1026"/>
      <point x="936" y="1026" type="curve" smooth="yes"/>
      <point x="506" y="1026" type="line"/>
      <point x="441" y="636" type="line"/>
      <point x="962" y="636" type="line" smooth="yes"/>
      <point x="1435" y="636"/>
      <point x="1773" y="912"/>
      <point x="1842" y="1339" type="curve" smooth="yes"/>
      <point x="1912" y="1761"/>
      <point x="1674" y="2048"/>
      <point x="1213" y="2048" type="curve" smooth="yes"/>
      <point x="367" y="2048" type="line"/>
    </contour>
  </outline>
</glyph>
<glyph name="Q" format="2">
  <advance width="2229"/>
  <unicode hex="0051"/>
  <outline>
    <contour>
      <point x="927" y="736" type="line"/>
      <point x="1179" y="331" type="line"/>
      <point x="1293" y="127" type="line"/>
      <point x="1494" y="-160" type="line"/>
      <point x="1942" y="-160" type="line"/>
      <point x="1654" y="263" type="line"/>
      <point x="1472" y="519" type="line"/>
      <point x="1327" y="736" type="line"/>
    </contour>
    <component base="O"/>
  </outline>
</glyph>
<glyph name="R" format="2">
  <advance width="1886"/>
  <unicode hex="0052"/>
  <outline>
    <contour>
      <point x="27" y="0" type="line"/>
      <point x="522" y="0" type="line"/>
      <point x="797" y="1649" type="line"/>
      <point x="1041" y="1649" type="line" smooth="yes"/>
      <point x="1261" y="1649"/>
      <point x="1364" y="1556"/>
      <point x="1334" y="1366" type="curve" smooth="yes"/>
      <point x="1303" y="1176"/>
      <point x="1170" y="1091"/>
      <point x="948" y="1091" type="curve" smooth="yes"/>
      <point x="505" y="1091" type="line"/>
      <point x="439" y="701" type="line"/>
      <point x="974" y="701" type="line" smooth="yes"/>
      <point x="1443" y="701"/>
      <point x="1777" y="942"/>
      <point x="1846" y="1366" type="curve" smooth="yes"/>
      <point x="1916" y="1787"/>
      <point x="1674" y="2048"/>
      <point x="1213" y="2048" type="curve" smooth="yes"/>
      <point x="367" y="2048" type="line"/>
    </contour>
    <contour>
      <point x="1335" y="936" type="line"/>
      <point x="806" y="936" type="line"/>
      <point x="1150" y="0" type="line"/>
      <point x="1690" y="0" type="line"/>
    </contour>
  </outline>
</glyph>
<glyph name="S" format="2">
  <advance width="1860"/>
  <unicode hex="0053"/>
  <note>
recipe: use stroke + offset curve filter with 32, no autostroke
</note>
  <outline>
    <contour>
      <point x="1370" y="1430" type="curve"/>
      <point x="1844" y="1430" type="line"/>
      <point x="1906" y="1818"/>
      <point x="1643" y="2076"/>
      <point x="1167" y="2076" type="curve" smooth="yes"/>
      <point x="698" y="2076"/>
      <point x="322" y="1822"/>
      <point x="259" y="1440" type="curve" smooth="yes"/>
      <point x="209" y="1129"/>
      <point x="397" y="955"/>
      <point x="736" y="873" type="curve" smooth="yes"/>
      <point x="941" y="823" type="line" smooth="yes"/>
      <point x="1158" y="773"/>
      <point x="1252" y="710"/>
      <point x="1232" y="595" type="curve" smooth="yes"/>
      <point x="1212" y="470"/>
      <point x="1081" y="383"/>
      <point x="880" y="383" type="curve" smooth="yes"/>
      <point x="662" y="383"/>
      <point x="532" y="485"/>
      <point x="555" y="682" type="curve"/>
      <point x="82" y="682" type="line"/>
      <point x="8" y="205"/>
      <point x="305" y="-26"/>
      <point x="818" y="-26" type="curve" smooth="yes"/>
      <point x="1329" y="-26"/>
      <point x="1669" y="205"/>
      <point x="1734" y="594" type="curve" smooth="yes"/>
      <point x="1789" y="921"/>
      <point x="1598" y="1122"/>
      <point x="1210" y="1210" type="curve" smooth="yes"/>
      <point x="1042" y="1250" type="line" smooth="yes"/>
      <point x="862" y="1290"/>
      <point x="752" y="1354"/>
      <point x="778" y="1474" type="curve" smooth="yes"/>
      <point x="798" y="1587"/>
      <point x="906" y="1667"/>
      <point x="1098" y="1667" type="curve" smooth="yes"/>
      <point x="1291" y="1667"/>
      <point x="1380" y="1580"/>
    </contour>
  </outline>
</glyph>
<glyph name="T" format="2">
  <advance width="1907"/>
  <unicode hex="0054"/>
  <outline>
    <contour>
      <point x="232" y="1646" type="line"/>
      <point x="854" y="1646" type="line"/>
      <point x="582" y="0" type="line"/>
      <point x="1070" y="0" type="line"/>
      <point x="1342" y="1646" type="line"/>
      <point x="1963" y="1646" type="line"/>
      <point x="2031" y="2048" type="line"/>
      <point x="300" y="2048" type="line"/>
    </contour>
  </outline>
</glyph>
<glyph name="U" format="2">
  <advance width="2043"/>
  <unicode hex="0055"/>
  <outline>
    <contour>
      <point x="1609" y="2048" type="line"/>
      <point x="1388" y="714" type="line" smooth="yes"/>
      <point x="1358" y="529"/>
      <point x="1185" y="410"/>
      <point x="961" y="410" type="curve" smooth="yes"/>
      <point x="739" y="410"/>
      <point x="611" y="529"/>
      <point x="641" y="714" type="curve" smooth="yes"/>
      <point x="862" y="2048" type="line"/>
      <point x="367" y="2048" type="line"/>
      <point x="143" y="695" type="line" smooth="yes"/>
      <point x="67" y="229"/>
      <point x="371" y="-26"/>
      <point x="890" y="-26" type="curve" smooth="yes"/>
      <point x="1404" y="-26"/>
      <point x="1800" y="229"/>
      <point x="1876" y="695" type="curve" smooth="yes"/>
      <point x="2100" y="2048" type="line"/>
    </contour>
  </outline>
</glyph>
<glyph name="V" format="2">
  <advance width="2173"/>
  <unicode hex="0056"/>
  <outline>
    <contour>
      <point x="832" y="2048" type="line"/>
      <point x="278" y="2048" type="line"/>
      <point x="629" y="0" type="line"/>
      <point x="1288" y="0" type="line"/>
      <point x="2319" y="2048" type="line"/>
      <point x="1765" y="2048" type="line"/>
      <point x="1058" y="548" type="line"/>
      <point x="1041" y="548" type="line"/>
    </contour>
  </outline>
</glyph>
<glyph name="W" format="2">
  <advance width="2998"/>
  <unicode hex="0057"/>
  <outline>
    <contour>
      <point x="518" y="0" type="line"/>
      <point x="994" y="0" type="line"/>
      <point x="1571" y="1242" type="line"/>
      <point x="1587" y="1242" type="line"/>
      <point x="1748" y="0" type="line"/>
      <point x="2225" y="0" type="line"/>
      <point x="3160" y="2048" type="line"/>
      <point x="2614" y="2048" type="line"/>
      <point x="2082" y="703" type="line"/>
      <point x="2066" y="703" type="line"/>
      <point x="1934" y="2048" type="line"/>
      <point x="1488" y="2048" type="line"/>
      <point x="914" y="706" type="line"/>
      <point x="897" y="706" type="line"/>
      <point x="809" y="2048" type="line"/>
      <point x="262" y="2048" type="line"/>
    </contour>
  </outline>
</glyph>
<glyph name="X" format="2">
  <advance width="2080"/>
  <unicode hex="0058"/>
  <note>
recipe: offset curve 32, no auto
</note>
  <outline>
    <contour>
      <point x="849" y="2048" type="line"/>
      <point x="310" y="2048" type="line"/>
      <point x="761" y="1024" type="line"/>
      <point x="-46" y="0" type="line"/>
      <point x="531" y="0" type="line"/>
      <point x="1023" y="654" type="line"/>
      <point x="1039" y="654" type="line"/>
      <point x="1315" y="0" type="line"/>
      <point x="1870" y="0" type="line"/>
      <point x="1404" y="1024" type="line"/>
      <point x="2190" y="2048" type="line"/>
      <point x="1617" y="2048" type="line"/>
      <point x="1131" y="1401" type="line"/>
      <point x="1115" y="1401" type="line"/>
    </contour>
  </outline>
</glyph>
<glyph name="Y" format="2">
  <advance width="2096"/>
  <unicode hex="0059"/>
  <outline>
    <contour>
      <point x="265" y="2048" type="line"/>
      <point x="789" y="684" type="line"/>
      <point x="674" y="0" type="line"/>
      <point x="1166" y="0" type="line"/>
      <point x="1280" y="684" type="line"/>
      <point x="2255" y="2048" type="line"/>
      <point x="1702" y="2048" type="line"/>
      <point x="1129" y="1191" type="line"/>
      <point x="1108" y="1191" type="line"/>
      <point x="818" y="2048" type="line"/>
    </contour>
  </outline>
</glyph>
<glyph name="Z" format="2">
  <advance width="1917"/>
  <unicode hex="005A"/>
  <outline>
    <contour>
      <point x="20" y="0" type="line"/>
      <point x="1640" y="0" type="line"/>
      <point x="1708" y="402" type="line"/>
      <point x="710" y="402" type="line"/>
      <point x="1934" y="1766" type="line"/>
      <point x="1981" y="2048" type="line"/>
      <point x="361" y="2048" type="line"/>
      <point x="293" y="1646" type="line"/>
      <point x="1290" y="1646" type="line"/>
      <point x="68" y="282" type="line"/>
    </contour>
  </outline>
</glyph>
<glyph name="bracketleft" format="2">
  <advance width="1196"/>
  <unicode hex="005B"/>
  <outline>
    <contour>
      <point x="82" y="-454" type="line"/>
      <point x="936" y="-454" type="line"/>
      <point x="997" y="-95" type="line"/>
      <point x="616" y="-95" type="line"/>
      <point x="912" y="1708" type="line"/>
      <point x="1293" y="1708" type="line"/>
      <point x="1354" y="2067" type="line"/>
      <point x="499" y="2067" type="line"/>
    </contour>
  </outline>
</glyph>
<glyph name="backslash" format="2">
  <advance width="1261"/>
  <unicode hex="005C"/>
  <outline>
    <contour>
      <point x="306" y="2048" type="line"/>
      <point x="568" y="-308" type="line"/>
      <point x="989" y="-308" type="line"/>
      <point x="727" y="2048" type="line"/>
    </contour>
  </outline>
</glyph>
<glyph name="asciicircum" format="2">
  <advance width="1390"/>
  <unicode hex="005E"/>
  <outline>
    <contour>
      <point x="848" y="1811" type="line"/>
      <point x="829" y="1698" type="line"/>
      <point x="901" y="1698" type="line"/>
      <point x="920" y="1811" type="line"/>
    </contour>
    <contour>
      <point x="146" y="1120" type="line"/>
      <point x="513" y="1120" type="line"/>
      <point x="878" y="1738" type="line"/>
      <point x="860" y="1738" type="line"/>
      <point x="1027" y="1120" type="line"/>
      <point x="1364" y="1120" type="line"/>
      <point x="1086" y="2010" type="line"/>
      <point x="718" y="2010" type="line"/>
    </contour>
  </outline>
</glyph>
<glyph name="underscore" format="2">
  <advance width="1365"/>
  <unicode hex="005F"/>
  <outline>
    <contour>
      <point x="1238" y="0" type="line"/>
      <point x="-129" y="0" type="line"/>
      <point x="-187" y="-358" type="line"/>
      <point x="1179" y="-358" type="line"/>
    </contour>
  </outline>
</glyph>
<glyph name="grave" format="2">
  <advance width="1400"/>
  <unicode hex="0060"/>
  <note>
mirrored version of acute
</note>
  <outline>
    <contour>
      <point x="845" y="1731" type="line"/>
      <point x="1178" y="1731" type="line"/>
      <point x="1049" y="2182" type="line"/>
      <point x="616" y="2182" type="line"/>
    </contour>
  </outline>
</glyph>
<glyph name="a" format="2">
  <advance width="1649"/>
  <unicode hex="0061"/>
  <outline>
    <contour>
      <point x="456" y="-26" type="curve" smooth="yes"/>
      <point x="670" y="-26"/>
      <point x="834" y="57"/>
      <point x="942" y="214" type="curve"/>
      <point x="954" y="214" type="line"/>
      <point x="918" y="0" type="line"/>
      <point x="1378" y="0" type="line"/>
      <point x="1553" y="1044" type="line" smooth="yes"/>
      <point x="1607" y="1369"/>
      <point x="1346" y="1556"/>
      <point x="958" y="1556" type="curve" smooth="yes"/>
      <point x="544" y="1556"/>
      <point x="274" y="1348"/>
      <point x="190" y="1068" type="curve"/>
      <point x="638" y="1052" type="line"/>
      <point x="674" y="1151"/>
      <point x="769" y="1210"/>
      <point x="897" y="1210" type="curve" smooth="yes"/>
      <point x="1017" y="1210"/>
      <point x="1081" y="1152"/>
      <point x="1065" y="1049" type="curve" smooth="yes"/>
      <point x="1065" y="1044" type="line" smooth="yes"/>
      <point x="1048" y="951"/>
      <point x="942" y="930"/>
      <point x="677" y="907" type="curve" smooth="yes"/>
      <point x="362" y="881"/>
      <point x="84" y="766"/>
      <point x="27" y="426" type="curve" smooth="yes"/>
      <point x="-24" y="123"/>
      <point x="164" y="-26"/>
    </contour>
    <contour>
      <point x="662" y="294" type="curve" smooth="yes"/>
      <point x="547" y="294"/>
      <point x="478" y="350"/>
      <point x="494" y="450" type="curve" smooth="yes"/>
      <point x="509" y="550"/>
      <point x="598" y="609"/>
      <point x="742" y="630" type="curve" smooth="yes"/>
      <point x="832" y="645"/>
      <point x="950" y="663"/>
      <point x="1008" y="692" type="curve"/>
      <point x="985" y="546" type="line" smooth="yes"/>
      <point x="959" y="396"/>
      <point x="817" y="294"/>
    </contour>
  </outline>
</glyph>
<glyph name="b" format="2">
  <advance width="1802"/>
  <unicode hex="0062"/>
  <note>
top anchor should match top anchor of i
</note>
  <outline>
    <contour>
      <point x="27" y="0" type="line"/>
      <point x="511" y="0" type="line"/>
      <point x="551" y="249" type="line"/>
      <point x="570" y="249" type="line"/>
      <point x="606" y="107"/>
      <point x="722" y="-22"/>
      <point x="954" y="-22" type="curve" smooth="yes"/>
      <point x="1294" y="-22"/>
      <point x="1614" y="244"/>
      <point x="1700" y="767" type="curve" smooth="yes"/>
      <point x="1790" y="1309"/>
      <point x="1542" y="1556"/>
      <point x="1221" y="1556" type="curve" smooth="yes"/>
      <point x="978" y="1556"/>
      <point x="819" y="1414"/>
      <point x="739" y="1273" type="curve"/>
      <point x="729" y="1273" type="line"/>
      <point x="856" y="2048" type="line"/>
      <point x="367" y="2048" type="line"/>
    </contour>
    <contour>
      <point x="634" y="768" type="curve" smooth="yes"/>
      <point x="674" y="1019"/>
      <point x="805" y="1174"/>
      <point x="984" y="1174" type="curve" smooth="yes"/>
      <point x="1166" y="1174"/>
      <point x="1238" y="1015"/>
      <point x="1198" y="768" type="curve" smooth="yes"/>
      <point x="1158" y="520"/>
      <point x="1030" y="359"/>
      <point x="850" y="359" type="curve" smooth="yes"/>
      <point x="671" y="359"/>
      <point x="594" y="519"/>
    </contour>
  </outline>
</glyph>
<glyph name="c" format="2">
  <advance width="1681"/>
  <unicode hex="0063"/>
  <outline>
    <contour>
      <point x="740" y="-29" type="curve" smooth="yes"/>
      <point x="1173" y="-29"/>
      <point x="1480" y="221"/>
      <point x="1558" y="602" type="curve"/>
      <point x="1102" y="602" type="line"/>
      <point x="1055" y="440"/>
      <point x="944" y="350"/>
      <point x="808" y="350" type="curve" smooth="yes"/>
      <point x="637" y="350"/>
      <point x="550" y="495"/>
      <point x="594" y="768" type="curve" smooth="yes"/>
      <point x="637" y="1039"/>
      <point x="775" y="1184"/>
      <point x="949" y="1184" type="curve" smooth="yes"/>
      <point x="1086" y="1184"/>
      <point x="1161" y="1088"/>
      <point x="1154" y="932" type="curve"/>
      <point x="1611" y="932" type="line"/>
      <point x="1664" y="1310"/>
      <point x="1429" y="1556"/>
      <point x="1003" y="1556" type="curve" smooth="yes"/>
      <point x="520" y="1556"/>
      <point x="172" y="1234"/>
      <point x="96" y="763" type="curve" smooth="yes"/>
      <point x="17" y="294"/>
      <point x="253" y="-29"/>
    </contour>
  </outline>
</glyph>
<glyph name="d" format="2">
  <advance width="1803"/>
  <unicode hex="0064"/>
  <outline>
    <contour>
      <point x="586" y="-22" type="curve" smooth="yes"/>
      <point x="817" y="-22"/>
      <point x="977" y="107"/>
      <point x="1062" y="249" type="curve"/>
      <point x="1078" y="249" type="line"/>
      <point x="1036" y="0" type="line"/>
      <point x="1520" y="0" type="line"/>
      <point x="1860" y="2048" type="line"/>
      <point x="1371" y="2048" type="line"/>
      <point x="1242" y="1273" type="line"/>
      <point x="1232" y="1273" type="line"/>
      <point x="1197" y="1414"/>
      <point x="1087" y="1556"/>
      <point x="844" y="1556" type="curve" smooth="yes"/>
      <point x="524" y="1556"/>
      <point x="193" y="1309"/>
      <point x="103" y="767" type="curve" smooth="yes"/>
      <point x="16" y="244"/>
      <point x="246" y="-22"/>
    </contour>
    <contour>
      <point x="817" y="359" type="curve" smooth="yes"/>
      <point x="636" y="359"/>
      <point x="563" y="520"/>
      <point x="605" y="768" type="curve" smooth="yes"/>
      <point x="645" y="1015"/>
      <point x="770" y="1174"/>
      <point x="952" y="1174" type="curve" smooth="yes"/>
      <point x="1131" y="1174"/>
      <point x="1211" y="1019"/>
      <point x="1170" y="768" type="curve" smooth="yes"/>
      <point x="1128" y="519"/>
      <point x="995" y="359"/>
    </contour>
  </outline>
</glyph>
<glyph name="e" format="2">
  <advance width="1698"/>
  <unicode hex="0065"/>
  <outline>
    <contour>
      <point x="741" y="-29" type="curve" smooth="yes"/>
      <point x="1146" y="-29"/>
      <point x="1439" y="166"/>
      <point x="1548" y="468" type="curve"/>
      <point x="1102" y="481" type="line"/>
      <point x="1046" y="378"/>
      <point x="936" y="324"/>
      <point x="809" y="324" type="curve" smooth="yes"/>
      <point x="618" y="324"/>
      <point x="526" y="437"/>
      <point x="557" y="632" type="curve" smooth="yes"/>
      <point x="610" y="923" type="line" smooth="yes"/>
      <point x="640" y="1080"/>
      <point x="783" y="1203"/>
      <point x="945" y="1203" type="curve" smooth="yes"/>
      <point x="1105" y="1203"/>
      <point x="1199" y="1091"/>
      <point x="1174" y="934" type="curve"/>
      <point x="294" y="934" type="line"/>
      <point x="249" y="650" type="line"/>
      <point x="1583" y="650" type="line"/>
      <point x="1602" y="772" type="line" smooth="yes"/>
      <point x="1686" y="1277"/>
      <point x="1426" y="1556"/>
      <point x="990" y="1556" type="curve" smooth="yes"/>
      <point x="527" y="1556"/>
      <point x="175" y="1238"/>
      <point x="96" y="762" type="curve" smooth="yes"/>
      <point x="13" y="271"/>
      <point x="259" y="-29"/>
    </contour>
  </outline>
</glyph>
<glyph name="f" format="2">
  <advance width="1110"/>
  <unicode hex="0066"/>
  <outline>
    <contour>
      <point x="1158" y="1536" type="line"/>
      <point x="170" y="1536" type="line"/>
      <point x="109" y="1176" type="line"/>
      <point x="1097" y="1176" type="line"/>
    </contour>
    <component base="_part.f_base" xOffset="-19"/>
  </outline>
</glyph>
<glyph name="g" format="2">
  <advance width="1806"/>
  <unicode hex="0067"/>
  <outline>
    <contour>
      <point x="647" y="-595" type="curve" smooth="yes"/>
      <point x="1108" y="-595"/>
      <point x="1460" y="-386"/>
      <point x="1522" y="-6" type="curve" smooth="yes"/>
      <point x="1778" y="1536" type="line"/>
      <point x="1291" y="1536" type="line"/>
      <point x="1248" y="1273" type="line"/>
      <point x="1234" y="1273" type="line"/>
      <point x="1197" y="1414"/>
      <point x="1088" y="1556"/>
      <point x="846" y="1556" type="curve" smooth="yes"/>
      <point x="525" y="1556"/>
      <point x="192" y="1309"/>
      <point x="103" y="770" type="curve" smooth="yes"/>
      <point x="17" y="248"/>
      <point x="256" y="21"/>
      <point x="593" y="21" type="curve" smooth="yes"/>
      <point x="819" y="21"/>
      <point x="988" y="126"/>
      <point x="1068" y="268" type="curve"/>
      <point x="1085" y="268" type="line"/>
      <point x="1040" y="-2" type="line" smooth="yes"/>
      <point x="1012" y="-185"/>
      <point x="878" y="-256"/>
      <point x="714" y="-256" type="curve" smooth="yes"/>
      <point x="555" y="-256"/>
      <point x="474" y="-198"/>
      <point x="462" y="-114" type="curve"/>
      <point x="-6" y="-140" type="line"/>
      <point x="-11" y="-396"/>
      <point x="207" y="-595"/>
    </contour>
    <contour>
      <point x="819" y="377" type="curve" smooth="yes"/>
      <point x="638" y="377"/>
      <point x="565" y="524"/>
      <point x="605" y="770" type="curve" smooth="yes"/>
      <point x="644" y="1015"/>
      <point x="769" y="1174"/>
      <point x="951" y="1174" type="curve" smooth="yes"/>
      <point x="1130" y="1174"/>
      <point x="1209" y="1019"/>
      <point x="1170" y="770" type="curve" smooth="yes"/>
      <point x="1130" y="523"/>
      <point x="997" y="377"/>
    </contour>
  </outline>
</glyph>
<glyph name="h" format="2">
  <advance width="1789"/>
  <unicode hex="0068"/>
  <note>
based on "n" and made slightly wider, brining the top vertical stem with it out.
</note>
  <outline>
    <contour>
      <point x="665" y="876" type="line" smooth="yes"/>
      <point x="694" y="1051"/>
      <point x="816" y="1155"/>
      <point x="971" y="1155" type="curve" smooth="yes"/>
      <point x="1127" y="1155"/>
      <point x="1201" y="1054"/>
      <point x="1174" y="883" type="curve" smooth="yes"/>
      <point x="1026" y="0" type="line"/>
      <point x="1515" y="0" type="line"/>
      <point x="1679" y="979" type="line" smooth="yes"/>
      <point x="1737" y="1327"/>
      <point x="1563" y="1556"/>
      <point x="1242" y="1556" type="curve" smooth="yes"/>
      <point x="1010" y="1556"/>
      <point x="829" y="1443"/>
      <point x="730" y="1254" type="curve"/>
      <point x="713" y="1254" type="line"/>
      <point x="843" y="2048" type="line"/>
      <point x="370" y="2048" type="line"/>
      <point x="30" y="0" type="line"/>
      <point x="519" y="0" type="line"/>
    </contour>
  </outline>
</glyph>
<glyph name="k" format="2">
  <advance width="1673"/>
  <unicode hex="006B"/>
  <outline>
    <contour>
      <point x="534" y="403" type="line"/>
      <point x="879" y="748" type="line"/>
      <point x="1008" y="748" type="line"/>
      <point x="1780" y="1536" type="line"/>
      <point x="1226" y="1536" type="line"/>
      <point x="700" y="986" type="line"/>
      <point x="633" y="986" type="line"/>
    </contour>
    <contour>
      <point x="27" y="0" type="line"/>
      <point x="516" y="0" type="line"/>
      <point x="856" y="2048" type="line"/>
      <point x="367" y="2048" type="line"/>
    </contour>
    <contour>
      <point x="981" y="0" type="line"/>
      <point x="1546" y="0" type="line"/>
      <point x="1066" y="985" type="line"/>
      <point x="685" y="638" type="line"/>
    </contour>
  </outline>
</glyph>
<glyph name="m" format="2">
  <advance width="2608"/>
  <unicode hex="006D"/>
  <outline>
    <contour>
      <point x="30" y="0" type="line"/>
      <point x="519" y="0" type="line"/>
      <point x="673" y="909" type="line" smooth="yes"/>
      <point x="695" y="1061"/>
      <point x="801" y="1158"/>
      <point x="928" y="1158" type="curve" smooth="yes"/>
      <point x="1056" y="1158"/>
      <point x="1125" y="1070"/>
      <point x="1104" y="927" type="curve" smooth="yes"/>
      <point x="947" y="0" type="line"/>
      <point x="1418" y="0" type="line"/>
      <point x="1573" y="917" type="line" smooth="yes"/>
      <point x="1594" y="1064"/>
      <point x="1691" y="1158"/>
      <point x="1825" y="1158" type="curve" smooth="yes"/>
      <point x="1950" y="1158"/>
      <point x="2024" y="1075"/>
      <point x="2002" y="922" type="curve" smooth="yes"/>
      <point x="1846" y="0" type="line"/>
      <point x="2334" y="0" type="line"/>
      <point x="2506" y="1034" type="line" smooth="yes"/>
      <point x="2561" y="1358"/>
      <point x="2392" y="1556"/>
      <point x="2104" y="1556" type="curve" smooth="yes"/>
      <point x="1876" y="1556"/>
      <point x="1677" y="1437"/>
      <point x="1590" y="1254" type="curve"/>
      <point x="1574" y="1254" type="line"/>
      <point x="1563" y="1438"/>
      <point x="1418" y="1556"/>
      <point x="1206" y="1556" type="curve" smooth="yes"/>
      <point x="994" y="1556"/>
      <point x="816" y="1441"/>
      <point x="722" y="1254" type="curve"/>
      <point x="705" y="1254" type="line"/>
      <point x="751" y="1536" type="line"/>
      <point x="286" y="1536" type="line"/>
    </contour>
  </outline>
</glyph>
<glyph name="n" format="2">
  <advance width="1786"/>
  <unicode hex="006E"/>
  <outline>
    <contour>
      <point x="665" y="876" type="line" smooth="yes"/>
      <point x="694" y="1051"/>
      <point x="815" y="1155"/>
      <point x="969" y="1155" type="curve" smooth="yes"/>
      <point x="1126" y="1155"/>
      <point x="1198" y="1053"/>
      <point x="1170" y="883" type="curve" smooth="yes"/>
      <point x="1023" y="0" type="line"/>
      <point x="1512" y="0" type="line"/>
      <point x="1676" y="979" type="line" smooth="yes"/>
      <point x="1734" y="1326"/>
      <point x="1561" y="1556"/>
      <point x="1239" y="1556" type="curve" smooth="yes"/>
      <point x="1011" y="1556"/>
      <point x="818" y="1442"/>
      <point x="722" y="1254" type="curve"/>
      <point x="705" y="1254" type="line"/>
      <point x="751" y="1536" type="line"/>
      <point x="286" y="1536" type="line"/>
      <point x="30" y="0" type="line"/>
      <point x="519" y="0" type="line"/>
    </contour>
  </outline>
</glyph>
<glyph name="o" format="2">
  <advance width="1744"/>
  <unicode hex="006F"/>
  <outline>
    <contour>
      <point x="743" y="-29" type="curve" smooth="yes"/>
      <point x="1225" y="-29"/>
      <point x="1569" y="289"/>
      <point x="1647" y="760" type="curve" smooth="yes"/>
      <point x="1725" y="1235"/>
      <point x="1484" y="1556"/>
      <point x="1001" y="1556" type="curve" smooth="yes"/>
      <point x="518" y="1556"/>
      <point x="174" y="1238"/>
      <point x="97" y="766" type="curve" smooth="yes"/>
      <point x="18" y="292"/>
      <point x="258" y="-29"/>
    </contour>
    <contour>
      <point x="798" y="340" type="curve" smooth="yes"/>
      <point x="621" y="340"/>
      <point x="552" y="510"/>
      <point x="594" y="763" type="curve" smooth="yes"/>
      <point x="635" y="1019"/>
      <point x="766" y="1194"/>
      <point x="946" y="1194" type="curve" smooth="yes"/>
      <point x="1122" y="1194"/>
      <point x="1191" y="1022"/>
      <point x="1150" y="770" type="curve" smooth="yes"/>
      <point x="1108" y="513"/>
      <point x="978" y="340"/>
    </contour>
  </outline>
</glyph>
<glyph name="r" format="2">
  <advance width="1186"/>
  <unicode hex="0072"/>
  <outline>
    <contour>
      <point x="27" y="0" type="line"/>
      <point x="516" y="0" type="line"/>
      <point x="654" y="834" type="line" smooth="yes"/>
      <point x="686" y="1017"/>
      <point x="836" y="1140"/>
      <point x="1009" y="1140" type="curve" smooth="yes"/>
      <point x="1070" y="1140"/>
      <point x="1153" y="1131"/>
      <point x="1198" y="1114" type="curve"/>
      <point x="1270" y="1540" type="line"/>
      <point x="1229" y="1550"/>
      <point x="1182" y="1557"/>
      <point x="1136" y="1557" type="curve" smooth="yes"/>
      <point x="968" y="1557"/>
      <point x="817" y="1459"/>
      <point x="727" y="1256" type="curve"/>
      <point x="711" y="1256" type="line"/>
      <point x="758" y="1536" type="line"/>
      <point x="283" y="1536" type="line"/>
    </contour>
  </outline>
</glyph>
<glyph name="s" format="2">
  <advance width="1619"/>
  <unicode hex="0073"/>
  <outline>
    <contour>
      <point x="1542" y="1067" type="line"/>
      <point x="1569" y="1370"/>
      <point x="1340" y="1556"/>
      <point x="911" y="1556" type="curve" smooth="yes"/>
      <point x="509" y="1556"/>
      <point x="228" y="1390"/>
      <point x="178" y="1093" type="curve" smooth="yes"/>
      <point x="137" y="846"/>
      <point x="272" y="682"/>
      <point x="570" y="625" type="curve" smooth="yes"/>
      <point x="830" y="574" type="line" smooth="yes"/>
      <point x="954" y="549"/>
      <point x="994" y="521"/>
      <point x="986" y="464" type="curve" smooth="yes"/>
      <point x="974" y="375"/>
      <point x="862" y="307"/>
      <point x="724" y="310" type="curve" smooth="yes"/>
      <point x="599" y="312"/>
      <point x="522" y="369"/>
      <point x="518" y="482" type="curve"/>
      <point x="42" y="470" type="line"/>
      <point x="27" y="169"/>
      <point x="262" y="-29"/>
      <point x="712" y="-29" type="curve" smooth="yes"/>
      <point x="1113" y="-29"/>
      <point x="1432" y="162"/>
      <point x="1484" y="466" type="curve" smooth="yes"/>
      <point x="1522" y="702"/>
      <point x="1386" y="846"/>
      <point x="1090" y="905" type="curve" smooth="yes"/>
      <point x="802" y="961" type="line" smooth="yes"/>
      <point x="678" y="987"/>
      <point x="652" y="1022"/>
      <point x="662" y="1070" type="curve" smooth="yes"/>
      <point x="674" y="1158"/>
      <point x="788" y="1221"/>
      <point x="914" y="1221" type="curve" smooth="yes"/>
      <point x="1030" y="1221"/>
      <point x="1102" y="1154"/>
      <point x="1101" y="1055" type="curve"/>
    </contour>
  </outline>
</glyph>
<glyph name="t" format="2">
  <advance width="1117"/>
  <unicode hex="0074"/>
  <outline>
    <contour>
      <point x="1150" y="1536" type="line"/>
      <point x="181" y="1536" type="line"/>
      <point x="120" y="1176" type="line"/>
      <point x="1089" y="1176" type="line"/>
    </contour>
    <component base="_part.t_base"/>
  </outline>
</glyph>
<glyph name="u" format="2">
  <advance width="1790"/>
  <unicode hex="0075"/>
  <outline>
    <contour>
      <point x="1128" y="663" type="line" smooth="yes"/>
      <point x="1100" y="484"/>
      <point x="969" y="384"/>
      <point x="824" y="384" type="curve" smooth="yes"/>
      <point x="674" y="384"/>
      <point x="599" y="486"/>
      <point x="625" y="653" type="curve" smooth="yes"/>
      <point x="772" y="1536" type="line"/>
      <point x="283" y="1536" type="line"/>
      <point x="119" y="557" type="line" smooth="yes"/>
      <point x="62" y="210"/>
      <point x="235" y="-20"/>
      <point x="551" y="-20" type="curve" smooth="yes"/>
      <point x="781" y="-20"/>
      <point x="976" y="98"/>
      <point x="1071" y="286" type="curve"/>
      <point x="1087" y="286" type="line"/>
      <point x="1040" y="0" type="line"/>
      <point x="1506" y="0" type="line"/>
      <point x="1762" y="1536" type="line"/>
      <point x="1274" y="1536" type="line"/>
    </contour>
  </outline>
</glyph>
<glyph name="v" format="2">
  <advance width="1677"/>
  <unicode hex="0076"/>
  <outline>
    <contour>
      <point x="1773" y="1536" type="line"/>
      <point x="1240" y="1536" type="line"/>
      <point x="781" y="478" type="line"/>
      <point x="765" y="478" type="line"/>
      <point x="657" y="1536" type="line"/>
      <point x="160" y="1536" type="line"/>
      <point x="430" y="0" type="line"/>
      <point x="990" y="0" type="line"/>
    </contour>
  </outline>
</glyph>
<glyph name="w" format="2">
  <advance width="2429"/>
  <unicode hex="0077"/>
  <outline>
    <contour>
      <point x="314" y="0" type="line"/>
      <point x="838" y="0" type="line"/>
      <point x="1226" y="895" type="line"/>
      <point x="1243" y="895" type="line"/>
      <point x="1335" y="0" type="line"/>
      <point x="1858" y="0" type="line"/>
      <point x="2515" y="1536" type="line"/>
      <point x="2024" y="1536" type="line"/>
      <point x="1659" y="559" type="line"/>
      <point x="1646" y="559" type="line"/>
      <point x="1582" y="1536" type="line"/>
      <point x="1103" y="1536" type="line"/>
      <point x="717" y="552" type="line"/>
      <point x="704" y="552" type="line"/>
      <point x="661" y="1536" type="line"/>
      <point x="170" y="1536" type="line"/>
    </contour>
  </outline>
</glyph>
<glyph name="x" format="2">
  <advance width="1648"/>
  <unicode hex="0078"/>
  <outline>
    <contour>
      <point x="699" y="1536" type="line"/>
      <point x="203" y="1536" type="line"/>
      <point x="499" y="768" type="line"/>
      <point x="-75" y="0" type="line"/>
      <point x="421" y="0" type="line"/>
      <point x="780" y="510" type="line"/>
      <point x="978" y="0" type="line"/>
      <point x="1467" y="0" type="line"/>
      <point x="1150" y="768" type="line"/>
      <point x="1707" y="1536" type="line"/>
      <point x="1214" y="1536" type="line"/>
      <point x="867" y="1030" type="line"/>
    </contour>
  </outline>
</glyph>
<glyph name="y" format="2">
  <advance width="1677"/>
  <unicode hex="0079"/>
  <outline>
    <contour>
      <point x="232" y="-574" type="curve" smooth="yes"/>
      <point x="583" y="-574"/>
      <point x="787" y="-397"/>
      <point x="916" y="-147" type="curve" smooth="yes"/>
      <point x="1773" y="1536" type="line"/>
      <point x="1240" y="1536" type="line"/>
      <point x="770" y="439" type="line"/>
      <point x="754" y="439" type="line"/>
      <point x="654" y="1536" type="line"/>
      <point x="160" y="1536" type="line"/>
      <point x="441" y="-54" type="line"/>
      <point x="413" y="-101" type="line" smooth="yes"/>
      <point x="342" y="-211"/>
      <point x="243" y="-217"/>
      <point x="108" y="-170" type="curve"/>
      <point x="-60" y="-525" type="line"/>
      <point x="10" y="-554"/>
      <point x="114" y="-574"/>
    </contour>
  </outline>
</glyph>
<glyph name="z" format="2">
  <advance width="1646"/>
  <unicode hex="007A"/>
  <outline>
    <contour>
      <point x="34" y="0" type="line"/>
      <point x="1357" y="0" type="line"/>
      <point x="1418" y="380" type="line"/>
      <point x="734" y="380" type="line"/>
      <point x="738" y="390" type="line"/>
      <point x="1537" y="1230" type="line"/>
      <point x="1585" y="1536" type="line"/>
      <point x="315" y="1536" type="line"/>
      <point x="250" y="1156" type="line"/>
      <point x="938" y="1156" type="line"/>
      <point x="934" y="1146" type="line"/>
      <point x="79" y="279" type="line"/>
    </contour>
  </outline>
</glyph>
<glyph name="braceleft" format="2">
  <advance width="1196"/>
  <unicode hex="007B"/>
  <outline>
    <contour>
      <point x="82" y="796" type="line"/>
      <point x="738" y="796"/>
      <point x="896" y="984"/>
      <point x="929" y="1186" type="curve" smooth="yes"/>
      <point x="971" y="1442" type="line" smooth="yes"/>
      <point x="1001" y="1623"/>
      <point x="1054" y="1708"/>
      <point x="1293" y="1708" type="curve"/>
      <point x="1354" y="2067" type="line"/>
      <point x="946" y="2067"/>
      <point x="592" y="2034"/>
      <point x="509" y="1499" type="curve" smooth="yes"/>
      <point x="479" y="1310" type="line" smooth="yes"/>
      <point x="448" y="1109"/>
      <point x="351" y="1022"/>
      <point x="121" y="1022" type="curve"/>
    </contour>
    <contour>
      <point x="936" y="-454" type="curve"/>
      <point x="997" y="-95" type="line"/>
      <point x="758" y="-95"/>
      <point x="731" y="-10"/>
      <point x="762" y="171" type="curve" smooth="yes"/>
      <point x="804" y="427" type="line" smooth="yes"/>
      <point x="837" y="629"/>
      <point x="741" y="817"/>
      <point x="85" y="817" type="curve"/>
      <point x="49" y="590" type="line"/>
      <point x="282" y="590"/>
      <point x="341" y="503"/>
      <point x="310" y="302" type="curve" smooth="yes"/>
      <point x="280" y="114" type="line" smooth="yes"/>
      <point x="197" y="-422"/>
      <point x="528" y="-454"/>
    </contour>
    <contour>
      <point x="45" y="590" type="line"/>
      <point x="444" y="590" type="line"/>
      <point x="516" y="1022" type="line"/>
      <point x="117" y="1022" type="line"/>
    </contour>
  </outline>
</glyph>
<glyph name="bar" format="2">
  <advance width="1096"/>
  <unicode hex="007C"/>
  <outline>
    <contour>
      <point x="1106" y="2708" type="line"/>
      <point x="634" y="2708" type="line"/>
      <point x="76" y="-660" type="line"/>
      <point x="548" y="-660" type="line"/>
    </contour>
  </outline>
</glyph>
<glyph name="asciitilde" format="2">
  <advance width="1933"/>
  <unicode hex="007E"/>
  <outline>
    <contour>
      <point x="172" y="534" type="curve"/>
      <point x="535" y="534" type="line"/>
      <point x="557" y="698"/>
      <point x="635" y="762"/>
      <point x="724" y="762" type="curve" smooth="yes"/>
      <point x="793" y="762"/>
      <point x="820" y="732"/>
      <point x="888" y="664" type="curve" smooth="yes"/>
      <point x="1007" y="545"/>
      <point x="1103" y="493"/>
      <point x="1236" y="493" type="curve" smooth="yes"/>
      <point x="1520" y="493"/>
      <point x="1731" y="728"/>
      <point x="1782" y="1121" type="curve"/>
      <point x="1419" y="1121" type="line"/>
      <point x="1395" y="961"/>
      <point x="1318" y="893"/>
      <point x="1227" y="893" type="curve" smooth="yes"/>
      <point x="1158" y="893"/>
      <point x="1123" y="931"/>
      <point x="1062" y="993" type="curve" smooth="yes"/>
      <point x="934" y="1120"/>
      <point x="839" y="1164"/>
      <point x="716" y="1164" type="curve" smooth="yes"/>
      <point x="422" y="1164"/>
      <point x="221" y="930"/>
    </contour>
  </outline>
</glyph>
<glyph name="sterling" format="2">
  <advance width="1930"/>
  <unicode hex="00A3"/>
  <outline>
    <contour>
      <point x="1607" y="0" type="line"/>
      <point x="1675" y="402" type="line"/>
      <point x="143" y="402" type="line"/>
      <point x="75" y="0" type="line"/>
    </contour>
    <contour>
      <point x="1358" y="822" type="line"/>
      <point x="1424" y="1200" type="line"/>
      <point x="271" y="1200" type="line"/>
      <point x="206" y="822" type="line"/>
    </contour>
    <contour>
      <point x="1018" y="1482" type="line" smooth="yes"/>
      <point x="1039" y="1618"/>
      <point x="1114" y="1686"/>
      <point x="1218" y="1686" type="curve" smooth="yes"/>
      <point x="1330" y="1686"/>
      <point x="1412" y="1641"/>
      <point x="1389" y="1484" type="curve"/>
      <point x="1852" y="1490" type="line"/>
      <point x="1908" y="1849"/>
      <point x="1707" y="2076"/>
      <point x="1278" y="2076" type="curve" smooth="yes"/>
      <point x="884" y="2076"/>
      <point x="574" y="1858"/>
      <point x="526" y="1482" type="curve" smooth="yes"/>
      <point x="414" y="605" type="line" smooth="yes"/>
      <point x="399" y="504"/>
      <point x="370" y="428"/>
      <point x="290" y="402" type="curve"/>
      <point x="546" y="257" type="line"/>
      <point x="783" y="346"/>
      <point x="884" y="450"/>
      <point x="909" y="637" type="curve" smooth="yes"/>
    </contour>
  </outline>
</glyph>
<glyph name="currency" format="2">
  <advance width="2193"/>
  <unicode hex="00A4"/>
  <outline>
    <contour>
      <point x="966" y="-28" type="curve" smooth="yes"/>
      <point x="1430" y="-28"/>
      <point x="1878" y="348"/>
      <point x="1959" y="836" type="curve" smooth="yes"/>
      <point x="2038" y="1324"/>
      <point x="1714" y="1696"/>
      <point x="1250" y="1696" type="curve" smooth="yes"/>
      <point x="781" y="1696"/>
      <point x="338" y="1324"/>
      <point x="259" y="836" type="curve"/>
      <point x="178" y="348"/>
      <point x="497" y="-28"/>
    </contour>
    <contour>
      <point x="1012" y="246" type="curve" smooth="yes"/>
      <point x="682" y="246"/>
      <point x="469" y="503"/>
      <point x="527" y="836" type="curve"/>
      <point x="582" y="1173"/>
      <point x="878" y="1426"/>
      <point x="1208" y="1426" type="curve" smooth="yes"/>
      <point x="1528" y="1426"/>
      <point x="1748" y="1173"/>
      <point x="1693" y="836" type="curve" smooth="yes"/>
      <point x="1634" y="503"/>
      <point x="1332" y="246"/>
    </contour>
    <contour>
      <point x="1798" y="1253" type="line"/>
      <point x="2135" y="1537" type="line"/>
      <point x="1964" y="1743" type="line"/>
      <point x="1630" y="1459" type="line"/>
    </contour>
    <contour>
      <point x="1666" y="-39" type="line"/>
      <point x="1906" y="167" type="line"/>
      <point x="1664" y="447" type="line"/>
      <point x="1428" y="245" type="line"/>
    </contour>
    <contour>
      <point x="262" y="-39" type="line"/>
      <point x="600" y="245" type="line"/>
      <point x="429" y="447" type="line"/>
      <point x="95" y="167" type="line"/>
    </contour>
    <contour>
      <point x="562" y="1253" type="line"/>
      <point x="802" y="1459" type="line"/>
      <point x="561" y="1743" type="line"/>
      <point x="325" y="1537" type="line"/>
    </contour>
  </outline>
</glyph>
<glyph name="yen" format="2">
  <advance width="1634"/>
  <unicode hex="00A5"/>
  <note>
line up with uni20BD
</note>
  <outline>
    <contour>
      <point x="752" y="2048" type="line"/>
      <point x="252" y="2048" type="line"/>
      <point x="605" y="783" type="line"/>
      <point x="976" y="1052" type="line"/>
    </contour>
    <contour>
      <point x="760" y="1065" type="line"/>
      <point x="1029" y="783" type="line"/>
      <point x="1806" y="2048" type="line"/>
      <point x="1306" y="2048" type="line"/>
    </contour>
    <contour>
      <point x="1105" y="1079" type="line"/>
      <point x="617" y="1079" type="line"/>
      <point x="437" y="0" type="line"/>
      <point x="925" y="0" type="line"/>
    </contour>
    <contour>
      <point x="1493" y="1068" type="line"/>
      <point x="182" y="1068" type="line"/>
      <point x="138" y="798" type="line"/>
      <point x="1449" y="798" type="line"/>
    </contour>
    <contour>
      <point x="1429" y="672" type="line"/>
      <point x="118" y="672" type="line"/>
      <point x="71" y="402" type="line"/>
      <point x="1382" y="402" type="line"/>
    </contour>
  </outline>
</glyph>
<glyph name="brokenbar" format="2">
  <advance width="1046"/>
  <unicode hex="00A6"/>
  <outline>
    <contour>
      <point x="273" y="578" type="line"/>
      <point x="114" y="-384" type="line"/>
      <point x="548" y="-384" type="line"/>
      <point x="707" y="578" type="line"/>
    </contour>
    <contour>
      <point x="952" y="2048" type="line"/>
      <point x="518" y="2048" type="line"/>
      <point x="358" y="1090" type="line"/>
      <point x="793" y="1090" type="line"/>
    </contour>
  </outline>
</glyph>
<glyph name="section" format="2">
  <advance width="1709"/>
  <unicode hex="00A7"/>
  <note>
composed of "S" scaled down with RMX Tuner in temporary duplicate file
</note>
  <outline>
    <contour>
      <point x="1574" y="1532" type="line"/>
      <point x="1624" y="1845"/>
      <point x="1417" y="2076"/>
      <point x="1052" y="2076" type="curve" smooth="yes"/>
      <point x="697" y="2076"/>
      <point x="414" y="1854"/>
      <point x="364" y="1555" type="curve" smooth="yes"/>
      <point x="337" y="1392"/>
      <point x="386" y="1269"/>
      <point x="478" y="1166" type="curve"/>
      <point x="478" y="1164" type="line"/>
      <point x="391" y="1142"/>
      <point x="238" y="1088"/>
      <point x="189" y="912" type="curve" smooth="yes"/>
      <point x="106" y="603"/>
      <point x="334" y="483"/>
      <point x="441" y="439" type="curve" smooth="yes"/>
      <point x="795" y="282" type="line" smooth="yes"/>
      <point x="857" y="252"/>
      <point x="955" y="197"/>
      <point x="942" y="109" type="curve" smooth="yes"/>
      <point x="926" y="28"/>
      <point x="824" y="-2"/>
      <point x="738" y="-6" type="curve" smooth="yes"/>
      <point x="589" y="-15"/>
      <point x="514" y="45"/>
      <point x="531" y="148" type="curve"/>
      <point x="107" y="148" type="line"/>
      <point x="51" y="-191"/>
      <point x="276" y="-413"/>
      <point x="663" y="-413" type="curve" smooth="yes"/>
      <point x="1022" y="-413"/>
      <point x="1316" y="-213"/>
      <point x="1371" y="109" type="curve" smooth="yes"/>
      <point x="1397" y="269"/>
      <point x="1354" y="394"/>
      <point x="1251" y="497" type="curve"/>
      <point x="1261" y="501" type="line"/>
      <point x="1330" y="520"/>
      <point x="1493" y="578"/>
      <point x="1543" y="752" type="curve" smooth="yes"/>
      <point x="1628" y="1058"/>
      <point x="1396" y="1177"/>
      <point x="1298" y="1221" type="curve" smooth="yes"/>
      <point x="940" y="1382" type="line" smooth="yes"/>
      <point x="870" y="1406"/>
      <point x="773" y="1467"/>
      <point x="790" y="1555" type="curve" smooth="yes"/>
      <point x="803" y="1649"/>
      <point x="902" y="1672"/>
      <point x="984" y="1672" type="curve" smooth="yes"/>
      <point x="1107" y="1672"/>
      <point x="1165" y="1611"/>
      <point x="1150" y="1532" type="curve"/>
    </contour>
    <contour>
      <point x="1144" y="723" type="curve" smooth="yes"/>
      <point x="1122" y="665"/>
      <point x="1064" y="637"/>
      <point x="1011" y="659" type="curve"/>
      <point x="714" y="786" type="line" smooth="yes"/>
      <point x="602" y="830"/>
      <point x="564" y="890"/>
      <point x="585" y="941" type="curve" smooth="yes"/>
      <point x="606" y="997"/>
      <point x="663" y="1030"/>
      <point x="725" y="1003" type="curve"/>
      <point x="1019" y="878" type="line" smooth="yes"/>
      <point x="1132" y="831"/>
      <point x="1166" y="775"/>
    </contour>
  </outline>
</glyph>
<glyph name="dieresis" format="2">
  <advance width="1453"/>
  <unicode hex="00A8"/>
  <outline>
    <contour>
      <point x="603" y="1731" type="curve" smooth="yes"/>
      <point x="713" y="1731"/>
      <point x="814" y="1815"/>
      <point x="829" y="1920" type="curve" smooth="yes"/>
      <point x="852" y="2055"/>
      <point x="759" y="2166"/>
      <point x="620" y="2166" type="curve" smooth="yes"/>
      <point x="509" y="2166"/>
      <point x="407" y="2084"/>
      <point x="388" y="1978" type="curve" smooth="yes"/>
      <point x="367" y="1844"/>
      <point x="464" y="1731"/>
    </contour>
    <contour>
      <point x="1227" y="1731" type="curve" smooth="yes"/>
      <point x="1337" y="1731"/>
      <point x="1438" y="1815"/>
      <point x="1453" y="1920" type="curve" smooth="yes"/>
      <point x="1476" y="2055"/>
      <point x="1383" y="2166"/>
      <point x="1244" y="2166" type="curve" smooth="yes"/>
      <point x="1133" y="2166"/>
      <point x="1031" y="2084"/>
      <point x="1012" y="1978" type="curve" smooth="yes"/>
      <point x="990" y="1843"/>
      <point x="1088" y="1731"/>
    </contour>
  </outline>
</glyph>
<glyph name="copyright" format="2">
  <advance width="2461"/>
  <unicode hex="00A9"/>
  <outline>
    <contour>
      <point x="1476" y="820" type="line"/>
      <point x="1449" y="640"/>
      <point x="1350" y="572"/>
      <point x="1179" y="572" type="curve" smooth="yes"/>
      <point x="998" y="572"/>
      <point x="930" y="716"/>
      <point x="961" y="920" type="curve" smooth="yes"/>
      <point x="989" y="1084" type="line" smooth="yes"/>
      <point x="1026" y="1288"/>
      <point x="1138" y="1432"/>
      <point x="1319" y="1432" type="curve" smooth="yes"/>
      <point x="1490" y="1432"/>
      <point x="1570" y="1360"/>
      <point x="1537" y="1184" type="curve"/>
      <point x="1762" y="1184" type="line"/>
      <point x="1810" y="1472"/>
      <point x="1645" y="1616"/>
      <point x="1351" y="1616" type="curve" smooth="yes"/>
      <point x="1050" y="1616"/>
      <point x="817" y="1400"/>
      <point x="764" y="1084" type="curve"/>
      <point x="736" y="920" type="line"/>
      <point x="685" y="604"/>
      <point x="846" y="388"/>
      <point x="1147" y="388" type="curve" smooth="yes"/>
      <point x="1441" y="388"/>
      <point x="1654" y="532"/>
      <point x="1702" y="820" type="curve"/>
    </contour>
    <contour>
      <point x="430" y="1004" type="curve"/>
      <point x="511" y="1488"/>
      <point x="951" y="1860"/>
      <point x="1410" y="1860" type="curve" smooth="yes"/>
      <point x="1875" y="1860"/>
      <point x="2191" y="1488"/>
      <point x="2110" y="1004" type="curve" smooth="yes"/>
      <point x="2031" y="516"/>
      <point x="1591" y="144"/>
      <point x="1126" y="144" type="curve" smooth="yes"/>
      <point x="667" y="144"/>
      <point x="351" y="516"/>
    </contour>
    <contour>
      <point x="256" y="1004" type="curve"/>
      <point x="161" y="420"/>
      <point x="544" y="-28"/>
      <point x="1098" y="-28" type="curve" smooth="yes"/>
      <point x="1658" y="-28"/>
      <point x="2190" y="420"/>
      <point x="2285" y="1004" type="curve" smooth="yes"/>
      <point x="2382" y="1584"/>
      <point x="1998" y="2032"/>
      <point x="1438" y="2032" type="curve" smooth="yes"/>
      <point x="884" y="2032"/>
      <point x="353" y="1584"/>
    </contour>
  </outline>
</glyph>
<glyph name="ordfeminine" format="2">
  <advance width="1408"/>
  <unicode hex="00AA"/>
  <outline>
    <contour>
      <point x="945" y="1184" type="line"/>
      <point x="933" y="1106"/>
      <point x="936" y="1030"/>
      <point x="944" y="969" type="curve"/>
      <point x="1198" y="969" type="line"/>
      <point x="1179" y="1058"/>
      <point x="1190" y="1145"/>
      <point x="1202" y="1220" type="curve" smooth="yes"/>
      <point x="1274" y="1652" type="line"/>
      <point x="1314" y="1904"/>
      <point x="1168" y="2032"/>
      <point x="918" y="2032" type="curve" smooth="yes"/>
      <point x="652" y="2032"/>
      <point x="454" y="1896"/>
      <point x="422" y="1709" type="curve"/>
      <point x="667" y="1692" type="line"/>
      <point x="683" y="1780"/>
      <point x="763" y="1828"/>
      <point x="886" y="1828" type="curve" smooth="yes"/>
      <point x="1001" y="1828"/>
      <point x="1041" y="1762"/>
      <point x="1025" y="1652" type="curve"/>
    </contour>
    <contour>
      <point x="1076" y="1581" type="line"/>
      <point x="870" y="1581" type="line"/>
      <point x="541" y="1581"/>
      <point x="362" y="1468"/>
      <point x="330" y="1264" type="curve" smooth="yes"/>
      <point x="298" y="1076"/>
      <point x="405" y="952"/>
      <point x="631" y="952" type="curve" smooth="yes"/>
      <point x="826" y="952"/>
      <point x="949" y="1054"/>
      <point x="1008" y="1145" type="curve"/>
      <point x="1008" y="1308" type="line"/>
      <point x="1000" y="1240"/>
      <point x="842" y="1149"/>
      <point x="726" y="1149" type="curve" smooth="yes"/>
      <point x="611" y="1149"/>
      <point x="568" y="1196"/>
      <point x="580" y="1269" type="curve" smooth="yes"/>
      <point x="592" y="1349"/>
      <point x="678" y="1421"/>
      <point x="842" y="1421" type="curve"/>
      <point x="1048" y="1421" type="line"/>
    </contour>
  </outline>
</glyph>
<glyph name="logicalnot" format="2">
  <advance width="1670"/>
  <unicode hex="00AC"/>
  <outline>
    <contour>
      <point x="1491" y="1108" type="line"/>
      <point x="298" y="1108" type="line"/>
      <point x="258" y="872" type="line"/>
      <point x="1451" y="872" type="line"/>
    </contour>
    <contour>
      <point x="1475" y="1000" type="line"/>
      <point x="1190" y="1000" type="line"/>
      <point x="1110" y="516" type="line"/>
      <point x="1395" y="516" type="line"/>
    </contour>
  </outline>
</glyph>
<glyph name="registered" format="2">
  <advance width="2461"/>
  <unicode hex="00AE"/>
  <outline>
    <contour>
      <point x="1098" y="-28" type="curve" smooth="yes"/>
      <point x="1658" y="-28"/>
      <point x="2190" y="420"/>
      <point x="2285" y="1004" type="curve" smooth="yes"/>
      <point x="2382" y="1584"/>
      <point x="1998" y="2032"/>
      <point x="1438" y="2032" type="curve" smooth="yes"/>
      <point x="884" y="2032"/>
      <point x="353" y="1584"/>
      <point x="256" y="1004" type="curve" smooth="yes"/>
      <point x="161" y="420"/>
      <point x="544" y="-28"/>
    </contour>
    <contour>
      <point x="1420" y="436" type="curve"/>
      <point x="1642" y="436" type="line"/>
      <point x="1646" y="456" type="line"/>
      <point x="1638" y="497"/>
      <point x="1639" y="558"/>
      <point x="1650" y="632" type="curve"/>
      <point x="1666" y="708" type="line"/>
      <point x="1698" y="911"/>
      <point x="1627" y="1060"/>
      <point x="1329" y="1060" type="curve"/>
      <point x="1270" y="900" type="line"/>
      <point x="1422" y="900"/>
      <point x="1469" y="836"/>
      <point x="1448" y="708" type="curve"/>
      <point x="1432" y="632" type="line"/>
      <point x="1429" y="592"/>
      <point x="1409" y="480"/>
    </contour>
    <contour>
      <point x="1126" y="144" type="curve" smooth="yes"/>
      <point x="667" y="144"/>
      <point x="351" y="516"/>
      <point x="430" y="1004" type="curve" smooth="yes"/>
      <point x="511" y="1488"/>
      <point x="951" y="1860"/>
      <point x="1410" y="1860" type="curve" smooth="yes"/>
      <point x="1875" y="1860"/>
      <point x="2191" y="1488"/>
      <point x="2110" y="1004" type="curve" smooth="yes"/>
      <point x="2031" y="516"/>
      <point x="1591" y="144"/>
    </contour>
    <contour>
      <point x="754" y="436" type="line"/>
      <point x="972" y="436" type="line"/>
      <point x="1136" y="1420" type="line"/>
      <point x="1319" y="1420" type="line"/>
      <point x="1506" y="1420"/>
      <point x="1565" y="1376"/>
      <point x="1544" y="1244" type="curve"/>
      <point x="1525" y="1137"/>
      <point x="1394" y="1084"/>
      <point x="1259" y="1084" type="curve"/>
      <point x="1009" y="1084" type="line"/>
      <point x="981" y="900" type="line"/>
      <point x="1290" y="900" type="line"/>
      <point x="1355" y="900"/>
      <point x="1312" y="903"/>
      <point x="1370" y="928" type="curve" smooth="yes"/>
      <point x="1372" y="930"/>
      <point x="1402" y="949"/>
      <point x="1393" y="948" type="curve" smooth="yes"/>
      <point x="1605" y="1000"/>
      <point x="1731" y="1090"/>
      <point x="1754" y="1239" type="curve"/>
      <point x="1795" y="1475"/>
      <point x="1637" y="1604"/>
      <point x="1351" y="1604" type="curve"/>
      <point x="950" y="1604" type="line"/>
    </contour>
  </outline>
</glyph>
<glyph name="degree" format="2">
  <advance width="1299"/>
  <unicode hex="00B0"/>
  <outline>
    <contour>
      <point x="780" y="1058" type="curve" smooth="yes"/>
      <point x="1057" y="1058"/>
      <point x="1281" y="1282"/>
      <point x="1281" y="1559" type="curve" smooth="yes"/>
      <point x="1281" y="1836"/>
      <point x="1057" y="2061"/>
      <point x="780" y="2061" type="curve" smooth="yes"/>
      <point x="502" y="2061"/>
      <point x="278" y="1836"/>
      <point x="278" y="1559" type="curve" smooth="yes"/>
      <point x="278" y="1282"/>
      <point x="502" y="1058"/>
    </contour>
    <contour>
      <point x="780" y="1370" type="curve" smooth="yes"/>
      <point x="675" y="1370"/>
      <point x="590" y="1454"/>
      <point x="590" y="1559" type="curve" smooth="yes"/>
      <point x="590" y="1664"/>
      <point x="675" y="1749"/>
      <point x="780" y="1749" type="curve" smooth="yes"/>
      <point x="884" y="1749"/>
      <point x="969" y="1664"/>
      <point x="969" y="1559" type="curve" smooth="yes"/>
      <point x="969" y="1454"/>
      <point x="884" y="1370"/>
    </contour>
  </outline>
</glyph>
<glyph name="plusminus" format="2">
  <advance width="1933"/>
  <unicode hex="00B1"/>
  <outline>
    <contour>
      <point x="127" y="70" type="line"/>
      <point x="1575" y="70" type="line"/>
      <point x="1637" y="448" type="line"/>
      <point x="189" y="448" type="line"/>
    </contour>
    <contour>
      <point x="266" y="910" type="line"/>
      <point x="1714" y="910" type="line"/>
      <point x="1776" y="1275" type="line"/>
      <point x="328" y="1275" type="line"/>
    </contour>
    <contour>
      <point x="734" y="586" type="line"/>
      <point x="1137" y="586" type="line"/>
      <point x="1306" y="1600" type="line"/>
      <point x="902" y="1600" type="line"/>
    </contour>
  </outline>
</glyph>
<glyph name="two.sups" format="2">
  <advance width="1193"/>
  <unicode hex="00B2"/>
  <outline>
    <contour>
      <point x="158" y="1024" type="line"/>
      <point x="1152" y="1024" type="line"/>
      <point x="1196" y="1299" type="line"/>
      <point x="683" y="1299" type="line"/>
      <point x="686" y="1310" type="line"/>
      <point x="859" y="1410" type="line" smooth="yes"/>
      <point x="1155" y="1569"/>
      <point x="1254" y="1702"/>
      <point x="1278" y="1864" type="curve" smooth="yes"/>
      <point x="1310" y="2085"/>
      <point x="1157" y="2268"/>
      <point x="840" y="2268" type="curve" smooth="yes"/>
      <point x="543" y="2268"/>
      <point x="307" y="2108"/>
      <point x="268" y="1846" type="curve"/>
      <point x="592" y="1846" type="line"/>
      <point x="612" y="1955"/>
      <point x="703" y="2003"/>
      <point x="807" y="2003" type="curve" smooth="yes"/>
      <point x="915" y="2003"/>
      <point x="987" y="1956"/>
      <point x="974" y="1868" type="curve" smooth="yes"/>
      <point x="958" y="1778"/>
      <point x="870" y="1727"/>
      <point x="757" y="1647" type="curve" smooth="yes"/>
      <point x="194" y="1266" type="line"/>
    </contour>
  </outline>
</glyph>
<glyph name="three.sups" format="2">
  <advance width="1253"/>
  <unicode hex="00B3"/>
  <outline>
    <contour>
      <point x="681" y="1008" type="curve" smooth="yes"/>
      <point x="1005" y="1008"/>
      <point x="1239" y="1154"/>
      <point x="1272" y="1362" type="curve" smooth="yes"/>
      <point x="1296" y="1522"/>
      <point x="1190" y="1638"/>
      <point x="1010" y="1653" type="curve"/>
      <point x="1010" y="1664" type="line"/>
      <point x="1171" y="1682"/>
      <point x="1286" y="1753"/>
      <point x="1306" y="1890" type="curve" smooth="yes"/>
      <point x="1338" y="2090"/>
      <point x="1171" y="2268"/>
      <point x="863" y="2268" type="curve" smooth="yes"/>
      <point x="584" y="2268"/>
      <point x="342" y="2118"/>
      <point x="302" y="1899" type="curve"/>
      <point x="625" y="1899" type="line"/>
      <point x="638" y="1966"/>
      <point x="756" y="2003"/>
      <point x="853" y="2003" type="curve" smooth="yes"/>
      <point x="959" y="2003"/>
      <point x="994" y="1964"/>
      <point x="983" y="1910" type="curve" smooth="yes"/>
      <point x="967" y="1833"/>
      <point x="882" y="1774"/>
      <point x="761" y="1774" type="curve" smooth="yes"/>
      <point x="614" y="1774" type="line"/>
      <point x="577" y="1524" type="line"/>
      <point x="738" y="1524" type="line" smooth="yes"/>
      <point x="873" y="1524"/>
      <point x="941" y="1491"/>
      <point x="927" y="1417" type="curve" smooth="yes"/>
      <point x="914" y="1340"/>
      <point x="817" y="1287"/>
      <point x="692" y="1287" type="curve" smooth="yes"/>
      <point x="590" y="1287"/>
      <point x="519" y="1321"/>
      <point x="526" y="1384" type="curve"/>
      <point x="188" y="1384" type="line"/>
      <point x="156" y="1159"/>
      <point x="358" y="1008"/>
    </contour>
  </outline>
</glyph>
<glyph name="acute" format="2">
  <advance width="1400"/>
  <unicode hex="00B4"/>
  <outline>
    <contour>
      <point x="684" y="1731" type="line"/>
      <point x="1016" y="1731" type="line"/>
      <point x="1395" y="2182" type="line"/>
      <point x="962" y="2182" type="line"/>
    </contour>
  </outline>
</glyph>
<glyph name="micro" format="2">
  <advance width="1918"/>
  <unicode hex="00B5"/>
  <outline>
    <contour>
      <point x="-62" y="-550" type="line"/>
      <point x="404" y="-550" type="line"/>
      <point x="530" y="215" type="line"/>
      <point x="542" y="215" type="line"/>
      <point x="577" y="94"/>
      <point x="689" y="18"/>
      <point x="834" y="18" type="curve" smooth="yes"/>
      <point x="984" y="18"/>
      <point x="1118" y="94"/>
      <point x="1194" y="215" type="curve"/>
      <point x="1206" y="215" type="line"/>
      <point x="1169" y="0" type="line"/>
      <point x="1635" y="0" type="line"/>
      <point x="1891" y="1536" type="line"/>
      <point x="1402" y="1536" type="line"/>
      <point x="1257" y="663" type="line" smooth="yes"/>
      <point x="1230" y="498"/>
      <point x="1082" y="384"/>
      <point x="896" y="384" type="curve" smooth="yes"/>
      <point x="711" y="384"/>
      <point x="600" y="498"/>
      <point x="626" y="663" type="curve" smooth="yes"/>
      <point x="772" y="1536" type="line"/>
      <point x="283" y="1536" type="line"/>
    </contour>
  </outline>
</glyph>
<glyph name="paragraph" format="2">
  <advance width="1726"/>
  <unicode hex="00B6"/>
  <note>
aka PILCROW SIGN
</note>
  <outline>
    <contour>
      <point x="1471" y="1684" type="line"/>
      <point x="1533" y="2048" type="line"/>
      <point x="1046" y="2048" type="line" smooth="yes"/>
      <point x="591" y="2048"/>
      <point x="301" y="1772"/>
      <point x="237" y="1404" type="curve" smooth="yes"/>
      <point x="177" y="1032"/>
      <point x="379" y="760"/>
      <point x="834" y="760" type="curve" smooth="yes"/>
      <point x="954" y="760" type="line"/>
      <point x="1104" y="1684" type="line"/>
    </contour>
    <contour>
      <point x="1074" y="0" type="line"/>
      <point x="1443" y="0" type="line"/>
      <point x="1783" y="2048" type="line"/>
      <point x="1414" y="2048" type="line"/>
    </contour>
  </outline>
</glyph>
<glyph name="cedilla" format="2">
  <advance width="1155"/>
  <unicode hex="00B8"/>
  <outline>
    <contour>
      <point x="358" y="8" type="line"/>
      <point x="275" y="-198" type="line"/>
      <point x="405" y="-216"/>
      <point x="462" y="-259"/>
      <point x="446" y="-338" type="curve" smooth="yes"/>
      <point x="426" y="-421"/>
      <point x="318" y="-463"/>
      <point x="136" y="-463" type="curve"/>
      <point x="103" y="-664" type="line"/>
      <point x="459" y="-664"/>
      <point x="690" y="-534"/>
      <point x="722" y="-327" type="curve" smooth="yes"/>
      <point x="746" y="-194"/>
      <point x="664" y="-104"/>
      <point x="522" y="-82" type="curve"/>
      <point x="554" y="8" type="line"/>
    </contour>
  </outline>
</glyph>
<glyph name="one.sups" format="2">
  <advance width="915"/>
  <unicode hex="00B9"/>
  <outline>
    <contour>
      <point x="962" y="2252" type="line"/>
      <point x="636" y="2252" type="line"/>
      <point x="614" y="2158"/>
      <point x="483" y="2046"/>
      <point x="301" y="2048" type="curve"/>
      <point x="264" y="1780" type="line"/>
      <point x="413" y="1777"/>
      <point x="522" y="1803"/>
      <point x="554" y="1849" type="curve"/>
      <point x="566" y="1849" type="line"/>
      <point x="425" y="1024" type="line"/>
      <point x="755" y="1024" type="line"/>
    </contour>
  </outline>
</glyph>
<glyph name="ordmasculine" format="2">
  <advance width="1398"/>
  <unicode hex="00BA"/>
  <outline>
    <contour>
      <point x="316" y="1436" type="line"/>
      <point x="268" y="1152"/>
      <point x="423" y="949"/>
      <point x="732" y="949" type="curve" smooth="yes"/>
      <point x="1037" y="949"/>
      <point x="1258" y="1152"/>
      <point x="1306" y="1436" type="curve"/>
      <point x="1322" y="1541" type="line"/>
      <point x="1370" y="1828"/>
      <point x="1213" y="2032"/>
      <point x="907" y="2032" type="curve" smooth="yes"/>
      <point x="606" y="2032"/>
      <point x="380" y="1828"/>
      <point x="332" y="1541" type="curve"/>
    </contour>
    <contour>
      <point x="582" y="1541" type="line"/>
      <point x="610" y="1701"/>
      <point x="713" y="1828"/>
      <point x="875" y="1828" type="curve" smooth="yes"/>
      <point x="1042" y="1828"/>
      <point x="1101" y="1701"/>
      <point x="1073" y="1541" type="curve"/>
      <point x="1057" y="1436" type="line"/>
      <point x="1029" y="1272"/>
      <point x="930" y="1152"/>
      <point x="767" y="1152" type="curve" smooth="yes"/>
      <point x="601" y="1152"/>
      <point x="538" y="1272"/>
      <point x="566" y="1436" type="curve"/>
    </contour>
  </outline>
</glyph>
<glyph name="AE" format="2">
  <advance width="2938"/>
  <unicode hex="00C6"/>
  <outline>
    <contour>
      <point x="-62" y="0" type="line"/>
      <point x="482" y="0" type="line"/>
      <point x="1345" y="1553" type="line"/>
      <point x="1486" y="1553" type="line"/>
      <point x="1227" y="0" type="line"/>
      <point x="2655" y="0" type="line"/>
      <point x="2723" y="402" type="line"/>
      <point x="1790" y="402" type="line"/>
      <point x="1858" y="823" type="line"/>
      <point x="2718" y="823" type="line"/>
      <point x="2786" y="1226" type="line"/>
      <point x="1926" y="1226" type="line"/>
      <point x="1994" y="1646" type="line"/>
      <point x="2927" y="1646" type="line"/>
      <point x="2995" y="2048" type="line"/>
      <point x="1116" y="2048" type="line"/>
    </contour>
    <contour>
      <point x="490" y="430" type="line"/>
      <point x="1586" y="430" type="line"/>
      <point x="1650" y="806" type="line"/>
      <point x="554" y="806" type="line"/>
    </contour>
  </outline>
</glyph>
<glyph name="Oslash" format="2">
  <advance width="2222"/>
  <unicode hex="00D8"/>
  <outline>
    <contour>
      <point x="368" y="-103" type="line"/>
      <point x="2128" y="2005" type="line"/>
      <point x="1938" y="2147" type="line"/>
      <point x="178" y="39" type="line"/>
    </contour>
    <component base="O" yOffset="-1"/>
  </outline>
</glyph>
<glyph name="Thorn" format="2">
  <advance width="1926"/>
  <unicode hex="00DE"/>
  <outline>
    <contour>
      <point x="367" y="2048" type="line"/>
      <point x="27" y="0" type="line"/>
      <point x="522" y="0" type="line"/>
      <point x="862" y="2048" type="line"/>
    </contour>
    <contour>
      <point x="536" y="1688" type="line"/>
      <point x="474" y="1314" type="line"/>
      <point x="1009" y="1314" type="line" smooth="yes"/>
      <point x="1242" y="1314"/>
      <point x="1307" y="1181"/>
      <point x="1286" y="1045" type="curve" smooth="yes"/>
      <point x="1262" y="912"/>
      <point x="1154" y="783"/>
      <point x="921" y="783" type="curve" smooth="yes"/>
      <point x="386" y="783" type="line"/>
      <point x="325" y="413" type="line"/>
      <point x="859" y="413" type="line" smooth="yes"/>
      <point x="1372" y="413"/>
      <point x="1698" y="677"/>
      <point x="1759" y="1049" type="curve" smooth="yes"/>
      <point x="1822" y="1421"/>
      <point x="1583" y="1688"/>
      <point x="1070" y="1688" type="curve" smooth="yes"/>
    </contour>
  </outline>
</glyph>
<glyph name="germandbls" format="2">
  <advance width="1921"/>
  <unicode hex="00DF"/>
  <outline>
    <contour>
      <point x="27" y="0" type="line"/>
      <point x="516" y="0" type="line"/>
      <point x="752" y="1418" type="line" smooth="yes"/>
      <point x="778" y="1575"/>
      <point x="899" y="1674"/>
      <point x="1066" y="1674" type="curve" smooth="yes"/>
      <point x="1226" y="1674"/>
      <point x="1307" y="1578"/>
      <point x="1282" y="1442" type="curve" smooth="yes"/>
      <point x="1261" y="1317"/>
      <point x="1162" y="1219"/>
      <point x="1035" y="1219" type="curve" smooth="yes"/>
      <point x="936" y="1219" type="line"/>
      <point x="878" y="851" type="line"/>
      <point x="1029" y="851" type="line" smooth="yes"/>
      <point x="1218" y="851"/>
      <point x="1321" y="762"/>
      <point x="1298" y="618" type="curve" smooth="yes"/>
      <point x="1278" y="479"/>
      <point x="1152" y="390"/>
      <point x="984" y="390" type="curve" smooth="yes"/>
      <point x="791" y="390" type="line"/>
      <point x="726" y="0" type="line"/>
      <point x="1011" y="0" type="line" smooth="yes"/>
      <point x="1411" y="0"/>
      <point x="1721" y="192"/>
      <point x="1786" y="564" type="curve" smooth="yes"/>
      <point x="1834" y="853"/>
      <point x="1704" y="1064"/>
      <point x="1438" y="1080" type="curve"/>
      <point x="1442" y="1103" type="line"/>
      <point x="1630" y="1150"/>
      <point x="1762" y="1306"/>
      <point x="1794" y="1513" type="curve" smooth="yes"/>
      <point x="1857" y="1891"/>
      <point x="1532" y="2076"/>
      <point x="1114" y="2076" type="curve" smooth="yes"/>
      <point x="662" y="2076"/>
      <point x="335" y="1862"/>
      <point x="276" y="1502" type="curve" smooth="yes"/>
    </contour>
  </outline>
</glyph>
<glyph name="ae" format="2">
  <advance width="2562"/>
  <unicode hex="00E6"/>
  <outline>
    <contour>
      <point x="1641" y="-29" type="curve" smooth="yes"/>
      <point x="2001" y="-29"/>
      <point x="2304" y="166"/>
      <point x="2413" y="468" type="curve"/>
      <point x="1966" y="481" type="line"/>
      <point x="1910" y="378"/>
      <point x="1800" y="324"/>
      <point x="1674" y="324" type="curve" smooth="yes"/>
      <point x="1486" y="324"/>
      <point x="1392" y="449"/>
      <point x="1422" y="637" type="curve" smooth="yes"/>
      <point x="1469" y="926" type="line" smooth="yes"/>
      <point x="1499" y="1082"/>
      <point x="1641" y="1203"/>
      <point x="1806" y="1203" type="curve" smooth="yes"/>
      <point x="1966" y="1203"/>
      <point x="2063" y="1091"/>
      <point x="2038" y="934" type="curve"/>
      <point x="1200" y="934" type="line"/>
      <point x="1155" y="650" type="line"/>
      <point x="2448" y="650" type="line"/>
      <point x="2467" y="772" type="line" smooth="yes"/>
      <point x="2550" y="1277"/>
      <point x="2290" y="1556"/>
      <point x="1855" y="1556" type="curve" smooth="yes"/>
      <point x="1612" y="1556"/>
      <point x="1409" y="1467"/>
      <point x="1240" y="1248" type="curve"/>
      <point x="1114" y="298" type="line"/>
      <point x="1166" y="82"/>
      <point x="1374" y="-29"/>
    </contour>
    <contour>
      <point x="662" y="294" type="curve" smooth="yes"/>
      <point x="547" y="294"/>
      <point x="478" y="350"/>
      <point x="494" y="450" type="curve" smooth="yes"/>
      <point x="509" y="550"/>
      <point x="598" y="609"/>
      <point x="742" y="630" type="curve" smooth="yes"/>
      <point x="832" y="645"/>
      <point x="950" y="663"/>
      <point x="1008" y="692" type="curve"/>
      <point x="985" y="546" type="line" smooth="yes"/>
      <point x="959" y="396"/>
      <point x="817" y="294"/>
    </contour>
    <contour>
      <point x="488" y="-26" type="curve" smooth="yes"/>
      <point x="746" y="-26"/>
      <point x="1006" y="70"/>
      <point x="1123" y="242" type="curve"/>
      <point x="1153" y="242" type="line"/>
      <point x="1369" y="1326" type="line" smooth="yes"/>
      <point x="1322" y="1487"/>
      <point x="1167" y="1556"/>
      <point x="968" y="1556" type="curve" smooth="yes"/>
      <point x="541" y="1556"/>
      <point x="277" y="1348"/>
      <point x="190" y="1068" type="curve"/>
      <point x="638" y="1052" type="line"/>
      <point x="674" y="1151"/>
      <point x="767" y="1210"/>
      <point x="895" y="1210" type="curve" smooth="yes"/>
      <point x="1015" y="1210"/>
      <point x="1081" y="1152"/>
      <point x="1065" y="1049" type="curve" smooth="yes"/>
      <point x="1065" y="1044" type="line" smooth="yes"/>
      <point x="1048" y="951"/>
      <point x="945" y="930"/>
      <point x="677" y="907" type="curve" smooth="yes"/>
      <point x="362" y="881"/>
      <point x="84" y="766"/>
      <point x="27" y="426" type="curve" smooth="yes"/>
      <point x="-24" y="123"/>
      <point x="161" y="-26"/>
    </contour>
  </outline>
</glyph>
<glyph name="eth" format="2">
  <advance width="1603"/>
  <unicode hex="00F0"/>
  <outline>
    <contour>
      <point x="1441" y="1855" type="line"/>
      <point x="1349" y="2093" type="line"/>
      <point x="404" y="1642" type="line"/>
      <point x="495" y="1405" type="line"/>
    </contour>
    <contour>
      <point x="668" y="-32" type="curve" smooth="yes"/>
      <point x="1088" y="-32"/>
      <point x="1417" y="256"/>
      <point x="1497" y="752" type="curve" smooth="yes"/>
      <point x="1613" y="1449"/>
      <point x="1198" y="1944"/>
      <point x="766" y="2176" type="curve"/>
      <point x="503" y="1877" type="line"/>
      <point x="805" y="1687"/>
      <point x="933" y="1588"/>
      <point x="1045" y="1356" type="curve"/>
      <point x="1025" y="1356" type="line"/>
      <point x="951" y="1444"/>
      <point x="806" y="1443"/>
      <point x="686" y="1418" type="curve" smooth="yes"/>
      <point x="445" y="1357"/>
      <point x="159" y="1114"/>
      <point x="90" y="704" type="curve" smooth="yes"/>
      <point x="22" y="276"/>
      <point x="243" y="-32"/>
    </contour>
    <contour>
      <point x="752" y="340" type="curve" smooth="yes"/>
      <point x="598" y="340"/>
      <point x="513" y="442"/>
      <point x="557" y="707" type="curve" smooth="yes"/>
      <point x="598" y="976"/>
      <point x="719" y="1065"/>
      <point x="870" y="1065" type="curve" smooth="yes"/>
      <point x="1020" y="1065"/>
      <point x="1115" y="983"/>
      <point x="1072" y="710" type="curve" smooth="yes"/>
      <point x="1027" y="449"/>
      <point x="910" y="340"/>
    </contour>
  </outline>
</glyph>
<glyph name="divide" format="2">
  <advance width="1933"/>
  <unicode hex="00F7"/>
  <outline>
    <contour>
      <point x="1726" y="1014" type="line"/>
      <point x="286" y="1014" type="line"/>
      <point x="225" y="637" type="line"/>
      <point x="1665" y="637" type="line"/>
    </contour>
    <contour>
      <point x="864" y="-5" type="curve" smooth="yes"/>
      <point x="994" y="-5"/>
      <point x="1114" y="99"/>
      <point x="1135" y="230" type="curve" smooth="yes"/>
      <point x="1161" y="388"/>
      <point x="1057" y="518"/>
      <point x="899" y="518" type="curve" smooth="yes"/>
      <point x="768" y="518"/>
      <point x="646" y="417"/>
      <point x="624" y="287" type="curve" smooth="yes"/>
      <point x="598" y="128"/>
      <point x="705" y="-5"/>
    </contour>
    <contour>
      <point x="1055" y="1134" type="curve" smooth="yes"/>
      <point x="1185" y="1134"/>
      <point x="1304" y="1238"/>
      <point x="1323" y="1368" type="curve" smooth="yes"/>
      <point x="1347" y="1527"/>
      <point x="1245" y="1656"/>
      <point x="1087" y="1656" type="curve" smooth="yes"/>
      <point x="956" y="1656"/>
      <point x="834" y="1555"/>
      <point x="811" y="1426" type="curve" smooth="yes"/>
      <point x="784" y="1267"/>
      <point x="896" y="1134"/>
    </contour>
  </outline>
</glyph>
<glyph name="oslash" format="2">
  <advance width="1750"/>
  <unicode hex="00F8"/>
  <outline>
    <contour>
      <point x="275" y="-103" type="line"/>
      <point x="1652" y="1485" type="line"/>
      <point x="1466" y="1627" type="line"/>
      <point x="88" y="39" type="line"/>
    </contour>
    <component base="o"/>
  </outline>
</glyph>
<glyph name="thorn" format="2">
  <advance width="1729"/>
  <unicode hex="00FE"/>
  <outline>
    <contour>
      <point x="367" y="2048" type="line"/>
      <point x="-69" y="-576" type="line"/>
      <point x="420" y="-576" type="line"/>
      <point x="567" y="307" type="line"/>
      <point x="460" y="739" type="line"/>
      <point x="731" y="1284" type="line"/>
      <point x="856" y="2048" type="line"/>
    </contour>
    <contour>
      <point x="550" y="1382" type="line"/>
      <point x="345" y="146" type="line"/>
      <point x="557" y="146" type="line"/>
      <point x="594" y="27"/>
      <point x="720" y="-22"/>
      <point x="881" y="-22" type="curve" smooth="yes"/>
      <point x="1214" y="-22"/>
      <point x="1541" y="241"/>
      <point x="1626" y="767" type="curve" smooth="yes"/>
      <point x="1717" y="1309"/>
      <point x="1462" y="1556"/>
      <point x="1147" y="1556" type="curve" smooth="yes"/>
      <point x="976" y="1556"/>
      <point x="833" y="1497"/>
      <point x="762" y="1382" type="curve"/>
    </contour>
    <contour>
      <point x="1166" y="768" type="curve" smooth="yes"/>
      <point x="1124" y="507"/>
      <point x="999" y="359"/>
      <point x="798" y="359" type="curve" smooth="yes"/>
      <point x="579" y="359"/>
      <point x="553" y="551"/>
      <point x="589" y="768" type="curve" smooth="yes"/>
      <point x="626" y="990"/>
      <point x="719" y="1174"/>
      <point x="933" y="1174" type="curve" smooth="yes"/>
      <point x="1134" y="1174"/>
      <point x="1210" y="1028"/>
    </contour>
  </outline>
</glyph>
<glyph name="Hbar" format="2">
  <advance width="2313"/>
  <unicode hex="0126"/>
  <outline>
    <contour>
      <point x="2381" y="1718" type="line"/>
      <point x="244" y="1718" type="line"/>
      <point x="202" y="1466" type="line"/>
      <point x="2339" y="1466" type="line"/>
    </contour>
    <component base="H" xOffset="100"/>
  </outline>
</glyph>
<glyph name="idotless" format="2">
  <advance width="799"/>
  <unicode hex="0131"/>
  <outline>
    <contour>
      <point x="27" y="0" type="line"/>
      <point x="516" y="0" type="line"/>
      <point x="772" y="1536" type="line"/>
      <point x="283" y="1536" type="line"/>
    </contour>
  </outline>
</glyph>
<glyph name="kgreenlandic" format="2">
  <advance width="1926"/>
  <unicode hex="0138"/>
  <outline>
    <contour>
      <point x="780" y="1488" type="line"/>
      <point x="309" y="1488" type="line"/>
      <point x="61" y="0" type="line"/>
      <point x="532" y="0" type="line"/>
    </contour>
    <contour>
      <point x="1842" y="1488" type="line"/>
      <point x="1245" y="1488" type="line"/>
      <point x="820" y="963" type="line"/>
      <point x="572" y="963" type="line"/>
      <point x="550" y="506" type="line"/>
      <point x="990" y="506" type="line"/>
    </contour>
    <contour>
      <point x="1009" y="0" type="line"/>
      <point x="1610" y="0" type="line"/>
      <point x="1214" y="794" type="line"/>
      <point x="757" y="601" type="line"/>
    </contour>
  </outline>
</glyph>
<glyph name="Lslash" format="2">
  <advance width="1670"/>
  <unicode hex="0141"/>
  <outline>
    <contour>
      <point x="1077" y="1338" type="line"/>
      <point x="76" y="1078" type="line"/>
      <point x="41" y="825" type="line"/>
      <point x="1042" y="1081" type="line"/>
    </contour>
    <component base="L" xOffset="115"/>
  </outline>
</glyph>
<glyph name="Eng" format="2">
  <advance width="2053"/>
  <unicode hex="014A"/>
  <outline>
    <contour>
      <point x="1350" y="0" type="line"/>
      <point x="1341" y="-64" type="line" smooth="yes"/>
      <point x="1318" y="-185"/>
      <point x="1215" y="-250"/>
      <point x="1071" y="-250" type="curve" smooth="yes"/>
      <point x="1011" y="-250"/>
      <point x="948" y="-242"/>
      <point x="902" y="-232" type="curve"/>
      <point x="842" y="-593" type="line"/>
      <point x="890" y="-608"/>
      <point x="951" y="-618"/>
      <point x="999" y="-618" type="curve" smooth="yes"/>
      <point x="1409" y="-618"/>
      <point x="1696" y="-484"/>
      <point x="1760" y="-55" type="curve" smooth="yes"/>
      <point x="1770" y="0" type="line"/>
    </contour>
    <component base="N"/>
  </outline>
</glyph>
<glyph name="eng" format="2">
  <advance width="1811"/>
  <unicode hex="014B"/>
  <outline>
    <contour>
      <point x="1023" y="0" type="line"/>
      <point x="1014" y="-49" type="line" smooth="yes"/>
      <point x="993" y="-160"/>
      <point x="928" y="-206"/>
      <point x="816" y="-206" type="curve" smooth="yes"/>
      <point x="762" y="-206"/>
      <point x="718" y="-198"/>
      <point x="676" y="-188" type="curve"/>
      <point x="574" y="-583" type="line"/>
      <point x="650" y="-598"/>
      <point x="728" y="-602"/>
      <point x="811" y="-602" type="curve" smooth="yes"/>
      <point x="1173" y="-602"/>
      <point x="1405" y="-454"/>
      <point x="1497" y="-71" type="curve" smooth="yes"/>
      <point x="1512" y="0" type="line"/>
    </contour>
    <component base="n"/>
  </outline>
</glyph>
<glyph name="OE" format="2">
  <advance width="2927"/>
  <unicode hex="0152"/>
  <note>
!post:RemoveOverlap
</note>
  <outline>
    <contour>
      <point x="946" y="0" type="curve" smooth="yes"/>
      <point x="1405" y="0" type="line"/>
      <point x="1474" y="402" type="line"/>
      <point x="1015" y="402" type="line" smooth="yes"/>
      <point x="757" y="402"/>
      <point x="599" y="563"/>
      <point x="675" y="1021" type="curve" smooth="yes"/>
      <point x="750" y="1476"/>
      <point x="961" y="1646"/>
      <point x="1218" y="1646" type="curve" smooth="yes"/>
      <point x="1677" y="1646" type="line"/>
      <point x="1745" y="2048" type="line"/>
      <point x="1286" y="2048" type="line" smooth="yes"/>
      <point x="754" y="2048"/>
      <point x="287" y="1704"/>
      <point x="176" y="1021" type="curve" smooth="yes"/>
      <point x="64" y="342"/>
      <point x="414" y="0"/>
    </contour>
    <component base="E" xOffset="1191"/>
  </outline>
</glyph>
<glyph name="longs" format="2">
  <advance width="835"/>
  <unicode hex="017F"/>
  <outline>
    <contour>
      <point x="342" y="0" type="line"/>
      <point x="607" y="1605" type="line"/>
      <point x="625" y="1714"/>
      <point x="703" y="1766"/>
      <point x="829" y="1766" type="curve" smooth="yes"/>
      <point x="895" y="1766"/>
      <point x="926" y="1762"/>
      <point x="967" y="1754" type="curve"/>
      <point x="1061" y="2112" type="line"/>
      <point x="980" y="2128"/>
      <point x="906" y="2140"/>
      <point x="830" y="2140" type="curve" smooth="yes"/>
      <point x="447" y="2140"/>
      <point x="194" y="1954"/>
      <point x="136" y="1605" type="curve"/>
      <point x="-130" y="0" type="line"/>
    </contour>
  </outline>
</glyph>
<glyph name="Bhook" format="2">
  <advance width="2500"/>
  <unicode hex="0181"/>
  <outline>
    <contour>
      <point x="1211" y="1649" type="line"/>
      <point x="1276" y="2048" type="line"/>
      <point x="945" y="2048" type="line" smooth="yes"/>
      <point x="547" y="2048"/>
      <point x="262" y="1835"/>
      <point x="206" y="1480" type="curve" smooth="yes"/>
      <point x="170" y="1258" type="line"/>
      <point x="607" y="1258" type="line"/>
      <point x="629" y="1391" type="line" smooth="yes"/>
      <point x="646" y="1513"/>
      <point x="712" y="1649"/>
      <point x="881" y="1649" type="curve" smooth="yes"/>
    </contour>
    <component base="B" xOffset="630"/>
  </outline>
</glyph>
<glyph name="Btopbar" format="2">
  <advance width="1846"/>
  <unicode hex="0182"/>
  <outline>
    <contour>
      <point x="27" y="0" type="line"/>
      <point x="792" y="0" type="line" smooth="yes"/>
      <point x="1294" y="0"/>
      <point x="1662" y="274"/>
      <point x="1729" y="671" type="curve" smooth="yes"/>
      <point x="1794" y="1069"/>
      <point x="1513" y="1326"/>
      <point x="1014" y="1326" type="curve" smooth="yes"/>
      <point x="743" y="1326" type="line"/>
      <point x="794" y="1646" type="line"/>
      <point x="1698" y="1646" type="line"/>
      <point x="1766" y="2048" type="line"/>
      <point x="367" y="2048" type="line"/>
    </contour>
    <contour>
      <point x="586" y="392" type="line"/>
      <point x="678" y="942" type="line"/>
      <point x="949" y="942" type="line" smooth="yes"/>
      <point x="1165" y="942"/>
      <point x="1264" y="826"/>
      <point x="1238" y="675" type="curve" smooth="yes"/>
      <point x="1212" y="517"/>
      <point x="1074" y="392"/>
      <point x="857" y="392" type="curve" smooth="yes"/>
    </contour>
  </outline>
</glyph>
<glyph name="Tonesix" format="2">
  <advance width="2274"/>
  <unicode hex="0184"/>
  <outline>
    <contour>
      <point x="1147" y="2048" type="line"/>
      <point x="250" y="2048" type="line"/>
      <point x="182" y="1646" type="line"/>
      <point x="1079" y="1646" type="line"/>
    </contour>
    <contour>
      <point x="939" y="1326" type="line"/>
      <point x="874" y="942" type="line"/>
      <point x="1330" y="942" type="line"/>
      <point x="1546" y="942"/>
      <point x="1645" y="826"/>
      <point x="1620" y="675" type="curve"/>
      <point x="1594" y="517"/>
      <point x="1454" y="392"/>
      <point x="1238" y="392" type="curve"/>
      <point x="968" y="392" type="line"/>
      <point x="1243" y="2048" type="line"/>
      <point x="749" y="2048" type="line"/>
      <point x="409" y="0" type="line"/>
      <point x="1174" y="0" type="line"/>
      <point x="1674" y="0"/>
      <point x="2043" y="274"/>
      <point x="2110" y="671" type="curve"/>
      <point x="2176" y="1069"/>
      <point x="1895" y="1326"/>
      <point x="1395" y="1326" type="curve"/>
    </contour>
  </outline>
</glyph>
<glyph name="tonesix" format="2">
  <advance width="1917"/>
  <unicode hex="0185"/>
  <outline>
    <contour>
      <point x="610" y="2112" type="line"/>
      <point x="296" y="1890" type="line"/>
      <point x="257" y="1656" type="line"/>
      <point x="498" y="1440" type="line"/>
      <point x="571" y="1440" type="line"/>
      <point x="683" y="2112" type="line"/>
    </contour>
    <contour>
      <point x="768" y="1382" type="line"/>
      <point x="563" y="146" type="line"/>
      <point x="775" y="146" type="line"/>
      <point x="807" y="30"/>
      <point x="926" y="-22"/>
      <point x="1099" y="-22" type="curve" smooth="yes"/>
      <point x="1430" y="-22"/>
      <point x="1757" y="241"/>
      <point x="1845" y="767" type="curve" smooth="yes"/>
      <point x="1933" y="1309"/>
      <point x="1678" y="1556"/>
      <point x="1362" y="1556" type="curve" smooth="yes"/>
      <point x="1214" y="1556"/>
      <point x="1055" y="1506"/>
      <point x="980" y="1382" type="curve"/>
    </contour>
    <contour>
      <point x="1385" y="768" type="curve" smooth="yes"/>
      <point x="1340" y="510"/>
      <point x="1215" y="359"/>
      <point x="1017" y="359" type="curve" smooth="yes"/>
      <point x="795" y="359"/>
      <point x="769" y="551"/>
      <point x="807" y="768" type="curve" smooth="yes"/>
      <point x="842" y="987"/>
      <point x="932" y="1174"/>
      <point x="1151" y="1174" type="curve" smooth="yes"/>
      <point x="1350" y="1174"/>
      <point x="1426" y="1025"/>
    </contour>
    <contour>
      <point x="586" y="2048" type="line"/>
      <point x="246" y="0" type="line"/>
      <point x="730" y="0" type="line"/>
      <point x="781" y="307" type="line"/>
      <point x="678" y="739" type="line"/>
      <point x="950" y="1284" type="line"/>
      <point x="1074" y="2048" type="line"/>
    </contour>
  </outline>
</glyph>
<glyph name="Oopen" format="2">
  <advance width="2141"/>
  <unicode hex="0186"/>
  <outline>
    <contour>
      <point x="886" y="-28" type="curve" smooth="yes"/>
      <point x="1453" y="-28"/>
      <point x="1942" y="363"/>
      <point x="2055" y="1050" type="curve"/>
      <point x="2165" y="1717"/>
      <point x="1814" y="2076"/>
      <point x="1282" y="2076" type="curve" smooth="yes"/>
      <point x="772" y="2076"/>
      <point x="352" y="1796"/>
      <point x="221" y="1306" type="curve"/>
      <point x="715" y="1306" type="line"/>
      <point x="773" y="1513"/>
      <point x="934" y="1642"/>
      <point x="1150" y="1642" type="curve" smooth="yes"/>
      <point x="1456" y="1642"/>
      <point x="1611" y="1402"/>
      <point x="1543" y="998" type="curve"/>
      <point x="1478" y="604"/>
      <point x="1270" y="406"/>
      <point x="996" y="406" type="curve" smooth="yes"/>
      <point x="764" y="406"/>
      <point x="622" y="526"/>
      <point x="620" y="720" type="curve"/>
      <point x="122" y="720" type="line"/>
      <point x="98" y="358"/>
      <point x="334" y="-28"/>
    </contour>
  </outline>
</glyph>
<glyph name="Chook" format="2">
  <advance width="2415"/>
  <unicode hex="0187"/>
  <outline>
    <contour>
      <point x="2099" y="1306" type="line"/>
      <point x="2121" y="1450" type="line" smooth="yes"/>
      <point x="2150" y="1655"/>
      <point x="2333" y="1722"/>
      <point x="2460" y="1722" type="curve"/>
      <point x="2496" y="1722"/>
      <point x="2562" y="1718"/>
      <point x="2597" y="1717" type="curve"/>
      <point x="2661" y="2109" type="line"/>
      <point x="2581" y="2121"/>
      <point x="2517" y="2121"/>
      <point x="2439" y="2121" type="curve" smooth="yes"/>
      <point x="2078" y="2121"/>
      <point x="1719" y="1913"/>
      <point x="1658" y="1523" type="curve" smooth="yes"/>
      <point x="1623" y="1306" type="line"/>
    </contour>
    <component base="C"/>
  </outline>
</glyph>
<glyph name="Dhook" format="2">
  <advance width="2689"/>
  <unicode hex="018A"/>
  <outline>
    <contour>
      <point x="167" y="1258" type="line"/>
      <point x="604" y="1258" type="line"/>
      <point x="626" y="1391" type="line" smooth="yes"/>
      <point x="645" y="1513"/>
      <point x="704" y="1626"/>
      <point x="871" y="1626" type="curve" smooth="yes"/>
      <point x="1202" y="1626" type="line"/>
      <point x="1273" y="2048" type="line"/>
      <point x="942" y="2048" type="line" smooth="yes"/>
      <point x="546" y="2048"/>
      <point x="260" y="1835"/>
      <point x="203" y="1480" type="curve" smooth="yes"/>
    </contour>
    <component base="D" xOffset="633"/>
  </outline>
</glyph>
<glyph name="Dtopbar" format="2">
  <advance width="1926"/>
  <unicode hex="018B"/>
  <outline>
    <contour>
      <point x="1631" y="0" type="line"/>
      <point x="1973" y="2052" type="line"/>
      <point x="574" y="2052" type="line"/>
      <point x="510" y="1657" type="line"/>
      <point x="1422" y="1657" type="line"/>
      <point x="1368" y="1327" type="line"/>
      <point x="1090" y="1327" type="line" smooth="yes"/>
      <point x="589" y="1327"/>
      <point x="218" y="1066"/>
      <point x="155" y="671" type="curve" smooth="yes"/>
      <point x="89" y="277"/>
      <point x="366" y="0"/>
      <point x="867" y="0" type="curve" smooth="yes"/>
    </contour>
    <contour>
      <point x="1211" y="388" type="line"/>
      <point x="933" y="388" type="line" smooth="yes"/>
      <point x="713" y="388"/>
      <point x="616" y="517"/>
      <point x="642" y="675" type="curve" smooth="yes"/>
      <point x="667" y="826"/>
      <point x="804" y="942"/>
      <point x="1024" y="942" type="curve" smooth="yes"/>
      <point x="1302" y="942" type="line"/>
    </contour>
  </outline>
</glyph>
<glyph name="deltaturn" format="2">
  <advance width="1952"/>
  <unicode hex="018D"/>
  <outline>
    <contour>
      <point x="1338" y="-516" type="line"/>
      <point x="1375" y="-282" type="line"/>
      <point x="1310" y="-200"/>
      <point x="1121" y="22"/>
      <point x="1019" y="113" type="curve"/>
      <point x="1040" y="113"/>
      <point x="1066" y="113"/>
      <point x="1071" y="114" type="curve" smooth="yes"/>
      <point x="1373" y="165"/>
      <point x="1667" y="428"/>
      <point x="1732" y="820" type="curve" smooth="yes"/>
      <point x="1736" y="848" type="line" smooth="yes"/>
      <point x="1802" y="1232"/>
      <point x="1580" y="1516"/>
      <point x="1102" y="1516" type="curve" smooth="yes"/>
      <point x="622" y="1516"/>
      <point x="306" y="1203"/>
      <point x="238" y="784" type="curve" smooth="yes"/>
      <point x="234" y="756" type="line" smooth="yes"/>
      <point x="186" y="463"/>
      <point x="338" y="227"/>
      <point x="576" y="16" type="curve" smooth="yes"/>
      <point x="682" y="-75"/>
      <point x="754" y="-113"/>
      <point x="794" y="-144" type="curve"/>
      <point x="228" y="-144" type="line"/>
      <point x="166" y="-516" type="line"/>
    </contour>
    <contour>
      <point x="1254" y="756" type="line"/>
      <point x="1214" y="526"/>
      <point x="1114" y="342"/>
      <point x="905" y="342" type="curve" smooth="yes"/>
      <point x="883" y="342"/>
      <point x="864" y="343"/>
      <point x="843" y="352" type="curve"/>
      <point x="742" y="414"/>
      <point x="666" y="553"/>
      <point x="701" y="756" type="curve" smooth="yes"/>
      <point x="705" y="784" type="line" smooth="yes"/>
      <point x="737" y="974"/>
      <point x="823" y="1142"/>
      <point x="1040" y="1142" type="curve" smooth="yes"/>
      <point x="1272" y="1142"/>
      <point x="1287" y="954"/>
      <point x="1258" y="784" type="curve" smooth="yes"/>
    </contour>
  </outline>
</glyph>
<glyph name="Schwa" format="2">
  <advance width="2192"/>
  <unicode hex="018F"/>
  <outline>
    <contour>
      <point x="970" y="-28" type="curve" smooth="yes"/>
      <point x="1482" y="-28"/>
      <point x="1934" y="342"/>
      <point x="2023" y="873" type="curve" smooth="yes"/>
      <point x="2062" y="1123" type="line" smooth="yes"/>
      <point x="2153" y="1654"/>
      <point x="1867" y="2032"/>
      <point x="1208" y="2032" type="curve" smooth="yes"/>
      <point x="909" y="2032"/>
      <point x="584" y="1962"/>
      <point x="520" y="1935" type="curve"/>
      <point x="523" y="1526" type="line"/>
      <point x="642" y="1557"/>
      <point x="847" y="1598"/>
      <point x="1108" y="1598" type="curve" smooth="yes"/>
      <point x="1527" y="1598"/>
      <point x="1622" y="1382"/>
      <point x="1576" y="1123" type="curve" smooth="yes"/>
      <point x="1537" y="873" type="line" smooth="yes"/>
      <point x="1492" y="612"/>
      <point x="1321" y="402"/>
      <point x="1042" y="402" type="curve" smooth="yes"/>
      <point x="734" y="402"/>
      <point x="639" y="548"/>
      <point x="668" y="737" type="curve" smooth="yes"/>
      <point x="676" y="778" type="line"/>
      <point x="1639" y="778" type="line"/>
      <point x="1704" y="1176" type="line"/>
      <point x="255" y="1176" type="line"/>
      <point x="214" y="924" type="line" smooth="yes"/>
      <point x="117" y="341"/>
      <point x="375" y="-28"/>
    </contour>
  </outline>
</glyph>
<glyph name="Epsilon1" format="2">
  <advance width="1923"/>
  <unicode hex="0190"/>
  <outline>
    <contour>
      <point x="1246" y="960" type="line"/>
      <point x="1287" y="1206" type="line"/>
      <point x="1028" y="1206" type="line" smooth="yes"/>
      <point x="842" y="1206"/>
      <point x="761" y="1282"/>
      <point x="788" y="1445" type="curve" smooth="yes"/>
      <point x="809" y="1559"/>
      <point x="913" y="1640"/>
      <point x="1118" y="1640" type="curve" smooth="yes"/>
      <point x="1281" y="1640"/>
      <point x="1386" y="1588"/>
      <point x="1362" y="1458" type="curve"/>
      <point x="1847" y="1458" type="line"/>
      <point x="1909" y="1814"/>
      <point x="1594" y="2032"/>
      <point x="1183" y="2032" type="curve" smooth="yes"/>
      <point x="715" y="2032"/>
      <point x="364" y="1832"/>
      <point x="302" y="1460" type="curve" smooth="yes"/>
      <point x="252" y="1157"/>
      <point x="520" y="960"/>
      <point x="906" y="960" type="curve"/>
    </contour>
    <contour>
      <point x="926" y="1080" type="line"/>
      <point x="482" y="1080"/>
      <point x="176" y="896"/>
      <point x="118" y="560" type="curve" smooth="yes"/>
      <point x="55" y="159"/>
      <point x="361" y="-28"/>
      <point x="843" y="-28" type="curve" smooth="yes"/>
      <point x="1227" y="-28"/>
      <point x="1663" y="148"/>
      <point x="1730" y="556" type="curve"/>
      <point x="1241" y="556" type="line"/>
      <point x="1223" y="437"/>
      <point x="1099" y="360"/>
      <point x="908" y="360" type="curve" smooth="yes"/>
      <point x="719" y="360"/>
      <point x="589" y="418"/>
      <point x="611" y="575" type="curve" smooth="yes"/>
      <point x="646" y="781"/>
      <point x="776" y="838"/>
      <point x="966" y="838" type="curve" smooth="yes"/>
      <point x="1226" y="838" type="line"/>
      <point x="1266" y="1080" type="line"/>
    </contour>
  </outline>
</glyph>
<glyph name="Fhook" format="2">
  <advance width="1735"/>
  <unicode hex="0191"/>
  <outline>
    <contour>
      <point x="117" y="0" type="line"/>
      <point x="106" y="-70" type="line" smooth="yes"/>
      <point x="87" y="-179"/>
      <point x="-22" y="-202"/>
      <point x="-123" y="-202" type="curve" smooth="yes"/>
      <point x="-152" y="-202"/>
      <point x="-193" y="-204"/>
      <point x="-214" y="-200" type="curve"/>
      <point x="-274" y="-567" type="line"/>
      <point x="-227" y="-576"/>
      <point x="-119" y="-576"/>
      <point x="-67" y="-576" type="curve" smooth="yes"/>
      <point x="217" y="-576"/>
      <point x="525" y="-510"/>
      <point x="599" y="-71" type="curve" smooth="yes"/>
      <point x="611" y="0" type="line"/>
    </contour>
    <component base="F" xOffset="90"/>
  </outline>
</glyph>
<glyph name="florin" format="2">
  <advance width="1398"/>
  <unicode hex="0192"/>
  <outline>
    <contour>
      <point x="1323" y="1488" type="line"/>
      <point x="1018" y="1488" type="line"/>
      <point x="1035" y="1605" type="line" smooth="yes"/>
      <point x="1055" y="1714"/>
      <point x="1139" y="1770"/>
      <point x="1256" y="1770" type="curve" smooth="yes"/>
      <point x="1328" y="1770"/>
      <point x="1364" y="1765"/>
      <point x="1402" y="1757" type="curve"/>
      <point x="1495" y="2114" type="line"/>
      <point x="1423" y="2127"/>
      <point x="1351" y="2140"/>
      <point x="1261" y="2140" type="curve" smooth="yes"/>
      <point x="883" y="2140"/>
      <point x="626" y="1954"/>
      <point x="566" y="1605" type="curve" smooth="yes"/>
      <point x="549" y="1488" type="line"/>
      <point x="323" y="1488" type="line"/>
      <point x="268" y="1153" type="line"/>
      <point x="494" y="1153" type="line"/>
      <point x="297" y="-38" type="line" smooth="yes"/>
      <point x="277" y="-153"/>
      <point x="242" y="-226"/>
      <point x="110" y="-226" type="curve" smooth="yes"/>
      <point x="71" y="-226"/>
      <point x="17" y="-219"/>
      <point x="-16" y="-210" type="curve"/>
      <point x="-98" y="-580" type="line"/>
      <point x="-15" y="-596"/>
      <point x="48" y="-600"/>
      <point x="122" y="-600" type="curve" smooth="yes"/>
      <point x="467" y="-600"/>
      <point x="706" y="-403"/>
      <point x="766" y="-38" type="curve" smooth="yes"/>
      <point x="962" y="1153" type="line"/>
      <point x="1268" y="1153" type="line"/>
    </contour>
  </outline>
</glyph>
<glyph name="Ghook" format="2">
  <advance width="2410"/>
  <unicode hex="0193"/>
  <outline>
    <contour>
      <point x="2103" y="1379" type="line"/>
      <point x="2162" y="1723" type="line" smooth="yes"/>
      <point x="2190" y="1893"/>
      <point x="2329" y="1922"/>
      <point x="2473" y="1922" type="curve" smooth="yes"/>
      <point x="2517" y="1922"/>
      <point x="2558" y="1914"/>
      <point x="2602" y="1910" type="curve"/>
      <point x="2666" y="2296" type="line"/>
      <point x="2590" y="2314"/>
      <point x="2522" y="2324"/>
      <point x="2448" y="2324" type="curve" smooth="yes"/>
      <point x="2087" y="2324"/>
      <point x="1721" y="2112"/>
      <point x="1656" y="1723" type="curve" smooth="yes"/>
      <point x="1598" y="1379" type="line"/>
    </contour>
    <component base="G"/>
  </outline>
</glyph>
<glyph name="Gamma1" format="2">
  <advance width="2205"/>
  <unicode hex="0194"/>
  <outline>
    <contour>
      <point x="349" y="2000" type="line"/>
      <point x="953" y="169" type="line" smooth="yes"/>
      <point x="1010" y="-4"/>
      <point x="1027" y="-93"/>
      <point x="1015" y="-173" type="curve" smooth="yes"/>
      <point x="1007" y="-222"/>
      <point x="993" y="-274"/>
      <point x="930" y="-274" type="curve" smooth="yes"/>
      <point x="871" y="-274"/>
      <point x="870" y="-229"/>
      <point x="878" y="-173" type="curve" smooth="yes"/>
      <point x="893" y="-86"/>
      <point x="948" y="1"/>
      <point x="1056" y="169" type="curve" smooth="yes"/>
      <point x="2261" y="2000" type="line"/>
      <point x="1692" y="2000" type="line"/>
      <point x="970" y="785" type="line" smooth="yes"/>
      <point x="713" y="356"/>
      <point x="410" y="-59"/>
      <point x="386" y="-192" type="curve" smooth="yes"/>
      <point x="337" y="-490"/>
      <point x="588" y="-600"/>
      <point x="874" y="-600" type="curve" smooth="yes"/>
      <point x="1161" y="-600"/>
      <point x="1436" y="-490"/>
      <point x="1485" y="-192" type="curve" smooth="yes"/>
      <point x="1508" y="-58"/>
      <point x="1361" y="362"/>
      <point x="1246" y="785" type="curve" smooth="yes"/>
      <point x="914" y="2000" type="line"/>
    </contour>
  </outline>
</glyph>
<glyph name="hv" format="2">
  <advance width="2805"/>
  <unicode hex="0195"/>
  <note>
Note: Must be split in two, or conversion to quadratic curves will fail.
</note>
  <outline>
    <contour>
      <point x="30" y="0" type="line"/>
      <point x="519" y="0" type="line"/>
      <point x="665" y="876" type="line" smooth="yes"/>
      <point x="695" y="1051"/>
      <point x="817" y="1155"/>
      <point x="971" y="1155" type="curve" smooth="yes"/>
      <point x="1128" y="1155"/>
      <point x="1202" y="1054"/>
      <point x="1174" y="883" type="curve" smooth="yes"/>
      <point x="1154" y="768" type="line"/>
      <point x="1643" y="768" type="line"/>
      <point x="1679" y="979" type="line" smooth="yes"/>
      <point x="1736" y="1327"/>
      <point x="1562" y="1556"/>
      <point x="1242" y="1556" type="curve" smooth="yes"/>
      <point x="1010" y="1556"/>
      <point x="829" y="1443"/>
      <point x="730" y="1254" type="curve"/>
      <point x="713" y="1254" type="line"/>
      <point x="843" y="2048" type="line"/>
      <point x="370" y="2048" type="line"/>
    </contour>
    <contour>
      <point x="1678" y="-28" type="curve" smooth="yes"/>
      <point x="2279" y="-28"/>
      <point x="2596" y="446"/>
      <point x="2751" y="1379" type="curve"/>
      <point x="2778" y="1536" type="line"/>
      <point x="2289" y="1536" type="line"/>
      <point x="2262" y="1379" type="line" smooth="yes"/>
      <point x="2154" y="726"/>
      <point x="1994" y="372"/>
      <point x="1762" y="372" type="curve" smooth="yes"/>
      <point x="1659" y="372"/>
      <point x="1588" y="438"/>
      <point x="1615" y="595" type="curve"/>
      <point x="1643" y="768" type="line"/>
      <point x="1154" y="768" type="line"/>
      <point x="1126" y="595" type="line" smooth="yes"/>
      <point x="1062" y="214"/>
      <point x="1249" y="-28"/>
    </contour>
  </outline>
</glyph>
<glyph name="Iota1" format="2">
  <advance width="1123"/>
  <unicode hex="0196"/>
  <outline>
    <contour>
      <point x="838" y="2112" type="line"/>
      <point x="366" y="2112" type="line"/>
      <point x="101" y="507" type="line" smooth="yes"/>
      <point x="43" y="162"/>
      <point x="233" y="-28"/>
      <point x="614" y="-28" type="curve" smooth="yes"/>
      <point x="692" y="-28"/>
      <point x="774" y="-16"/>
      <point x="853" y="0" type="curve"/>
      <point x="882" y="362" type="line"/>
      <point x="838" y="354"/>
      <point x="807" y="349"/>
      <point x="736" y="349" type="curve" smooth="yes"/>
      <point x="612" y="349"/>
      <point x="554" y="402"/>
      <point x="572" y="507" type="curve" smooth="yes"/>
    </contour>
  </outline>
</glyph>
<glyph name="Khook" format="2">
  <advance width="2106"/>
  <unicode hex="0198"/>
  <outline>
    <contour>
      <point x="27" y="0" type="line"/>
      <point x="522" y="0" type="line"/>
      <point x="602" y="485" type="line"/>
      <point x="893" y="744" type="line"/>
      <point x="1336" y="0" type="line"/>
      <point x="1927" y="0" type="line"/>
      <point x="1268" y="1095" type="line"/>
      <point x="1796" y="1557" type="line" smooth="yes"/>
      <point x="1897" y="1644"/>
      <point x="1970" y="1689"/>
      <point x="2081" y="1630" type="curve"/>
      <point x="2290" y="1977" type="line"/>
      <point x="2027" y="2141"/>
      <point x="1751" y="2093"/>
      <point x="1486" y="1861" type="curve" smooth="yes"/>
      <point x="750" y="1211" type="line"/>
      <point x="722" y="1211" type="line"/>
      <point x="862" y="2048" type="line"/>
      <point x="367" y="2048" type="line"/>
    </contour>
  </outline>
</glyph>
<glyph name="khook" format="2">
  <advance width="1666"/>
  <unicode hex="0199"/>
  <outline>
    <contour>
      <point x="1013" y="0" type="line"/>
      <point x="1540" y="0" type="line"/>
      <point x="1090" y="880" type="line"/>
      <point x="1770" y="1536" type="line"/>
      <point x="1208" y="1536" type="line"/>
      <point x="711" y="1049" type="line"/>
      <point x="691" y="1049" type="line"/>
      <point x="758" y="1456" type="line"/>
      <point x="269" y="1456" type="line"/>
      <point x="27" y="0" type="line"/>
      <point x="516" y="0" type="line"/>
      <point x="581" y="383" type="line"/>
      <point x="740" y="532" type="line"/>
    </contour>
    <contour>
      <point x="731" y="1298" type="line"/>
      <point x="776" y="1571" type="line" smooth="yes"/>
      <point x="795" y="1677"/>
      <point x="909" y="1702"/>
      <point x="1010" y="1702" type="curve" smooth="yes"/>
      <point x="1049" y="1702"/>
      <point x="1086" y="1698"/>
      <point x="1124" y="1694" type="curve"/>
      <point x="1182" y="2061" type="line"/>
      <point x="1128" y="2066"/>
      <point x="1044" y="2076"/>
      <point x="941" y="2076" type="curve" smooth="yes"/>
      <point x="670" y="2076"/>
      <point x="361" y="2011"/>
      <point x="287" y="1571" type="curve" smooth="yes"/>
      <point x="242" y="1298" type="line"/>
    </contour>
  </outline>
</glyph>
<glyph name="lambdabar" format="2">
  <advance width="1917"/>
  <unicode hex="019B"/>
  <outline>
    <contour>
      <point x="1329" y="1866" type="line"/>
      <point x="436" y="1612" type="line"/>
      <point x="390" y="1326" type="line"/>
      <point x="1279" y="1585" type="line"/>
    </contour>
    <contour>
      <point x="967" y="883" type="line"/>
      <point x="1162" y="1536" type="line"/>
      <point x="839" y="1535" type="line"/>
      <point x="21" y="0" type="line"/>
      <point x="523" y="0" type="line"/>
    </contour>
    <contour>
      <point x="806" y="2146" type="curve"/>
      <point x="739" y="2146"/>
      <point x="609" y="2134"/>
      <point x="532" y="2114" type="curve"/>
      <point x="486" y="1765" type="line"/>
      <point x="527" y="1769"/>
      <point x="553" y="1769"/>
      <point x="577" y="1769" type="curve" smooth="yes"/>
      <point x="682" y="1769"/>
      <point x="738" y="1728"/>
      <point x="757" y="1650" type="curve" smooth="yes"/>
      <point x="856" y="1309" type="line"/>
      <point x="1058" y="297" type="line" smooth="yes"/>
      <point x="1096" y="116"/>
      <point x="1209" y="-27"/>
      <point x="1464" y="-27" type="curve" smooth="yes"/>
      <point x="1535" y="-27"/>
      <point x="1593" y="-29"/>
      <point x="1637" y="-21" type="curve"/>
      <point x="1700" y="346" type="line"/>
      <point x="1690" y="346"/>
      <point x="1673" y="346"/>
      <point x="1652" y="346" type="curve" smooth="yes"/>
      <point x="1571" y="346"/>
      <point x="1543" y="441"/>
      <point x="1522" y="513" type="curve" smooth="yes"/>
      <point x="1168" y="1905" type="line" smooth="yes"/>
      <point x="1128" y="2058"/>
      <point x="1015" y="2146"/>
    </contour>
  </outline>
</glyph>
<glyph name="mcapturn" format="2">
  <advance width="2733"/>
  <unicode hex="019C"/>
  <outline>
    <contour>
      <point x="1980" y="372" type="line"/>
      <point x="1970" y="0" type="line"/>
      <point x="2390" y="0" type="line"/>
      <point x="2722" y="2004" type="line"/>
      <point x="2251" y="2004" type="line"/>
    </contour>
    <contour>
      <point x="2094" y="692" type="line"/>
      <point x="2062" y="496"/>
      <point x="1954" y="347"/>
      <point x="1729" y="347" type="curve" smooth="yes"/>
      <point x="1601" y="347"/>
      <point x="1539" y="424"/>
      <point x="1566" y="576" type="curve"/>
      <point x="1801" y="2004" type="line"/>
      <point x="1337" y="2004" type="line"/>
      <point x="1102" y="576" type="line"/>
      <point x="1029" y="134"/>
      <point x="1203" y="-28"/>
      <point x="1518" y="-28" type="curve" smooth="yes"/>
      <point x="1897" y="-28"/>
      <point x="2160" y="280"/>
      <point x="2228" y="696" type="curve"/>
    </contour>
    <contour>
      <point x="1180" y="692" type="line"/>
      <point x="1145" y="493"/>
      <point x="1040" y="347"/>
      <point x="814" y="347" type="curve" smooth="yes"/>
      <point x="686" y="347"/>
      <point x="626" y="424"/>
      <point x="652" y="576" type="curve" smooth="yes"/>
      <point x="887" y="2004" type="line"/>
      <point x="422" y="2004" type="line"/>
      <point x="187" y="576" type="line" smooth="yes"/>
      <point x="114" y="138"/>
      <point x="253" y="-28"/>
      <point x="603" y="-28" type="curve" smooth="yes"/>
      <point x="995" y="-28"/>
      <point x="1250" y="270"/>
      <point x="1321" y="696" type="curve"/>
    </contour>
  </outline>
</glyph>
<glyph name="Nhook" format="2">
  <advance width="2114"/>
  <unicode hex="019D"/>
  <outline>
    <contour>
      <point x="89" y="0" type="line"/>
      <point x="77" y="-70" type="line" smooth="yes"/>
      <point x="60" y="-177"/>
      <point x="-49" y="-202"/>
      <point x="-154" y="-202" type="curve"/>
      <point x="-179" y="-202"/>
      <point x="-220" y="-204"/>
      <point x="-243" y="-200" type="curve"/>
      <point x="-304" y="-567" type="line"/>
      <point x="-255" y="-575"/>
      <point x="-141" y="-577"/>
      <point x="-82" y="-577" type="curve"/>
      <point x="192" y="-577"/>
      <point x="494" y="-516"/>
      <point x="570" y="-71" type="curve" smooth="yes"/>
      <point x="583" y="0" type="line"/>
    </contour>
    <component base="N" xOffset="62"/>
  </outline>
</glyph>
<glyph name="Ohorn" format="2">
  <advance width="2327"/>
  <unicode hex="01A0"/>
  <outline>
    <contour>
      <point x="2234" y="2132" type="line"/>
      <point x="2191" y="1878"/>
      <point x="2117" y="1729"/>
      <point x="1928" y="1729" type="curve"/>
      <point x="1890" y="1501" type="line"/>
      <point x="2259" y="1501"/>
      <point x="2455" y="1734"/>
      <point x="2521" y="2132" type="curve"/>
    </contour>
    <component base="O"/>
  </outline>
</glyph>
<glyph name="ohorn" format="2">
  <advance width="1813"/>
  <unicode hex="01A1"/>
  <outline>
    <contour>
      <point x="1689" y="1617" type="line"/>
      <point x="1650" y="1379"/>
      <point x="1577" y="1238"/>
      <point x="1360" y="1238" type="curve"/>
      <point x="1329" y="1066" type="line"/>
      <point x="1697" y="1066"/>
      <point x="1896" y="1268"/>
      <point x="1954" y="1617" type="curve"/>
    </contour>
    <component base="o"/>
  </outline>
</glyph>
<glyph name="OI" format="2">
  <advance width="2733"/>
  <unicode hex="01A2"/>
  <outline>
    <contour>
      <point x="1963" y="1227" type="line"/>
      <point x="1493" y="1227" type="line"/>
      <point x="1365" y="443" type="line"/>
      <point x="1307" y="406"/>
      <point x="1212" y="360"/>
      <point x="1036" y="360" type="curve" smooth="yes"/>
      <point x="710" y="360"/>
      <point x="628" y="594"/>
      <point x="685" y="945" type="curve" smooth="yes"/>
      <point x="702" y="1032" type="line"/>
      <point x="203" y="1028" type="line"/>
      <point x="190" y="945" type="line" smooth="yes"/>
      <point x="88" y="327"/>
      <point x="394" y="-28"/>
      <point x="943" y="-28" type="curve" smooth="yes"/>
      <point x="1392" y="-28"/>
      <point x="1680" y="138"/>
      <point x="1801" y="250" type="curve"/>
    </contour>
    <contour>
      <point x="2051" y="1754" type="line"/>
      <point x="1966" y="1870"/>
      <point x="1735" y="2032"/>
      <point x="1283" y="2032" type="curve" smooth="yes"/>
      <point x="734" y="2032"/>
      <point x="313" y="1676"/>
      <point x="210" y="1059" type="curve" smooth="yes"/>
      <point x="194" y="959" type="line"/>
      <point x="689" y="956" type="line"/>
      <point x="706" y="1059" type="line" smooth="yes"/>
      <point x="765" y="1430"/>
      <point x="917" y="1643"/>
      <point x="1250" y="1643" type="curve" smooth="yes"/>
      <point x="1403" y="1643"/>
      <point x="1495" y="1614"/>
      <point x="1550" y="1563" type="curve"/>
      <point x="1418" y="778" type="line"/>
      <point x="1892" y="784" type="line"/>
    </contour>
    <contour>
      <point x="2775" y="2004" type="line"/>
      <point x="2426" y="2004" type="line"/>
      <point x="1784" y="1726" type="line"/>
      <point x="1699" y="1203" type="line"/>
      <point x="2215" y="1428" type="line"/>
      <point x="1886" y="-572" type="line"/>
      <point x="2351" y="-572" type="line"/>
    </contour>
  </outline>
</glyph>
<glyph name="oi" format="2">
  <advance width="2198"/>
  <unicode hex="01A3"/>
  <outline>
    <contour>
      <point x="761" y="349" type="curve" smooth="yes"/>
      <point x="541" y="349"/>
      <point x="544" y="534"/>
      <point x="578" y="729" type="curve" smooth="yes"/>
      <point x="583" y="759" type="line" smooth="yes"/>
      <point x="614" y="954"/>
      <point x="674" y="1142"/>
      <point x="887" y="1142" type="curve"/>
      <point x="976" y="1142"/>
      <point x="1027" y="1112"/>
      <point x="1056" y="1056" type="curve"/>
      <point x="1016" y="809" type="line"/>
      <point x="1478" y="770" type="line"/>
      <point x="1536" y="1134" type="line"/>
      <point x="1484" y="1292"/>
      <point x="1297" y="1516"/>
      <point x="965" y="1516" type="curve" smooth="yes"/>
      <point x="480" y="1516"/>
      <point x="189" y="1190"/>
      <point x="118" y="759" type="curve" smooth="yes"/>
      <point x="114" y="729" type="line" smooth="yes"/>
      <point x="38" y="294"/>
      <point x="223" y="-28"/>
      <point x="709" y="-28" type="curve"/>
      <point x="1070" y="-28"/>
      <point x="1268" y="127"/>
      <point x="1400" y="310" type="curve"/>
      <point x="1495" y="873" type="line"/>
      <point x="1027" y="873" type="line"/>
      <point x="950" y="412" type="line"/>
      <point x="905" y="370"/>
      <point x="839" y="349"/>
    </contour>
    <contour>
      <point x="2203" y="1488" type="line"/>
      <point x="1891" y="1488" type="line"/>
      <point x="1359" y="1282" type="line"/>
      <point x="1290" y="863" type="line"/>
      <point x="1647" y="978" type="line"/>
      <point x="1393" y="-572" type="line"/>
      <point x="1863" y="-572" type="line"/>
    </contour>
  </outline>
</glyph>
<glyph name="Phook" format="2">
  <advance width="2466"/>
  <unicode hex="01A4"/>
  <note>
!post:RemoveOverlap
</note>
  <outline>
    <contour>
      <point x="607" y="1258" type="line"/>
      <point x="629" y="1391" type="line" smooth="yes"/>
      <point x="648" y="1513"/>
      <point x="711" y="1649"/>
      <point x="881" y="1649" type="curve" smooth="yes"/>
      <point x="1211" y="1649" type="line"/>
      <point x="1276" y="2048" type="line"/>
      <point x="945" y="2048" type="line" smooth="yes"/>
      <point x="547" y="2048"/>
      <point x="263" y="1835"/>
      <point x="206" y="1480" type="curve" smooth="yes"/>
      <point x="170" y="1258" type="line"/>
    </contour>
    <component base="P" xOffset="630"/>
  </outline>
</glyph>
<glyph name="phook" format="2">
  <advance width="1802"/>
  <unicode hex="01A5"/>
  <outline>
    <contour>
      <point x="767" y="1536" type="line"/>
      <point x="777" y="1610"/>
      <point x="825" y="1645"/>
      <point x="932" y="1642" type="curve" smooth="yes"/>
      <point x="998" y="1638"/>
      <point x="1061" y="1625"/>
      <point x="1082" y="1618" type="curve"/>
      <point x="1136" y="1930" type="line"/>
      <point x="1090" y="1941"/>
      <point x="1006" y="1958"/>
      <point x="895" y="1958" type="curve" smooth="yes"/>
      <point x="514" y="1958"/>
      <point x="332" y="1842"/>
      <point x="283" y="1536" type="curve"/>
    </contour>
    <component base="p"/>
  </outline>
</glyph>
<glyph name="YR" format="2">
  <advance width="2186"/>
  <unicode hex="01A6"/>
  <outline>
    <contour>
      <point x="316" y="1864" type="line"/>
      <point x="802" y="1864" type="line"/>
      <point x="850" y="2144" type="line"/>
      <point x="364" y="2144" type="line"/>
    </contour>
    <contour>
      <point x="337" y="2004" type="line"/>
      <point x="5" y="0" type="line"/>
      <point x="494" y="0" type="line"/>
      <point x="762" y="1612" type="line"/>
      <point x="1084" y="1612" type="line" smooth="yes"/>
      <point x="1278" y="1612"/>
      <point x="1367" y="1512"/>
      <point x="1338" y="1346" type="curve" smooth="yes"/>
      <point x="1312" y="1183"/>
      <point x="1192" y="1084"/>
      <point x="998" y="1084" type="curve" smooth="yes"/>
      <point x="494" y="1084" type="line"/>
      <point x="432" y="696" type="line"/>
      <point x="1114" y="696" type="line"/>
      <point x="1290" y="791" type="line"/>
      <point x="1571" y="890"/>
      <point x="1776" y="1044"/>
      <point x="1833" y="1397" type="curve" smooth="yes"/>
      <point x="1897" y="1792"/>
      <point x="1627" y="2004"/>
      <point x="1149" y="2004" type="curve" smooth="yes"/>
    </contour>
    <contour>
      <point x="1326" y="-477" type="line"/>
      <point x="1848" y="-477" type="line"/>
      <point x="1851" y="-458" type="line"/>
      <point x="1350" y="886" type="line"/>
      <point x="836" y="886" type="line"/>
    </contour>
  </outline>
</glyph>
<glyph name="eshlooprev" format="2">
  <advance width="1942"/>
  <unicode hex="01AA"/>
  <outline>
    <contour>
      <point x="1041" y="1336" type="line"/>
      <point x="817" y="-13" type="line" smooth="yes"/>
      <point x="754" y="-395"/>
      <point x="941" y="-605"/>
      <point x="1298" y="-605" type="curve" smooth="yes"/>
      <point x="1380" y="-605"/>
      <point x="1452" y="-600"/>
      <point x="1526" y="-584" type="curve"/>
      <point x="1584" y="-218" type="line"/>
      <point x="1530" y="-226"/>
      <point x="1490" y="-230"/>
      <point x="1447" y="-230" type="curve" smooth="yes"/>
      <point x="1323" y="-230"/>
      <point x="1262" y="-156"/>
      <point x="1285" y="-13" type="curve" smooth="yes"/>
      <point x="1551" y="1583" type="line"/>
    </contour>
    <contour>
      <point x="330" y="1583" type="curve" smooth="yes"/>
      <point x="273" y="1254"/>
      <point x="506" y="987"/>
      <point x="840" y="987" type="curve" smooth="yes"/>
      <point x="1175" y="987"/>
      <point x="1497" y="1257"/>
      <point x="1551" y="1583" type="curve" smooth="yes"/>
      <point x="1603" y="1907"/>
      <point x="1373" y="2179"/>
      <point x="1038" y="2179" type="curve" smooth="yes"/>
      <point x="700" y="2179"/>
      <point x="382" y="1907"/>
    </contour>
    <contour>
      <point x="910" y="1380" type="curve" smooth="yes"/>
      <point x="789" y="1380"/>
      <point x="712" y="1449"/>
      <point x="737" y="1587" type="curve" smooth="yes"/>
      <point x="757" y="1718"/>
      <point x="854" y="1788"/>
      <point x="975" y="1788" type="curve" smooth="yes"/>
      <point x="1081" y="1788"/>
      <point x="1161" y="1722"/>
      <point x="1141" y="1587" type="curve" smooth="yes"/>
      <point x="1116" y="1449"/>
      <point x="1018" y="1380"/>
    </contour>
  </outline>
</glyph>
<glyph name="tpalatalhook" format="2">
  <advance width="1128"/>
  <unicode hex="01AB"/>
  <outline>
    <contour>
      <point x="671" y="331" type="line"/>
      <point x="605" y="-71" type="line" smooth="yes"/>
      <point x="580" y="-221"/>
      <point x="431" y="-250"/>
      <point x="330" y="-250" type="curve" smooth="yes"/>
      <point x="282" y="-250"/>
      <point x="247" y="-246"/>
      <point x="212" y="-242" type="curve"/>
      <point x="164" y="-551" type="line"/>
      <point x="227" y="-566"/>
      <point x="282" y="-573"/>
      <point x="354" y="-573" type="curve" smooth="yes"/>
      <point x="657" y="-573"/>
      <point x="871" y="-393"/>
      <point x="924" y="-71" type="curve" smooth="yes"/>
      <point x="1002" y="398" type="line"/>
    </contour>
    <component base="t"/>
  </outline>
</glyph>
<glyph name="Thook" format="2">
  <advance width="2000"/>
  <unicode hex="01AC"/>
  <note>
!post:RemoveOverlap
</note>
  <outline>
    <contour>
      <point x="1257" y="2048" type="line"/>
      <point x="913" y="2048" type="line" smooth="yes"/>
      <point x="510" y="2048"/>
      <point x="265" y="1833"/>
      <point x="206" y="1478" type="curve" smooth="yes"/>
      <point x="167" y="1255" type="line"/>
      <point x="570" y="1255" type="line"/>
      <point x="595" y="1389" type="line" smooth="yes"/>
      <point x="615" y="1514"/>
      <point x="673" y="1646"/>
      <point x="845" y="1646" type="curve" smooth="yes"/>
      <point x="1189" y="1646" type="line"/>
    </contour>
    <contour>
      <point x="2124" y="2048" type="line"/>
      <point x="962" y="2048" type="line"/>
      <point x="894" y="1646" type="line"/>
      <point x="946" y="1646" type="line"/>
      <point x="674" y="0" type="line"/>
      <point x="1162" y="0" type="line"/>
      <point x="1434" y="1646" type="line"/>
      <point x="2056" y="1646" type="line"/>
    </contour>
  </outline>
</glyph>
<glyph name="thook" format="2">
  <advance width="1411"/>
  <unicode hex="01AD"/>
  <outline>
    <contour>
      <point x="966" y="1401" type="line"/>
      <point x="1010" y="1672" type="line" smooth="yes"/>
      <point x="1035" y="1826"/>
      <point x="1184" y="1859"/>
      <point x="1290" y="1859" type="curve" smooth="yes"/>
      <point x="1335" y="1859"/>
      <point x="1377" y="1852"/>
      <point x="1401" y="1847" type="curve"/>
      <point x="1451" y="2156" type="line"/>
      <point x="1386" y="2171"/>
      <point x="1324" y="2179"/>
      <point x="1210" y="2179" type="curve" smooth="yes"/>
      <point x="896" y="2179"/>
      <point x="615" y="2099"/>
      <point x="546" y="1672" type="curve" smooth="yes"/>
      <point x="501" y="1401" type="line"/>
    </contour>
    <contour>
      <point x="1239" y="1488" type="line"/>
      <point x="311" y="1488" type="line"/>
      <point x="256" y="1153" type="line"/>
      <point x="1184" y="1153" type="line"/>
    </contour>
    <contour>
      <point x="530" y="1585" type="line"/>
      <point x="338" y="431" type="line"/>
      <point x="286" y="106"/>
      <point x="439" y="-28"/>
      <point x="739" y="-28" type="curve" smooth="yes"/>
      <point x="835" y="-28"/>
      <point x="923" y="-18"/>
      <point x="1014" y="13" type="curve"/>
      <point x="1070" y="358" type="line"/>
      <point x="1036" y="354"/>
      <point x="1003" y="351"/>
      <point x="950" y="351" type="curve" smooth="yes"/>
      <point x="838" y="351"/>
      <point x="794" y="382"/>
      <point x="813" y="492" type="curve"/>
      <point x="995" y="1585" type="line"/>
    </contour>
  </outline>
</glyph>
<glyph name="Trthook" format="2">
  <advance width="1907"/>
  <unicode hex="01AE"/>
  <outline>
    <contour>
      <point x="1070" y="0" type="line"/>
      <point x="582" y="0" type="line"/>
      <point x="570" y="-69" type="line" smooth="yes"/>
      <point x="497" y="-509"/>
      <point x="776" y="-576"/>
      <point x="1054" y="-576" type="curve"/>
      <point x="1274" y="-576" type="line"/>
      <point x="1335" y="-202" type="line"/>
      <point x="1246" y="-202" type="line"/>
      <point x="1144" y="-202"/>
      <point x="1039" y="-177"/>
      <point x="1058" y="-71" type="curve" smooth="yes"/>
    </contour>
    <component base="T"/>
  </outline>
</glyph>
<glyph name="uhorn" format="2">
  <advance width="2075"/>
  <unicode hex="01B0"/>
  <outline>
    <contour>
      <point x="1998" y="1626" type="line"/>
      <point x="1961" y="1393"/>
      <point x="1903" y="1276"/>
      <point x="1611" y="1276" type="curve"/>
      <point x="1577" y="1077" type="line"/>
      <point x="2022" y="1077"/>
      <point x="2197" y="1265"/>
      <point x="2257" y="1626" type="curve"/>
    </contour>
    <component base="u" xOffset="10"/>
  </outline>
</glyph>
<glyph name="Upsilon2" format="2">
  <advance width="2208"/>
  <unicode hex="01B1"/>
  <outline>
    <contour>
      <point x="139" y="926" type="curve" smooth="yes"/>
      <point x="46" y="368"/>
      <point x="393" y="-28"/>
      <point x="972" y="-28" type="curve" smooth="yes"/>
      <point x="1551" y="-28"/>
      <point x="2027" y="368"/>
      <point x="2120" y="926" type="curve"/>
      <point x="2174" y="1254"/>
      <point x="2072" y="1487"/>
      <point x="1870" y="1633" type="curve"/>
      <point x="1871" y="1646" type="line"/>
      <point x="2238" y="1646" type="line"/>
      <point x="2306" y="2048" type="line"/>
      <point x="1466" y="2048" type="line"/>
      <point x="1383" y="1544" type="line"/>
      <point x="1570" y="1464"/>
      <point x="1669" y="1240"/>
      <point x="1624" y="971" type="curve" smooth="yes"/>
      <point x="1572" y="646"/>
      <point x="1330" y="409"/>
      <point x="1044" y="409" type="curve" smooth="yes"/>
      <point x="758" y="409"/>
      <point x="596" y="646"/>
      <point x="648" y="971" type="curve"/>
      <point x="693" y="1240"/>
      <point x="870" y="1464"/>
      <point x="1082" y="1544" type="curve"/>
      <point x="1166" y="2048" type="line"/>
      <point x="326" y="2048" type="line"/>
      <point x="258" y="1646" type="line"/>
      <point x="625" y="1646" type="line"/>
      <point x="621" y="1630" type="line"/>
      <point x="374" y="1486"/>
      <point x="194" y="1254"/>
    </contour>
  </outline>
</glyph>
<glyph name="Vcursive" format="2">
  <advance width="1917"/>
  <unicode hex="01B2"/>
  <outline>
    <contour>
      <point x="830" y="-28" type="curve" smooth="yes"/>
      <point x="1318" y="-28"/>
      <point x="1688" y="234"/>
      <point x="1766" y="702" type="curve" smooth="yes"/>
      <point x="1886" y="1437" type="line" smooth="yes"/>
      <point x="1951" y="1818"/>
      <point x="1766" y="2029"/>
      <point x="1406" y="2029" type="curve" smooth="yes"/>
      <point x="1318" y="2029"/>
      <point x="1258" y="2023"/>
      <point x="1178" y="2005" type="curve"/>
      <point x="1114" y="1618" type="line"/>
      <point x="1168" y="1626"/>
      <point x="1211" y="1630"/>
      <point x="1250" y="1630" type="curve" smooth="yes"/>
      <point x="1390" y="1630"/>
      <point x="1419" y="1585"/>
      <point x="1393" y="1437" type="curve" smooth="yes"/>
      <point x="1274" y="702" type="line" smooth="yes"/>
      <point x="1238" y="484"/>
      <point x="1125" y="360"/>
      <point x="894" y="360" type="curve" smooth="yes"/>
      <point x="662" y="360"/>
      <point x="584" y="484"/>
      <point x="619" y="702" type="curve" smooth="yes"/>
      <point x="834" y="2004" type="line"/>
      <point x="348" y="2004" type="line"/>
      <point x="134" y="702" type="line" smooth="yes"/>
      <point x="55" y="231"/>
      <point x="348" y="-28"/>
    </contour>
  </outline>
</glyph>
<glyph name="Yhook" format="2">
  <advance width="2302"/>
  <unicode hex="01B3"/>
  <note>
!post:RemoveOverlap
</note>
  <outline>
    <contour>
      <point x="1938" y="1461" type="line"/>
      <point x="1986" y="1522" type="line" smooth="yes"/>
      <point x="2092" y="1665"/>
      <point x="2169" y="1699"/>
      <point x="2310" y="1656" type="curve"/>
      <point x="2473" y="2022" type="line"/>
      <point x="2218" y="2121"/>
      <point x="1897" y="2090"/>
      <point x="1654" y="1764" type="curve" smooth="yes"/>
      <point x="1562" y="1638" type="line"/>
    </contour>
    <contour>
      <point x="1171" y="1143" type="line"/>
      <point x="1219" y="1143" type="line"/>
      <point x="1227" y="1191" type="line"/>
      <point x="1179" y="1191" type="line"/>
    </contour>
    <contour>
      <point x="818" y="2048" type="line"/>
      <point x="285" y="2048" type="line"/>
      <point x="889" y="774" type="line"/>
      <point x="758" y="0" type="line"/>
      <point x="1250" y="0" type="line"/>
      <point x="1380" y="774" type="line"/>
      <point x="1938" y="1461" type="line"/>
      <point x="1562" y="1638" type="line"/>
      <point x="1200" y="1171" type="line"/>
    </contour>
  </outline>
</glyph>
<glyph name="yhook" format="2">
  <advance width="1770"/>
  <unicode hex="01B4"/>
  <outline>
    <contour>
      <point x="1578" y="1269" type="line"/>
      <point x="1608" y="1328" type="line" smooth="yes"/>
      <point x="1654" y="1414"/>
      <point x="1694" y="1462"/>
      <point x="1790" y="1496" type="curve" smooth="yes"/>
      <point x="1820" y="1505"/>
      <point x="1851" y="1507"/>
      <point x="1898" y="1502" type="curve"/>
      <point x="1985" y="1886" type="line"/>
      <point x="1779" y="1898"/>
      <point x="1689" y="1900"/>
      <point x="1574" y="1859" type="curve" smooth="yes"/>
      <point x="1406" y="1808"/>
      <point x="1276" y="1678"/>
      <point x="1198" y="1521" type="curve" smooth="yes"/>
      <point x="1133" y="1385" type="line"/>
    </contour>
    <contour>
      <point x="479" y="-11" type="line" smooth="yes"/>
      <point x="430" y="-122"/>
      <point x="350" y="-208"/>
      <point x="158" y="-208" type="curve"/>
      <point x="145" y="-208"/>
      <point x="128" y="-207"/>
      <point x="99" y="-203" type="curve"/>
      <point x="39" y="-570" type="line"/>
      <point x="114" y="-598"/>
      <point x="139" y="-600"/>
      <point x="230" y="-600" type="curve" smooth="yes"/>
      <point x="576" y="-600"/>
      <point x="787" y="-362"/>
      <point x="856" y="-218" type="curve" smooth="yes"/>
      <point x="1578" y="1269" type="line"/>
      <point x="1133" y="1385" type="line"/>
      <point x="833" y="761" type="line"/>
      <point x="694" y="1536" type="line"/>
      <point x="189" y="1536" type="line"/>
      <point x="509" y="54" type="line"/>
    </contour>
  </outline>
</glyph>
<glyph name="Ezh" format="2">
  <advance width="1936"/>
  <unicode hex="01B7"/>
  <outline>
    <contour>
      <point x="-7" y="204" type="line"/>
      <point x="-70" y="-241"/>
      <point x="263" y="-550"/>
      <point x="742" y="-550" type="curve" smooth="yes"/>
      <point x="1290" y="-550"/>
      <point x="1699" y="-144"/>
      <point x="1778" y="329" type="curve" smooth="yes"/>
      <point x="1838" y="690"/>
      <point x="1699" y="1076"/>
      <point x="1210" y="1125" type="curve"/>
      <point x="1214" y="1145" type="line"/>
      <point x="1953" y="1692" type="line"/>
      <point x="2010" y="2048" type="line"/>
      <point x="410" y="2048" type="line"/>
      <point x="342" y="1638" type="line"/>
      <point x="1338" y="1638" type="line"/>
      <point x="1338" y="1622" type="line"/>
      <point x="727" y="1172" type="line"/>
      <point x="672" y="823" type="line"/>
      <point x="917" y="823" type="line" smooth="yes"/>
      <point x="1174" y="823"/>
      <point x="1310" y="618"/>
      <point x="1266" y="358" type="curve" smooth="yes"/>
      <point x="1229" y="127"/>
      <point x="1065" y="-138"/>
      <point x="815" y="-138" type="curve" smooth="yes"/>
      <point x="635" y="-138"/>
      <point x="466" y="-3"/>
      <point x="491" y="204" type="curve"/>
    </contour>
  </outline>
</glyph>
<glyph name="ezhtail" format="2">
  <advance width="1654"/>
  <unicode hex="01BA"/>
  <outline>
    <contour>
      <point x="349" y="1488" type="line"/>
      <point x="287" y="1114" type="line"/>
      <point x="787" y="1114" type="line"/>
      <point x="484" y="900" type="line"/>
      <point x="440" y="635" type="line"/>
      <point x="758" y="635" type="line"/>
      <point x="1562" y="1230" type="line"/>
      <point x="1606" y="1488" type="line"/>
    </contour>
    <contour>
      <point x="452" y="-154" type="curve" smooth="yes"/>
      <point x="461" y="-87"/>
      <point x="530" y="-40"/>
      <point x="790" y="10" type="curve" smooth="yes"/>
      <point x="1050" y="59"/>
      <point x="1359" y="186"/>
      <point x="1407" y="469" type="curve" smooth="yes"/>
      <point x="1450" y="721"/>
      <point x="1257" y="948"/>
      <point x="857" y="948" type="curve" smooth="yes"/>
      <point x="644" y="948" type="line"/>
      <point x="592" y="635" type="line"/>
      <point x="805" y="635" type="line" smooth="yes"/>
      <point x="909" y="635"/>
      <point x="981" y="581"/>
      <point x="965" y="493" type="curve" smooth="yes"/>
      <point x="950" y="404"/>
      <point x="862" y="372"/>
      <point x="642" y="333" type="curve" smooth="yes"/>
      <point x="266" y="266"/>
      <point x="47" y="132"/>
      <point x="5" y="-137" type="curve" smooth="yes"/>
      <point x="-41" y="-401"/>
      <point x="188" y="-600"/>
      <point x="598" y="-600" type="curve" smooth="yes"/>
      <point x="1038" y="-600"/>
      <point x="1323" y="-334"/>
      <point x="1362" y="-95" type="curve"/>
      <point x="923" y="-95" type="line"/>
      <point x="894" y="-239"/>
      <point x="763" y="-281"/>
      <point x="641" y="-281" type="curve" smooth="yes"/>
      <point x="523" y="-281"/>
      <point x="438" y="-242"/>
    </contour>
  </outline>
</glyph>
<glyph name="Tonefive" format="2">
  <advance width="1827"/>
  <unicode hex="01BC"/>
  <outline>
    <contour>
      <point x="758" y="2048" type="line"/>
      <point x="314" y="2048" type="line"/>
      <point x="249" y="1649" type="line"/>
      <point x="693" y="1649" type="line"/>
    </contour>
    <component base="five" xOffset="64"/>
  </outline>
</glyph>
<glyph name="tonefive" format="2">
  <advance width="1952"/>
  <unicode hex="01BD"/>
  <outline>
    <contour>
      <point x="798" y="629" type="line"/>
      <point x="836" y="654"/>
      <point x="906" y="670"/>
      <point x="1014" y="670" type="curve" smooth="yes"/>
      <point x="1157" y="670"/>
      <point x="1231" y="608"/>
      <point x="1217" y="515" type="curve" smooth="yes"/>
      <point x="1198" y="414"/>
      <point x="1116" y="354"/>
      <point x="967" y="354" type="curve" smooth="yes"/>
      <point x="825" y="354"/>
      <point x="742" y="386"/>
      <point x="745" y="470" type="curve"/>
      <point x="275" y="452" type="line"/>
      <point x="219" y="117"/>
      <point x="534" y="-24"/>
      <point x="906" y="-24" type="curve" smooth="yes"/>
      <point x="1392" y="-24"/>
      <point x="1629" y="188"/>
      <point x="1678" y="477" type="curve" smooth="yes"/>
      <point x="1726" y="786"/>
      <point x="1552" y="969"/>
      <point x="1202" y="967" type="curve" smooth="yes"/>
      <point x="1062" y="966"/>
      <point x="946" y="936"/>
      <point x="876" y="906" type="curve"/>
      <point x="952" y="1127" type="line"/>
      <point x="1671" y="1127" type="line"/>
      <point x="1730" y="1488" type="line"/>
      <point x="632" y="1488" type="line"/>
      <point x="374" y="646" type="line"/>
    </contour>
    <contour>
      <point x="792" y="1488" type="line"/>
      <point x="347" y="1488" type="line"/>
      <point x="288" y="1127" type="line"/>
      <point x="733" y="1127" type="line"/>
    </contour>
  </outline>
</glyph>
<glyph name="glottalstopbarinv" format="2">
  <advance width="1654"/>
  <unicode hex="01BE"/>
  <outline>
    <contour>
      <point x="995" y="422" type="curve" smooth="yes"/>
      <point x="983" y="334"/>
      <point x="891" y="291"/>
      <point x="764" y="291" type="curve" smooth="yes"/>
      <point x="645" y="291"/>
      <point x="529" y="337"/>
      <point x="542" y="478" type="curve"/>
      <point x="103" y="478" type="line"/>
      <point x="67" y="245"/>
      <point x="259" y="-28"/>
      <point x="702" y="-28" type="curve" smooth="yes"/>
      <point x="1113" y="-28"/>
      <point x="1406" y="169"/>
      <point x="1448" y="433" type="curve" smooth="yes"/>
      <point x="1527" y="896"/>
      <point x="995" y="734"/>
      <point x="1059" y="1138" type="curve" smooth="yes"/>
      <point x="1181" y="1863" type="line"/>
      <point x="710" y="1863" type="line"/>
      <point x="588" y="1146" type="line" smooth="yes"/>
      <point x="498" y="582"/>
      <point x="1031" y="633"/>
    </contour>
    <contour>
      <point x="1374" y="1488" type="line"/>
      <point x="446" y="1488" type="line"/>
      <point x="390" y="1153" type="line"/>
      <point x="1318" y="1153" type="line"/>
    </contour>
  </outline>
</glyph>
<glyph name="wynn" format="2">
  <advance width="1939"/>
  <unicode hex="01BF"/>
  <outline>
    <contour>
      <point x="798" y="1204" type="line"/>
      <point x="816" y="1488" type="line"/>
      <point x="375" y="1488" type="line"/>
      <point x="35" y="-572" type="line"/>
      <point x="506" y="-572" type="line"/>
    </contour>
    <contour>
      <point x="687" y="778" type="line"/>
      <point x="725" y="1027"/>
      <point x="815" y="1144"/>
      <point x="1024" y="1144" type="curve" smooth="yes"/>
      <point x="1218" y="1144"/>
      <point x="1246" y="970"/>
      <point x="1213" y="766" type="curve" smooth="yes"/>
      <point x="1208" y="731" type="line" smooth="yes"/>
      <point x="1142" y="338"/>
      <point x="820" y="116"/>
      <point x="407" y="84" type="curve"/>
      <point x="394" y="-283" type="line"/>
      <point x="1138" y="-121"/>
      <point x="1580" y="146"/>
      <point x="1679" y="731" type="curve" smooth="yes"/>
      <point x="1684" y="766" type="line" smooth="yes"/>
      <point x="1758" y="1214"/>
      <point x="1594" y="1516"/>
      <point x="1205" y="1516" type="curve" smooth="yes"/>
      <point x="824" y="1516"/>
      <point x="623" y="1170"/>
      <point x="494" y="753" type="curve"/>
    </contour>
  </outline>
</glyph>
<glyph name="pipe" format="2">
  <advance width="876"/>
  <unicode hex="01C0"/>
  <outline>
    <contour>
      <point x="770" y="2000" type="line"/>
      <point x="511" y="2000" type="line"/>
      <point x="181" y="0" type="line"/>
      <point x="439" y="0" type="line"/>
    </contour>
  </outline>
</glyph>
<glyph name="uni01F6" format="2">
  <advance width="3171"/>
  <unicode hex="01F6"/>
  <outline>
    <contour>
      <point x="2106" y="-28" type="curve" smooth="yes"/>
      <point x="2586" y="-28"/>
      <point x="2930" y="244"/>
      <point x="3006" y="702" type="curve" smooth="yes"/>
      <point x="3134" y="1482" type="line"/>
      <point x="2640" y="1482" type="line"/>
      <point x="2511" y="702" type="line" smooth="yes"/>
      <point x="2475" y="497"/>
      <point x="2352" y="382"/>
      <point x="2174" y="382" type="curve" smooth="yes"/>
      <point x="1995" y="382"/>
      <point x="1905" y="497"/>
      <point x="1941" y="702" type="curve" smooth="yes"/>
      <point x="2163" y="2048" type="line"/>
      <point x="1669" y="2048" type="line"/>
      <point x="1533" y="1226" type="line"/>
      <point x="726" y="1226" type="line"/>
      <point x="862" y="2048" type="line"/>
      <point x="367" y="2048" type="line"/>
      <point x="27" y="0" type="line"/>
      <point x="522" y="0" type="line"/>
      <point x="658" y="823" type="line"/>
      <point x="1465" y="823" type="line"/>
      <point x="1446" y="702" type="line" smooth="yes"/>
      <point x="1371" y="246"/>
      <point x="1626" y="-28"/>
    </contour>
  </outline>
</glyph>
<glyph name="uni01F7" format="2">
  <advance width="2214"/>
  <unicode hex="01F7"/>
  <outline>
    <contour>
      <point x="946" y="2004" type="line"/>
      <point x="462" y="2004" type="line"/>
      <point x="38" y="-572" type="line"/>
      <point x="522" y="-572" type="line"/>
    </contour>
    <contour>
      <point x="361" y="-261" type="line"/>
      <point x="1341" y="0"/>
      <point x="1914" y="478"/>
      <point x="2006" y="1060" type="curve" smooth="yes"/>
      <point x="2018" y="1132" type="line" smooth="yes"/>
      <point x="2115" y="1705"/>
      <point x="1818" y="2032"/>
      <point x="1288" y="2032" type="curve" smooth="yes"/>
      <point x="1078" y="2032"/>
      <point x="886" y="1958"/>
      <point x="782" y="1857" type="curve"/>
      <point x="687" y="1294" type="line"/>
      <point x="783" y="1490"/>
      <point x="1020" y="1643"/>
      <point x="1226" y="1643" type="curve" smooth="yes"/>
      <point x="1574" y="1643"/>
      <point x="1561" y="1366"/>
      <point x="1523" y="1136" type="curve" smooth="yes"/>
      <point x="1508" y="1060" type="line" smooth="yes"/>
      <point x="1442" y="646"/>
      <point x="1078" y="329"/>
      <point x="426" y="134" type="curve"/>
    </contour>
  </outline>
</glyph>
<glyph name="uni021C" format="2">
  <advance width="1923"/>
  <unicode hex="021C"/>
  <outline>
    <contour>
      <point x="274" y="409" type="line"/>
      <point x="1205" y="630"/>
      <point x="1742" y="894"/>
      <point x="1838" y="1460" type="curve" smooth="yes"/>
      <point x="1898" y="1832"/>
      <point x="1615" y="2029"/>
      <point x="1144" y="2029" type="curve" smooth="yes"/>
      <point x="747" y="2029"/>
      <point x="349" y="1826"/>
      <point x="286" y="1454" type="curve"/>
      <point x="772" y="1454" type="line"/>
      <point x="794" y="1582"/>
      <point x="934" y="1640"/>
      <point x="1079" y="1640" type="curve" smooth="yes"/>
      <point x="1299" y="1640"/>
      <point x="1367" y="1542"/>
      <point x="1342" y="1384" type="curve" smooth="yes"/>
      <point x="1296" y="1107"/>
      <point x="1098" y="987"/>
      <point x="332" y="774" type="curve"/>
    </contour>
    <contour>
      <point x="1004" y="712" type="line"/>
      <point x="1167" y="719"/>
      <point x="1252" y="689"/>
      <point x="1218" y="494" type="curve" smooth="yes"/>
      <point x="1164" y="156"/>
      <point x="804" y="-100"/>
      <point x="170" y="-215" type="curve"/>
      <point x="105" y="-600" type="line"/>
      <point x="942" y="-502"/>
      <point x="1603" y="-121"/>
      <point x="1705" y="483" type="curve" smooth="yes"/>
      <point x="1757" y="808"/>
      <point x="1525" y="1008"/>
      <point x="1121" y="996" type="curve"/>
    </contour>
  </outline>
</glyph>
<glyph name="uni021D" format="2">
  <advance width="1658"/>
  <unicode hex="021D"/>
  <outline>
    <contour>
      <point x="255" y="189" type="line"/>
      <point x="1064" y="406"/>
      <point x="1446" y="656"/>
      <point x="1518" y="1080" type="curve" smooth="yes"/>
      <point x="1565" y="1364"/>
      <point x="1326" y="1516"/>
      <point x="922" y="1516" type="curve" smooth="yes"/>
      <point x="574" y="1516"/>
      <point x="260" y="1344"/>
      <point x="214" y="1053" type="curve"/>
      <point x="684" y="1053" type="line"/>
      <point x="697" y="1138"/>
      <point x="778" y="1171"/>
      <point x="895" y="1171" type="curve" smooth="yes"/>
      <point x="1031" y="1171"/>
      <point x="1052" y="1098"/>
      <point x="1037" y="1000" type="curve" smooth="yes"/>
      <point x="1002" y="809"/>
      <point x="782" y="674"/>
      <point x="310" y="524" type="curve"/>
    </contour>
    <contour>
      <point x="784" y="522" type="line"/>
      <point x="882" y="527"/>
      <point x="969" y="458"/>
      <point x="945" y="295" type="curve" smooth="yes"/>
      <point x="902" y="50"/>
      <point x="688" y="-79"/>
      <point x="182" y="-259" type="curve"/>
      <point x="123" y="-600" type="line"/>
      <point x="836" y="-451"/>
      <point x="1337" y="-174"/>
      <point x="1410" y="257" type="curve" smooth="yes"/>
      <point x="1461" y="581"/>
      <point x="1248" y="715"/>
      <point x="880" y="706" type="curve"/>
    </contour>
  </outline>
</glyph>
<glyph name="uni0220" format="2">
  <advance width="1930"/>
  <unicode hex="0220"/>
  <outline>
    <contour>
      <point x="1514" y="-572" type="line"/>
      <point x="1843" y="1433" type="line" smooth="yes"/>
      <point x="1906" y="1808"/>
      <point x="1645" y="2032"/>
      <point x="1256" y="2032" type="curve" smooth="yes"/>
      <point x="938" y="2032"/>
      <point x="668" y="1858"/>
      <point x="488" y="1682" type="curve"/>
      <point x="414" y="1244" type="line"/>
      <point x="666" y="1524"/>
      <point x="908" y="1660"/>
      <point x="1130" y="1660" type="curve" smooth="yes"/>
      <point x="1341" y="1660"/>
      <point x="1391" y="1566"/>
      <point x="1369" y="1433" type="curve" smooth="yes"/>
      <point x="1040" y="-572" type="line"/>
    </contour>
    <contour>
      <point x="874" y="2004" type="line"/>
      <point x="403" y="2004" type="line"/>
      <point x="71" y="0" type="line"/>
      <point x="542" y="0" type="line"/>
    </contour>
  </outline>
</glyph>
<glyph name="uni0221" format="2">
  <advance width="2018"/>
  <unicode hex="0221"/>
  <outline>
    <contour>
      <point x="1090" y="348" type="line"/>
      <point x="1026" y="-42" type="line"/>
      <point x="974" y="-351"/>
      <point x="1086" y="-576"/>
      <point x="1545" y="-576" type="curve" smooth="yes"/>
      <point x="1904" y="-576"/>
      <point x="2107" y="-441"/>
      <point x="2143" y="-222" type="curve" smooth="yes"/>
      <point x="2182" y="11"/>
      <point x="2010" y="174"/>
      <point x="1646" y="174" type="curve" smooth="yes"/>
      <point x="1434" y="174"/>
      <point x="1261" y="119"/>
      <point x="1080" y="22" type="curve"/>
      <point x="614" y="-291" type="line"/>
      <point x="764" y="-578" type="line"/>
      <point x="1238" y="-262" type="line" smooth="yes"/>
      <point x="1399" y="-160"/>
      <point x="1525" y="-98"/>
      <point x="1605" y="-98" type="curve" smooth="yes"/>
      <point x="1711" y="-96"/>
      <point x="1748" y="-147"/>
      <point x="1739" y="-209" type="curve" smooth="yes"/>
      <point x="1731" y="-266"/>
      <point x="1670" y="-305"/>
      <point x="1602" y="-305" type="curve" smooth="yes"/>
      <point x="1531" y="-305"/>
      <point x="1481" y="-265"/>
      <point x="1495" y="-167" type="curve"/>
      <point x="1578" y="348" type="line"/>
    </contour>
    <component base="d" xOffset="6"/>
  </outline>
</glyph>
<glyph name="uni0222" format="2">
  <advance width="1926"/>
  <unicode hex="0222"/>
  <outline>
    <contour>
      <point x="1040" y="1292" type="line"/>
      <point x="582" y="1292"/>
      <point x="209" y="1090"/>
      <point x="138" y="650" type="curve" smooth="yes"/>
      <point x="66" y="218"/>
      <point x="359" y="-28"/>
      <point x="820" y="-28" type="curve" smooth="yes"/>
      <point x="849" y="-28" type="line" smooth="yes"/>
      <point x="1305" y="-28"/>
      <point x="1678" y="218"/>
      <point x="1751" y="654" type="curve" smooth="yes"/>
      <point x="1822" y="1090"/>
      <point x="1522" y="1292"/>
      <point x="1069" y="1292" type="curve" smooth="yes"/>
    </contour>
    <contour>
      <point x="1010" y="951" type="line"/>
      <point x="1205" y="951"/>
      <point x="1283" y="826"/>
      <point x="1256" y="654" type="curve" smooth="yes"/>
      <point x="1227" y="478"/>
      <point x="1106" y="355"/>
      <point x="911" y="355" type="curve" smooth="yes"/>
      <point x="882" y="355" type="line" smooth="yes"/>
      <point x="690" y="355"/>
      <point x="605" y="478"/>
      <point x="634" y="650" type="curve" smooth="yes"/>
      <point x="661" y="833"/>
      <point x="792" y="951"/>
      <point x="982" y="951" type="curve" smooth="yes"/>
    </contour>
    <contour>
      <point x="1042" y="1344" type="line"/>
      <point x="828" y="1344"/>
      <point x="755" y="1401"/>
      <point x="777" y="1522" type="curve" smooth="yes"/>
      <point x="791" y="1608"/>
      <point x="840" y="1638"/>
      <point x="930" y="1656" type="curve"/>
      <point x="992" y="2032" type="line"/>
      <point x="621" y="2035"/>
      <point x="339" y="1874"/>
      <point x="282" y="1522" type="curve" smooth="yes"/>
      <point x="220" y="1158"/>
      <point x="532" y="1006"/>
      <point x="986" y="1006" type="curve" smooth="yes"/>
      <point x="1020" y="1006" type="line" smooth="yes"/>
      <point x="1470" y="1006"/>
      <point x="1839" y="1158"/>
      <point x="1901" y="1522" type="curve" smooth="yes"/>
      <point x="1958" y="1874"/>
      <point x="1727" y="2035"/>
      <point x="1354" y="2032" type="curve"/>
      <point x="1292" y="1656" type="line"/>
      <point x="1376" y="1638"/>
      <point x="1420" y="1608"/>
      <point x="1406" y="1522" type="curve" smooth="yes"/>
      <point x="1384" y="1391"/>
      <point x="1272" y="1344"/>
      <point x="1075" y="1344" type="curve" smooth="yes"/>
    </contour>
  </outline>
</glyph>
<glyph name="uni0223" format="2">
  <advance width="1923"/>
  <unicode hex="0223"/>
  <outline>
    <contour>
      <point x="1030" y="1262" type="line"/>
      <point x="574" y="1262"/>
      <point x="220" y="1081"/>
      <point x="146" y="641" type="curve" smooth="yes"/>
      <point x="74" y="208"/>
      <point x="360" y="-28"/>
      <point x="817" y="-28" type="curve" smooth="yes"/>
      <point x="846" y="-28" type="line" smooth="yes"/>
      <point x="1299" y="-28"/>
      <point x="1662" y="208"/>
      <point x="1734" y="642" type="curve" smooth="yes"/>
      <point x="1809" y="1081"/>
      <point x="1510" y="1262"/>
      <point x="1059" y="1262" type="curve" smooth="yes"/>
    </contour>
    <contour>
      <point x="1005" y="933" type="line"/>
      <point x="1209" y="933"/>
      <point x="1291" y="814"/>
      <point x="1263" y="642" type="curve" smooth="yes"/>
      <point x="1235" y="468"/>
      <point x="1111" y="349"/>
      <point x="907" y="349" type="curve" smooth="yes"/>
      <point x="878" y="349" type="line" smooth="yes"/>
      <point x="680" y="349"/>
      <point x="589" y="468"/>
      <point x="617" y="641" type="curve" smooth="yes"/>
      <point x="645" y="814"/>
      <point x="778" y="933"/>
      <point x="976" y="933" type="curve" smooth="yes"/>
    </contour>
    <contour>
      <point x="1066" y="1306" type="curve" smooth="yes"/>
      <point x="1035" y="1306" type="line" smooth="yes"/>
      <point x="829" y="1306"/>
      <point x="739" y="1378"/>
      <point x="770" y="1562" type="curve" smooth="yes"/>
      <point x="790" y="1692"/>
      <point x="866" y="1756"/>
      <point x="947" y="1779" type="curve"/>
      <point x="1009" y="2140" type="line"/>
      <point x="641" y="2141"/>
      <point x="362" y="1947"/>
      <point x="299" y="1572" type="curve" smooth="yes"/>
      <point x="228" y="1138"/>
      <point x="530" y="981"/>
      <point x="980" y="981" type="curve" smooth="yes"/>
      <point x="1010" y="981" type="line" smooth="yes"/>
      <point x="1464" y="981"/>
      <point x="1817" y="1138"/>
      <point x="1888" y="1572" type="curve" smooth="yes"/>
      <point x="1951" y="1954"/>
      <point x="1734" y="2141"/>
      <point x="1370" y="2140" type="curve"/>
      <point x="1309" y="1779" type="line"/>
      <point x="1386" y="1756"/>
      <point x="1443" y="1692"/>
      <point x="1423" y="1562" type="curve" smooth="yes"/>
      <point x="1392" y="1382"/>
      <point x="1276" y="1306"/>
    </contour>
  </outline>
</glyph>
<glyph name="uni0224" format="2">
  <advance width="1917"/>
  <unicode hex="0224"/>
  <note>
!post:RemoveOverlap
</note>
  <outline>
    <contour>
      <point x="1039" y="402" type="line"/>
      <point x="971" y="0" type="line"/>
      <point x="1062" y="0" type="line" smooth="yes"/>
      <point x="1242" y="0"/>
      <point x="1257" y="-118"/>
      <point x="1233" y="-254" type="curve"/>
      <point x="1214" y="-368" type="line"/>
      <point x="1614" y="-368" type="line"/>
      <point x="1650" y="-165" type="line"/>
      <point x="1707" y="190"/>
      <point x="1527" y="402"/>
      <point x="1130" y="402" type="curve" smooth="yes"/>
    </contour>
    <contour>
      <point x="1039" y="402" type="line"/>
      <point x="701" y="402" type="line"/>
      <point x="1934" y="1766" type="line"/>
      <point x="1981" y="2048" type="line"/>
      <point x="361" y="2048" type="line"/>
      <point x="293" y="1646" type="line"/>
      <point x="1300" y="1646" type="line"/>
      <point x="68" y="282" type="line"/>
      <point x="20" y="0" type="line"/>
      <point x="971" y="0" type="line"/>
    </contour>
  </outline>
</glyph>
<glyph name="zhook" format="2">
  <advance width="1622"/>
  <unicode hex="0225"/>
  <outline>
    <contour>
      <point x="942" y="-390" type="line"/>
      <point x="1342" y="-390" type="line"/>
      <point x="1376" y="-194" type="line"/>
      <point x="1438" y="166"/>
      <point x="1254" y="377"/>
      <point x="856" y="377" type="curve" smooth="yes"/>
      <point x="693" y="377" type="line"/>
      <point x="1533" y="1268" type="line"/>
      <point x="1578" y="1536" type="line"/>
      <point x="317" y="1536" type="line"/>
      <point x="255" y="1159" type="line"/>
      <point x="914" y="1159" type="line"/>
      <point x="74" y="267" type="line"/>
      <point x="29" y="0" type="line"/>
      <point x="794" y="0" type="line" smooth="yes"/>
      <point x="980" y="0"/>
      <point x="983" y="-154"/>
      <point x="960" y="-279" type="curve" smooth="yes"/>
    </contour>
  </outline>
</glyph>
<glyph name="lcurl" format="2">
  <advance width="1262"/>
  <unicode hex="0234"/>
  <outline>
    <contour>
      <point x="64" y="406" type="line"/>
      <point x="0" y="22" type="line"/>
      <point x="-72" y="-402"/>
      <point x="247" y="-576"/>
      <point x="506" y="-576" type="curve" smooth="yes"/>
      <point x="794" y="-576"/>
      <point x="1010" y="-354"/>
      <point x="1046" y="-145" type="curve" smooth="yes"/>
      <point x="1078" y="62"/>
      <point x="942" y="251"/>
      <point x="685" y="251" type="curve" smooth="yes"/>
      <point x="433" y="251"/>
      <point x="54" y="65"/>
      <point x="-230" y="-102" type="curve" smooth="yes"/>
      <point x="-447" y="-246" type="line"/>
      <point x="-262" y="-514" type="line"/>
      <point x="54" y="-296" type="line" smooth="yes"/>
      <point x="279" y="-147"/>
      <point x="423" y="-70"/>
      <point x="585" y="-70" type="curve" smooth="yes"/>
      <point x="646" y="-70"/>
      <point x="673" y="-126"/>
      <point x="668" y="-158" type="curve" smooth="yes"/>
      <point x="661" y="-208"/>
      <point x="614" y="-257"/>
      <point x="567" y="-257" type="curve" smooth="yes"/>
      <point x="475" y="-257"/>
      <point x="450" y="-197"/>
      <point x="468" y="-102" type="curve" smooth="yes"/>
      <point x="472" y="-66"/>
      <point x="551" y="406"/>
      <point x="553" y="406" type="curve"/>
    </contour>
    <contour>
      <point x="824" y="2048" type="line"/>
      <point x="335" y="2048" type="line"/>
      <point x="-5" y="0" type="line"/>
      <point x="484" y="0" type="line"/>
    </contour>
  </outline>
</glyph>
